M48
; DRILL file {KiCad 5.1.5-52549c5~84~ubuntu18.04.1} date Wed 05 Feb 2020 04:11:04 PM EST
; FORMAT={-:-/ absolute / inch / decimal}
; #@! TF.CreationDate,2020-02-05T16:11:04-05:00
; #@! TF.GenerationSoftware,Kicad,Pcbnew,5.1.5-52549c5~84~ubuntu18.04.1
FMAT,2
INCH
T1C0.0138
T2C0.0429
T3C0.0827
%
G90
G05
T1
X4.4Y-4.135
X4.465Y-4.5954
X4.4693Y-4.155
X4.515Y-3.99
X4.515Y-4.19
X4.515Y-4.28
X4.5181Y-3.9219
X4.52Y-3.73
X4.54Y-4.085
X4.57Y-3.895
X4.57Y-4.095
X4.585Y-4.17
X4.65Y-4.0
X4.65Y-4.0
X4.7391Y-3.85
X4.7392Y-3.88
X4.77Y-4.11
X4.785Y-3.85
X4.785Y-3.88
X4.81Y-4.085
X4.81Y-4.28
X4.835Y-4.67
X4.85Y-4.45
X4.85Y-4.5
X4.975Y-3.98
X5.245Y-4.155
X5.3Y-4.25
X5.32Y-3.8
X5.34Y-4.25
X5.355Y-4.155
T2
X5.42Y-4.09
X5.42Y-4.19
X5.42Y-4.29
X5.42Y-3.655
X5.42Y-3.755
X5.42Y-3.855
X5.42Y-4.525
X5.42Y-4.625
X5.42Y-4.725
X4.32Y-4.26
X4.32Y-4.36
T3
X4.135Y-3.765
X4.135Y-4.62
X5.615Y-4.735
X5.615Y-3.655
T0
M30
