G04 #@! TF.GenerationSoftware,KiCad,Pcbnew,5.1.5-52549c5~84~ubuntu18.04.1*
G04 #@! TF.CreationDate,2020-02-05T16:10:53-05:00*
G04 #@! TF.ProjectId,ultrasonic,756c7472-6173-46f6-9e69-632e6b696361,rev?*
G04 #@! TF.SameCoordinates,Original*
G04 #@! TF.FileFunction,Copper,L1,Top*
G04 #@! TF.FilePolarity,Positive*
%FSLAX46Y46*%
G04 Gerber Fmt 4.6, Leading zero omitted, Abs format (unit mm)*
G04 Created by KiCad (PCBNEW 5.1.5-52549c5~84~ubuntu18.04.1) date 2020-02-05 16:10:53*
%MOMM*%
%LPD*%
G04 APERTURE LIST*
%ADD10C,1.740000*%
%ADD11C,0.100000*%
%ADD12R,2.000000X1.500000*%
%ADD13R,2.000000X3.800000*%
%ADD14R,1.350000X0.400000*%
%ADD15R,1.600000X2.100000*%
%ADD16R,1.900000X1.800000*%
%ADD17R,1.900000X1.900000*%
%ADD18R,1.500000X0.550000*%
%ADD19R,0.550000X1.500000*%
%ADD20R,1.400000X1.000000*%
%ADD21R,1.400000X1.200000*%
%ADD22C,0.400000*%
%ADD23C,0.250000*%
%ADD24C,0.254000*%
G04 APERTURE END LIST*
D10*
X137668000Y-114935000D03*
X137668000Y-117475000D03*
G04 #@! TA.AperFunction,ComponentPad*
D11*
G36*
X138312505Y-119146204D02*
G01*
X138336773Y-119149804D01*
X138360572Y-119155765D01*
X138383671Y-119164030D01*
X138405850Y-119174520D01*
X138426893Y-119187132D01*
X138446599Y-119201747D01*
X138464777Y-119218223D01*
X138481253Y-119236401D01*
X138495868Y-119256107D01*
X138508480Y-119277150D01*
X138518970Y-119299329D01*
X138527235Y-119322428D01*
X138533196Y-119346227D01*
X138536796Y-119370495D01*
X138538000Y-119394999D01*
X138538000Y-120635001D01*
X138536796Y-120659505D01*
X138533196Y-120683773D01*
X138527235Y-120707572D01*
X138518970Y-120730671D01*
X138508480Y-120752850D01*
X138495868Y-120773893D01*
X138481253Y-120793599D01*
X138464777Y-120811777D01*
X138446599Y-120828253D01*
X138426893Y-120842868D01*
X138405850Y-120855480D01*
X138383671Y-120865970D01*
X138360572Y-120874235D01*
X138336773Y-120880196D01*
X138312505Y-120883796D01*
X138288001Y-120885000D01*
X137047999Y-120885000D01*
X137023495Y-120883796D01*
X136999227Y-120880196D01*
X136975428Y-120874235D01*
X136952329Y-120865970D01*
X136930150Y-120855480D01*
X136909107Y-120842868D01*
X136889401Y-120828253D01*
X136871223Y-120811777D01*
X136854747Y-120793599D01*
X136840132Y-120773893D01*
X136827520Y-120752850D01*
X136817030Y-120730671D01*
X136808765Y-120707572D01*
X136802804Y-120683773D01*
X136799204Y-120659505D01*
X136798000Y-120635001D01*
X136798000Y-119394999D01*
X136799204Y-119370495D01*
X136802804Y-119346227D01*
X136808765Y-119322428D01*
X136817030Y-119299329D01*
X136827520Y-119277150D01*
X136840132Y-119256107D01*
X136854747Y-119236401D01*
X136871223Y-119218223D01*
X136889401Y-119201747D01*
X136909107Y-119187132D01*
X136930150Y-119174520D01*
X136952329Y-119164030D01*
X136975428Y-119155765D01*
X136999227Y-119149804D01*
X137023495Y-119146204D01*
X137047999Y-119145000D01*
X138288001Y-119145000D01*
X138312505Y-119146204D01*
G37*
G04 #@! TD.AperFunction*
D10*
X137668000Y-103886000D03*
X137668000Y-106426000D03*
G04 #@! TA.AperFunction,ComponentPad*
D11*
G36*
X138312505Y-108097204D02*
G01*
X138336773Y-108100804D01*
X138360572Y-108106765D01*
X138383671Y-108115030D01*
X138405850Y-108125520D01*
X138426893Y-108138132D01*
X138446599Y-108152747D01*
X138464777Y-108169223D01*
X138481253Y-108187401D01*
X138495868Y-108207107D01*
X138508480Y-108228150D01*
X138518970Y-108250329D01*
X138527235Y-108273428D01*
X138533196Y-108297227D01*
X138536796Y-108321495D01*
X138538000Y-108345999D01*
X138538000Y-109586001D01*
X138536796Y-109610505D01*
X138533196Y-109634773D01*
X138527235Y-109658572D01*
X138518970Y-109681671D01*
X138508480Y-109703850D01*
X138495868Y-109724893D01*
X138481253Y-109744599D01*
X138464777Y-109762777D01*
X138446599Y-109779253D01*
X138426893Y-109793868D01*
X138405850Y-109806480D01*
X138383671Y-109816970D01*
X138360572Y-109825235D01*
X138336773Y-109831196D01*
X138312505Y-109834796D01*
X138288001Y-109836000D01*
X137047999Y-109836000D01*
X137023495Y-109834796D01*
X136999227Y-109831196D01*
X136975428Y-109825235D01*
X136952329Y-109816970D01*
X136930150Y-109806480D01*
X136909107Y-109793868D01*
X136889401Y-109779253D01*
X136871223Y-109762777D01*
X136854747Y-109744599D01*
X136840132Y-109724893D01*
X136827520Y-109703850D01*
X136817030Y-109681671D01*
X136808765Y-109658572D01*
X136802804Y-109634773D01*
X136799204Y-109610505D01*
X136798000Y-109586001D01*
X136798000Y-108345999D01*
X136799204Y-108321495D01*
X136802804Y-108297227D01*
X136808765Y-108273428D01*
X136817030Y-108250329D01*
X136827520Y-108228150D01*
X136840132Y-108207107D01*
X136854747Y-108187401D01*
X136871223Y-108169223D01*
X136889401Y-108152747D01*
X136909107Y-108138132D01*
X136930150Y-108125520D01*
X136952329Y-108115030D01*
X136975428Y-108106765D01*
X136999227Y-108100804D01*
X137023495Y-108097204D01*
X137047999Y-108096000D01*
X138288001Y-108096000D01*
X138312505Y-108097204D01*
G37*
G04 #@! TD.AperFunction*
D10*
X137668000Y-92837000D03*
X137668000Y-95377000D03*
G04 #@! TA.AperFunction,ComponentPad*
D11*
G36*
X138312505Y-97048204D02*
G01*
X138336773Y-97051804D01*
X138360572Y-97057765D01*
X138383671Y-97066030D01*
X138405850Y-97076520D01*
X138426893Y-97089132D01*
X138446599Y-97103747D01*
X138464777Y-97120223D01*
X138481253Y-97138401D01*
X138495868Y-97158107D01*
X138508480Y-97179150D01*
X138518970Y-97201329D01*
X138527235Y-97224428D01*
X138533196Y-97248227D01*
X138536796Y-97272495D01*
X138538000Y-97296999D01*
X138538000Y-98537001D01*
X138536796Y-98561505D01*
X138533196Y-98585773D01*
X138527235Y-98609572D01*
X138518970Y-98632671D01*
X138508480Y-98654850D01*
X138495868Y-98675893D01*
X138481253Y-98695599D01*
X138464777Y-98713777D01*
X138446599Y-98730253D01*
X138426893Y-98744868D01*
X138405850Y-98757480D01*
X138383671Y-98767970D01*
X138360572Y-98776235D01*
X138336773Y-98782196D01*
X138312505Y-98785796D01*
X138288001Y-98787000D01*
X137047999Y-98787000D01*
X137023495Y-98785796D01*
X136999227Y-98782196D01*
X136975428Y-98776235D01*
X136952329Y-98767970D01*
X136930150Y-98757480D01*
X136909107Y-98744868D01*
X136889401Y-98730253D01*
X136871223Y-98713777D01*
X136854747Y-98695599D01*
X136840132Y-98675893D01*
X136827520Y-98654850D01*
X136817030Y-98632671D01*
X136808765Y-98609572D01*
X136802804Y-98585773D01*
X136799204Y-98561505D01*
X136798000Y-98537001D01*
X136798000Y-97296999D01*
X136799204Y-97272495D01*
X136802804Y-97248227D01*
X136808765Y-97224428D01*
X136817030Y-97201329D01*
X136827520Y-97179150D01*
X136840132Y-97158107D01*
X136854747Y-97138401D01*
X136871223Y-97120223D01*
X136889401Y-97103747D01*
X136909107Y-97089132D01*
X136930150Y-97076520D01*
X136952329Y-97066030D01*
X136975428Y-97057765D01*
X136999227Y-97051804D01*
X137023495Y-97048204D01*
X137047999Y-97047000D01*
X138288001Y-97047000D01*
X138312505Y-97048204D01*
G37*
G04 #@! TD.AperFunction*
D10*
X109728000Y-108204000D03*
G04 #@! TA.AperFunction,ComponentPad*
D11*
G36*
X110372505Y-109875204D02*
G01*
X110396773Y-109878804D01*
X110420572Y-109884765D01*
X110443671Y-109893030D01*
X110465850Y-109903520D01*
X110486893Y-109916132D01*
X110506599Y-109930747D01*
X110524777Y-109947223D01*
X110541253Y-109965401D01*
X110555868Y-109985107D01*
X110568480Y-110006150D01*
X110578970Y-110028329D01*
X110587235Y-110051428D01*
X110593196Y-110075227D01*
X110596796Y-110099495D01*
X110598000Y-110123999D01*
X110598000Y-111364001D01*
X110596796Y-111388505D01*
X110593196Y-111412773D01*
X110587235Y-111436572D01*
X110578970Y-111459671D01*
X110568480Y-111481850D01*
X110555868Y-111502893D01*
X110541253Y-111522599D01*
X110524777Y-111540777D01*
X110506599Y-111557253D01*
X110486893Y-111571868D01*
X110465850Y-111584480D01*
X110443671Y-111594970D01*
X110420572Y-111603235D01*
X110396773Y-111609196D01*
X110372505Y-111612796D01*
X110348001Y-111614000D01*
X109107999Y-111614000D01*
X109083495Y-111612796D01*
X109059227Y-111609196D01*
X109035428Y-111603235D01*
X109012329Y-111594970D01*
X108990150Y-111584480D01*
X108969107Y-111571868D01*
X108949401Y-111557253D01*
X108931223Y-111540777D01*
X108914747Y-111522599D01*
X108900132Y-111502893D01*
X108887520Y-111481850D01*
X108877030Y-111459671D01*
X108868765Y-111436572D01*
X108862804Y-111412773D01*
X108859204Y-111388505D01*
X108858000Y-111364001D01*
X108858000Y-110123999D01*
X108859204Y-110099495D01*
X108862804Y-110075227D01*
X108868765Y-110051428D01*
X108877030Y-110028329D01*
X108887520Y-110006150D01*
X108900132Y-109985107D01*
X108914747Y-109965401D01*
X108931223Y-109947223D01*
X108949401Y-109930747D01*
X108969107Y-109916132D01*
X108990150Y-109903520D01*
X109012329Y-109893030D01*
X109035428Y-109884765D01*
X109059227Y-109878804D01*
X109083495Y-109875204D01*
X109107999Y-109874000D01*
X110348001Y-109874000D01*
X110372505Y-109875204D01*
G37*
G04 #@! TD.AperFunction*
D12*
X125120000Y-111365000D03*
X125120000Y-115965000D03*
X125120000Y-113665000D03*
D13*
X131420000Y-113665000D03*
D14*
X113030000Y-99441000D03*
X113030000Y-98791000D03*
X113030000Y-100091000D03*
X113030000Y-98141000D03*
X113030000Y-100741000D03*
D15*
X112905000Y-96341000D03*
X112905000Y-102541000D03*
D16*
X110355000Y-95641000D03*
X110355000Y-103241000D03*
D17*
X110355000Y-98241000D03*
X110355000Y-100641000D03*
G04 #@! TA.AperFunction,SMDPad,CuDef*
D11*
G36*
X122659505Y-115506204D02*
G01*
X122683773Y-115509804D01*
X122707572Y-115515765D01*
X122730671Y-115524030D01*
X122752850Y-115534520D01*
X122773893Y-115547132D01*
X122793599Y-115561747D01*
X122811777Y-115578223D01*
X122828253Y-115596401D01*
X122842868Y-115616107D01*
X122855480Y-115637150D01*
X122865970Y-115659329D01*
X122874235Y-115682428D01*
X122880196Y-115706227D01*
X122883796Y-115730495D01*
X122885000Y-115754999D01*
X122885000Y-116655001D01*
X122883796Y-116679505D01*
X122880196Y-116703773D01*
X122874235Y-116727572D01*
X122865970Y-116750671D01*
X122855480Y-116772850D01*
X122842868Y-116793893D01*
X122828253Y-116813599D01*
X122811777Y-116831777D01*
X122793599Y-116848253D01*
X122773893Y-116862868D01*
X122752850Y-116875480D01*
X122730671Y-116885970D01*
X122707572Y-116894235D01*
X122683773Y-116900196D01*
X122659505Y-116903796D01*
X122635001Y-116905000D01*
X121984999Y-116905000D01*
X121960495Y-116903796D01*
X121936227Y-116900196D01*
X121912428Y-116894235D01*
X121889329Y-116885970D01*
X121867150Y-116875480D01*
X121846107Y-116862868D01*
X121826401Y-116848253D01*
X121808223Y-116831777D01*
X121791747Y-116813599D01*
X121777132Y-116793893D01*
X121764520Y-116772850D01*
X121754030Y-116750671D01*
X121745765Y-116727572D01*
X121739804Y-116703773D01*
X121736204Y-116679505D01*
X121735000Y-116655001D01*
X121735000Y-115754999D01*
X121736204Y-115730495D01*
X121739804Y-115706227D01*
X121745765Y-115682428D01*
X121754030Y-115659329D01*
X121764520Y-115637150D01*
X121777132Y-115616107D01*
X121791747Y-115596401D01*
X121808223Y-115578223D01*
X121826401Y-115561747D01*
X121846107Y-115547132D01*
X121867150Y-115534520D01*
X121889329Y-115524030D01*
X121912428Y-115515765D01*
X121936227Y-115509804D01*
X121960495Y-115506204D01*
X121984999Y-115505000D01*
X122635001Y-115505000D01*
X122659505Y-115506204D01*
G37*
G04 #@! TD.AperFunction*
G04 #@! TA.AperFunction,SMDPad,CuDef*
G36*
X120609505Y-115506204D02*
G01*
X120633773Y-115509804D01*
X120657572Y-115515765D01*
X120680671Y-115524030D01*
X120702850Y-115534520D01*
X120723893Y-115547132D01*
X120743599Y-115561747D01*
X120761777Y-115578223D01*
X120778253Y-115596401D01*
X120792868Y-115616107D01*
X120805480Y-115637150D01*
X120815970Y-115659329D01*
X120824235Y-115682428D01*
X120830196Y-115706227D01*
X120833796Y-115730495D01*
X120835000Y-115754999D01*
X120835000Y-116655001D01*
X120833796Y-116679505D01*
X120830196Y-116703773D01*
X120824235Y-116727572D01*
X120815970Y-116750671D01*
X120805480Y-116772850D01*
X120792868Y-116793893D01*
X120778253Y-116813599D01*
X120761777Y-116831777D01*
X120743599Y-116848253D01*
X120723893Y-116862868D01*
X120702850Y-116875480D01*
X120680671Y-116885970D01*
X120657572Y-116894235D01*
X120633773Y-116900196D01*
X120609505Y-116903796D01*
X120585001Y-116905000D01*
X119934999Y-116905000D01*
X119910495Y-116903796D01*
X119886227Y-116900196D01*
X119862428Y-116894235D01*
X119839329Y-116885970D01*
X119817150Y-116875480D01*
X119796107Y-116862868D01*
X119776401Y-116848253D01*
X119758223Y-116831777D01*
X119741747Y-116813599D01*
X119727132Y-116793893D01*
X119714520Y-116772850D01*
X119704030Y-116750671D01*
X119695765Y-116727572D01*
X119689804Y-116703773D01*
X119686204Y-116679505D01*
X119685000Y-116655001D01*
X119685000Y-115754999D01*
X119686204Y-115730495D01*
X119689804Y-115706227D01*
X119695765Y-115682428D01*
X119704030Y-115659329D01*
X119714520Y-115637150D01*
X119727132Y-115616107D01*
X119741747Y-115596401D01*
X119758223Y-115578223D01*
X119776401Y-115561747D01*
X119796107Y-115547132D01*
X119817150Y-115534520D01*
X119839329Y-115524030D01*
X119862428Y-115515765D01*
X119886227Y-115509804D01*
X119910495Y-115506204D01*
X119934999Y-115505000D01*
X120585001Y-115505000D01*
X120609505Y-115506204D01*
G37*
G04 #@! TD.AperFunction*
G04 #@! TA.AperFunction,SMDPad,CuDef*
G36*
X118214505Y-115506204D02*
G01*
X118238773Y-115509804D01*
X118262572Y-115515765D01*
X118285671Y-115524030D01*
X118307850Y-115534520D01*
X118328893Y-115547132D01*
X118348599Y-115561747D01*
X118366777Y-115578223D01*
X118383253Y-115596401D01*
X118397868Y-115616107D01*
X118410480Y-115637150D01*
X118420970Y-115659329D01*
X118429235Y-115682428D01*
X118435196Y-115706227D01*
X118438796Y-115730495D01*
X118440000Y-115754999D01*
X118440000Y-116655001D01*
X118438796Y-116679505D01*
X118435196Y-116703773D01*
X118429235Y-116727572D01*
X118420970Y-116750671D01*
X118410480Y-116772850D01*
X118397868Y-116793893D01*
X118383253Y-116813599D01*
X118366777Y-116831777D01*
X118348599Y-116848253D01*
X118328893Y-116862868D01*
X118307850Y-116875480D01*
X118285671Y-116885970D01*
X118262572Y-116894235D01*
X118238773Y-116900196D01*
X118214505Y-116903796D01*
X118190001Y-116905000D01*
X117539999Y-116905000D01*
X117515495Y-116903796D01*
X117491227Y-116900196D01*
X117467428Y-116894235D01*
X117444329Y-116885970D01*
X117422150Y-116875480D01*
X117401107Y-116862868D01*
X117381401Y-116848253D01*
X117363223Y-116831777D01*
X117346747Y-116813599D01*
X117332132Y-116793893D01*
X117319520Y-116772850D01*
X117309030Y-116750671D01*
X117300765Y-116727572D01*
X117294804Y-116703773D01*
X117291204Y-116679505D01*
X117290000Y-116655001D01*
X117290000Y-115754999D01*
X117291204Y-115730495D01*
X117294804Y-115706227D01*
X117300765Y-115682428D01*
X117309030Y-115659329D01*
X117319520Y-115637150D01*
X117332132Y-115616107D01*
X117346747Y-115596401D01*
X117363223Y-115578223D01*
X117381401Y-115561747D01*
X117401107Y-115547132D01*
X117422150Y-115534520D01*
X117444329Y-115524030D01*
X117467428Y-115515765D01*
X117491227Y-115509804D01*
X117515495Y-115506204D01*
X117539999Y-115505000D01*
X118190001Y-115505000D01*
X118214505Y-115506204D01*
G37*
G04 #@! TD.AperFunction*
G04 #@! TA.AperFunction,SMDPad,CuDef*
G36*
X116164505Y-115506204D02*
G01*
X116188773Y-115509804D01*
X116212572Y-115515765D01*
X116235671Y-115524030D01*
X116257850Y-115534520D01*
X116278893Y-115547132D01*
X116298599Y-115561747D01*
X116316777Y-115578223D01*
X116333253Y-115596401D01*
X116347868Y-115616107D01*
X116360480Y-115637150D01*
X116370970Y-115659329D01*
X116379235Y-115682428D01*
X116385196Y-115706227D01*
X116388796Y-115730495D01*
X116390000Y-115754999D01*
X116390000Y-116655001D01*
X116388796Y-116679505D01*
X116385196Y-116703773D01*
X116379235Y-116727572D01*
X116370970Y-116750671D01*
X116360480Y-116772850D01*
X116347868Y-116793893D01*
X116333253Y-116813599D01*
X116316777Y-116831777D01*
X116298599Y-116848253D01*
X116278893Y-116862868D01*
X116257850Y-116875480D01*
X116235671Y-116885970D01*
X116212572Y-116894235D01*
X116188773Y-116900196D01*
X116164505Y-116903796D01*
X116140001Y-116905000D01*
X115489999Y-116905000D01*
X115465495Y-116903796D01*
X115441227Y-116900196D01*
X115417428Y-116894235D01*
X115394329Y-116885970D01*
X115372150Y-116875480D01*
X115351107Y-116862868D01*
X115331401Y-116848253D01*
X115313223Y-116831777D01*
X115296747Y-116813599D01*
X115282132Y-116793893D01*
X115269520Y-116772850D01*
X115259030Y-116750671D01*
X115250765Y-116727572D01*
X115244804Y-116703773D01*
X115241204Y-116679505D01*
X115240000Y-116655001D01*
X115240000Y-115754999D01*
X115241204Y-115730495D01*
X115244804Y-115706227D01*
X115250765Y-115682428D01*
X115259030Y-115659329D01*
X115269520Y-115637150D01*
X115282132Y-115616107D01*
X115296747Y-115596401D01*
X115313223Y-115578223D01*
X115331401Y-115561747D01*
X115351107Y-115547132D01*
X115372150Y-115534520D01*
X115394329Y-115524030D01*
X115417428Y-115515765D01*
X115441227Y-115509804D01*
X115465495Y-115506204D01*
X115489999Y-115505000D01*
X116140001Y-115505000D01*
X116164505Y-115506204D01*
G37*
G04 #@! TD.AperFunction*
G04 #@! TA.AperFunction,SMDPad,CuDef*
G36*
X123294505Y-95821204D02*
G01*
X123318773Y-95824804D01*
X123342572Y-95830765D01*
X123365671Y-95839030D01*
X123387850Y-95849520D01*
X123408893Y-95862132D01*
X123428599Y-95876747D01*
X123446777Y-95893223D01*
X123463253Y-95911401D01*
X123477868Y-95931107D01*
X123490480Y-95952150D01*
X123500970Y-95974329D01*
X123509235Y-95997428D01*
X123515196Y-96021227D01*
X123518796Y-96045495D01*
X123520000Y-96069999D01*
X123520000Y-96970001D01*
X123518796Y-96994505D01*
X123515196Y-97018773D01*
X123509235Y-97042572D01*
X123500970Y-97065671D01*
X123490480Y-97087850D01*
X123477868Y-97108893D01*
X123463253Y-97128599D01*
X123446777Y-97146777D01*
X123428599Y-97163253D01*
X123408893Y-97177868D01*
X123387850Y-97190480D01*
X123365671Y-97200970D01*
X123342572Y-97209235D01*
X123318773Y-97215196D01*
X123294505Y-97218796D01*
X123270001Y-97220000D01*
X122619999Y-97220000D01*
X122595495Y-97218796D01*
X122571227Y-97215196D01*
X122547428Y-97209235D01*
X122524329Y-97200970D01*
X122502150Y-97190480D01*
X122481107Y-97177868D01*
X122461401Y-97163253D01*
X122443223Y-97146777D01*
X122426747Y-97128599D01*
X122412132Y-97108893D01*
X122399520Y-97087850D01*
X122389030Y-97065671D01*
X122380765Y-97042572D01*
X122374804Y-97018773D01*
X122371204Y-96994505D01*
X122370000Y-96970001D01*
X122370000Y-96069999D01*
X122371204Y-96045495D01*
X122374804Y-96021227D01*
X122380765Y-95997428D01*
X122389030Y-95974329D01*
X122399520Y-95952150D01*
X122412132Y-95931107D01*
X122426747Y-95911401D01*
X122443223Y-95893223D01*
X122461401Y-95876747D01*
X122481107Y-95862132D01*
X122502150Y-95849520D01*
X122524329Y-95839030D01*
X122547428Y-95830765D01*
X122571227Y-95824804D01*
X122595495Y-95821204D01*
X122619999Y-95820000D01*
X123270001Y-95820000D01*
X123294505Y-95821204D01*
G37*
G04 #@! TD.AperFunction*
G04 #@! TA.AperFunction,SMDPad,CuDef*
G36*
X121244505Y-95821204D02*
G01*
X121268773Y-95824804D01*
X121292572Y-95830765D01*
X121315671Y-95839030D01*
X121337850Y-95849520D01*
X121358893Y-95862132D01*
X121378599Y-95876747D01*
X121396777Y-95893223D01*
X121413253Y-95911401D01*
X121427868Y-95931107D01*
X121440480Y-95952150D01*
X121450970Y-95974329D01*
X121459235Y-95997428D01*
X121465196Y-96021227D01*
X121468796Y-96045495D01*
X121470000Y-96069999D01*
X121470000Y-96970001D01*
X121468796Y-96994505D01*
X121465196Y-97018773D01*
X121459235Y-97042572D01*
X121450970Y-97065671D01*
X121440480Y-97087850D01*
X121427868Y-97108893D01*
X121413253Y-97128599D01*
X121396777Y-97146777D01*
X121378599Y-97163253D01*
X121358893Y-97177868D01*
X121337850Y-97190480D01*
X121315671Y-97200970D01*
X121292572Y-97209235D01*
X121268773Y-97215196D01*
X121244505Y-97218796D01*
X121220001Y-97220000D01*
X120569999Y-97220000D01*
X120545495Y-97218796D01*
X120521227Y-97215196D01*
X120497428Y-97209235D01*
X120474329Y-97200970D01*
X120452150Y-97190480D01*
X120431107Y-97177868D01*
X120411401Y-97163253D01*
X120393223Y-97146777D01*
X120376747Y-97128599D01*
X120362132Y-97108893D01*
X120349520Y-97087850D01*
X120339030Y-97065671D01*
X120330765Y-97042572D01*
X120324804Y-97018773D01*
X120321204Y-96994505D01*
X120320000Y-96970001D01*
X120320000Y-96069999D01*
X120321204Y-96045495D01*
X120324804Y-96021227D01*
X120330765Y-95997428D01*
X120339030Y-95974329D01*
X120349520Y-95952150D01*
X120362132Y-95931107D01*
X120376747Y-95911401D01*
X120393223Y-95893223D01*
X120411401Y-95876747D01*
X120431107Y-95862132D01*
X120452150Y-95849520D01*
X120474329Y-95839030D01*
X120497428Y-95830765D01*
X120521227Y-95824804D01*
X120545495Y-95821204D01*
X120569999Y-95820000D01*
X121220001Y-95820000D01*
X121244505Y-95821204D01*
G37*
G04 #@! TD.AperFunction*
G04 #@! TA.AperFunction,SMDPad,CuDef*
G36*
X118849505Y-95821204D02*
G01*
X118873773Y-95824804D01*
X118897572Y-95830765D01*
X118920671Y-95839030D01*
X118942850Y-95849520D01*
X118963893Y-95862132D01*
X118983599Y-95876747D01*
X119001777Y-95893223D01*
X119018253Y-95911401D01*
X119032868Y-95931107D01*
X119045480Y-95952150D01*
X119055970Y-95974329D01*
X119064235Y-95997428D01*
X119070196Y-96021227D01*
X119073796Y-96045495D01*
X119075000Y-96069999D01*
X119075000Y-96970001D01*
X119073796Y-96994505D01*
X119070196Y-97018773D01*
X119064235Y-97042572D01*
X119055970Y-97065671D01*
X119045480Y-97087850D01*
X119032868Y-97108893D01*
X119018253Y-97128599D01*
X119001777Y-97146777D01*
X118983599Y-97163253D01*
X118963893Y-97177868D01*
X118942850Y-97190480D01*
X118920671Y-97200970D01*
X118897572Y-97209235D01*
X118873773Y-97215196D01*
X118849505Y-97218796D01*
X118825001Y-97220000D01*
X118174999Y-97220000D01*
X118150495Y-97218796D01*
X118126227Y-97215196D01*
X118102428Y-97209235D01*
X118079329Y-97200970D01*
X118057150Y-97190480D01*
X118036107Y-97177868D01*
X118016401Y-97163253D01*
X117998223Y-97146777D01*
X117981747Y-97128599D01*
X117967132Y-97108893D01*
X117954520Y-97087850D01*
X117944030Y-97065671D01*
X117935765Y-97042572D01*
X117929804Y-97018773D01*
X117926204Y-96994505D01*
X117925000Y-96970001D01*
X117925000Y-96069999D01*
X117926204Y-96045495D01*
X117929804Y-96021227D01*
X117935765Y-95997428D01*
X117944030Y-95974329D01*
X117954520Y-95952150D01*
X117967132Y-95931107D01*
X117981747Y-95911401D01*
X117998223Y-95893223D01*
X118016401Y-95876747D01*
X118036107Y-95862132D01*
X118057150Y-95849520D01*
X118079329Y-95839030D01*
X118102428Y-95830765D01*
X118126227Y-95824804D01*
X118150495Y-95821204D01*
X118174999Y-95820000D01*
X118825001Y-95820000D01*
X118849505Y-95821204D01*
G37*
G04 #@! TD.AperFunction*
G04 #@! TA.AperFunction,SMDPad,CuDef*
G36*
X116799505Y-95821204D02*
G01*
X116823773Y-95824804D01*
X116847572Y-95830765D01*
X116870671Y-95839030D01*
X116892850Y-95849520D01*
X116913893Y-95862132D01*
X116933599Y-95876747D01*
X116951777Y-95893223D01*
X116968253Y-95911401D01*
X116982868Y-95931107D01*
X116995480Y-95952150D01*
X117005970Y-95974329D01*
X117014235Y-95997428D01*
X117020196Y-96021227D01*
X117023796Y-96045495D01*
X117025000Y-96069999D01*
X117025000Y-96970001D01*
X117023796Y-96994505D01*
X117020196Y-97018773D01*
X117014235Y-97042572D01*
X117005970Y-97065671D01*
X116995480Y-97087850D01*
X116982868Y-97108893D01*
X116968253Y-97128599D01*
X116951777Y-97146777D01*
X116933599Y-97163253D01*
X116913893Y-97177868D01*
X116892850Y-97190480D01*
X116870671Y-97200970D01*
X116847572Y-97209235D01*
X116823773Y-97215196D01*
X116799505Y-97218796D01*
X116775001Y-97220000D01*
X116124999Y-97220000D01*
X116100495Y-97218796D01*
X116076227Y-97215196D01*
X116052428Y-97209235D01*
X116029329Y-97200970D01*
X116007150Y-97190480D01*
X115986107Y-97177868D01*
X115966401Y-97163253D01*
X115948223Y-97146777D01*
X115931747Y-97128599D01*
X115917132Y-97108893D01*
X115904520Y-97087850D01*
X115894030Y-97065671D01*
X115885765Y-97042572D01*
X115879804Y-97018773D01*
X115876204Y-96994505D01*
X115875000Y-96970001D01*
X115875000Y-96069999D01*
X115876204Y-96045495D01*
X115879804Y-96021227D01*
X115885765Y-95997428D01*
X115894030Y-95974329D01*
X115904520Y-95952150D01*
X115917132Y-95931107D01*
X115931747Y-95911401D01*
X115948223Y-95893223D01*
X115966401Y-95876747D01*
X115986107Y-95862132D01*
X116007150Y-95849520D01*
X116029329Y-95839030D01*
X116052428Y-95830765D01*
X116076227Y-95824804D01*
X116100495Y-95821204D01*
X116124999Y-95820000D01*
X116775001Y-95820000D01*
X116799505Y-95821204D01*
G37*
G04 #@! TD.AperFunction*
G04 #@! TA.AperFunction,SMDPad,CuDef*
G36*
X120609505Y-111061204D02*
G01*
X120633773Y-111064804D01*
X120657572Y-111070765D01*
X120680671Y-111079030D01*
X120702850Y-111089520D01*
X120723893Y-111102132D01*
X120743599Y-111116747D01*
X120761777Y-111133223D01*
X120778253Y-111151401D01*
X120792868Y-111171107D01*
X120805480Y-111192150D01*
X120815970Y-111214329D01*
X120824235Y-111237428D01*
X120830196Y-111261227D01*
X120833796Y-111285495D01*
X120835000Y-111309999D01*
X120835000Y-112210001D01*
X120833796Y-112234505D01*
X120830196Y-112258773D01*
X120824235Y-112282572D01*
X120815970Y-112305671D01*
X120805480Y-112327850D01*
X120792868Y-112348893D01*
X120778253Y-112368599D01*
X120761777Y-112386777D01*
X120743599Y-112403253D01*
X120723893Y-112417868D01*
X120702850Y-112430480D01*
X120680671Y-112440970D01*
X120657572Y-112449235D01*
X120633773Y-112455196D01*
X120609505Y-112458796D01*
X120585001Y-112460000D01*
X119934999Y-112460000D01*
X119910495Y-112458796D01*
X119886227Y-112455196D01*
X119862428Y-112449235D01*
X119839329Y-112440970D01*
X119817150Y-112430480D01*
X119796107Y-112417868D01*
X119776401Y-112403253D01*
X119758223Y-112386777D01*
X119741747Y-112368599D01*
X119727132Y-112348893D01*
X119714520Y-112327850D01*
X119704030Y-112305671D01*
X119695765Y-112282572D01*
X119689804Y-112258773D01*
X119686204Y-112234505D01*
X119685000Y-112210001D01*
X119685000Y-111309999D01*
X119686204Y-111285495D01*
X119689804Y-111261227D01*
X119695765Y-111237428D01*
X119704030Y-111214329D01*
X119714520Y-111192150D01*
X119727132Y-111171107D01*
X119741747Y-111151401D01*
X119758223Y-111133223D01*
X119776401Y-111116747D01*
X119796107Y-111102132D01*
X119817150Y-111089520D01*
X119839329Y-111079030D01*
X119862428Y-111070765D01*
X119886227Y-111064804D01*
X119910495Y-111061204D01*
X119934999Y-111060000D01*
X120585001Y-111060000D01*
X120609505Y-111061204D01*
G37*
G04 #@! TD.AperFunction*
G04 #@! TA.AperFunction,SMDPad,CuDef*
G36*
X122659505Y-111061204D02*
G01*
X122683773Y-111064804D01*
X122707572Y-111070765D01*
X122730671Y-111079030D01*
X122752850Y-111089520D01*
X122773893Y-111102132D01*
X122793599Y-111116747D01*
X122811777Y-111133223D01*
X122828253Y-111151401D01*
X122842868Y-111171107D01*
X122855480Y-111192150D01*
X122865970Y-111214329D01*
X122874235Y-111237428D01*
X122880196Y-111261227D01*
X122883796Y-111285495D01*
X122885000Y-111309999D01*
X122885000Y-112210001D01*
X122883796Y-112234505D01*
X122880196Y-112258773D01*
X122874235Y-112282572D01*
X122865970Y-112305671D01*
X122855480Y-112327850D01*
X122842868Y-112348893D01*
X122828253Y-112368599D01*
X122811777Y-112386777D01*
X122793599Y-112403253D01*
X122773893Y-112417868D01*
X122752850Y-112430480D01*
X122730671Y-112440970D01*
X122707572Y-112449235D01*
X122683773Y-112455196D01*
X122659505Y-112458796D01*
X122635001Y-112460000D01*
X121984999Y-112460000D01*
X121960495Y-112458796D01*
X121936227Y-112455196D01*
X121912428Y-112449235D01*
X121889329Y-112440970D01*
X121867150Y-112430480D01*
X121846107Y-112417868D01*
X121826401Y-112403253D01*
X121808223Y-112386777D01*
X121791747Y-112368599D01*
X121777132Y-112348893D01*
X121764520Y-112327850D01*
X121754030Y-112305671D01*
X121745765Y-112282572D01*
X121739804Y-112258773D01*
X121736204Y-112234505D01*
X121735000Y-112210001D01*
X121735000Y-111309999D01*
X121736204Y-111285495D01*
X121739804Y-111261227D01*
X121745765Y-111237428D01*
X121754030Y-111214329D01*
X121764520Y-111192150D01*
X121777132Y-111171107D01*
X121791747Y-111151401D01*
X121808223Y-111133223D01*
X121826401Y-111116747D01*
X121846107Y-111102132D01*
X121867150Y-111089520D01*
X121889329Y-111079030D01*
X121912428Y-111070765D01*
X121936227Y-111064804D01*
X121960495Y-111061204D01*
X121984999Y-111060000D01*
X122635001Y-111060000D01*
X122659505Y-111061204D01*
G37*
G04 #@! TD.AperFunction*
G04 #@! TA.AperFunction,SMDPad,CuDef*
G36*
X118214505Y-111061204D02*
G01*
X118238773Y-111064804D01*
X118262572Y-111070765D01*
X118285671Y-111079030D01*
X118307850Y-111089520D01*
X118328893Y-111102132D01*
X118348599Y-111116747D01*
X118366777Y-111133223D01*
X118383253Y-111151401D01*
X118397868Y-111171107D01*
X118410480Y-111192150D01*
X118420970Y-111214329D01*
X118429235Y-111237428D01*
X118435196Y-111261227D01*
X118438796Y-111285495D01*
X118440000Y-111309999D01*
X118440000Y-112210001D01*
X118438796Y-112234505D01*
X118435196Y-112258773D01*
X118429235Y-112282572D01*
X118420970Y-112305671D01*
X118410480Y-112327850D01*
X118397868Y-112348893D01*
X118383253Y-112368599D01*
X118366777Y-112386777D01*
X118348599Y-112403253D01*
X118328893Y-112417868D01*
X118307850Y-112430480D01*
X118285671Y-112440970D01*
X118262572Y-112449235D01*
X118238773Y-112455196D01*
X118214505Y-112458796D01*
X118190001Y-112460000D01*
X117539999Y-112460000D01*
X117515495Y-112458796D01*
X117491227Y-112455196D01*
X117467428Y-112449235D01*
X117444329Y-112440970D01*
X117422150Y-112430480D01*
X117401107Y-112417868D01*
X117381401Y-112403253D01*
X117363223Y-112386777D01*
X117346747Y-112368599D01*
X117332132Y-112348893D01*
X117319520Y-112327850D01*
X117309030Y-112305671D01*
X117300765Y-112282572D01*
X117294804Y-112258773D01*
X117291204Y-112234505D01*
X117290000Y-112210001D01*
X117290000Y-111309999D01*
X117291204Y-111285495D01*
X117294804Y-111261227D01*
X117300765Y-111237428D01*
X117309030Y-111214329D01*
X117319520Y-111192150D01*
X117332132Y-111171107D01*
X117346747Y-111151401D01*
X117363223Y-111133223D01*
X117381401Y-111116747D01*
X117401107Y-111102132D01*
X117422150Y-111089520D01*
X117444329Y-111079030D01*
X117467428Y-111070765D01*
X117491227Y-111064804D01*
X117515495Y-111061204D01*
X117539999Y-111060000D01*
X118190001Y-111060000D01*
X118214505Y-111061204D01*
G37*
G04 #@! TD.AperFunction*
G04 #@! TA.AperFunction,SMDPad,CuDef*
G36*
X116164505Y-111061204D02*
G01*
X116188773Y-111064804D01*
X116212572Y-111070765D01*
X116235671Y-111079030D01*
X116257850Y-111089520D01*
X116278893Y-111102132D01*
X116298599Y-111116747D01*
X116316777Y-111133223D01*
X116333253Y-111151401D01*
X116347868Y-111171107D01*
X116360480Y-111192150D01*
X116370970Y-111214329D01*
X116379235Y-111237428D01*
X116385196Y-111261227D01*
X116388796Y-111285495D01*
X116390000Y-111309999D01*
X116390000Y-112210001D01*
X116388796Y-112234505D01*
X116385196Y-112258773D01*
X116379235Y-112282572D01*
X116370970Y-112305671D01*
X116360480Y-112327850D01*
X116347868Y-112348893D01*
X116333253Y-112368599D01*
X116316777Y-112386777D01*
X116298599Y-112403253D01*
X116278893Y-112417868D01*
X116257850Y-112430480D01*
X116235671Y-112440970D01*
X116212572Y-112449235D01*
X116188773Y-112455196D01*
X116164505Y-112458796D01*
X116140001Y-112460000D01*
X115489999Y-112460000D01*
X115465495Y-112458796D01*
X115441227Y-112455196D01*
X115417428Y-112449235D01*
X115394329Y-112440970D01*
X115372150Y-112430480D01*
X115351107Y-112417868D01*
X115331401Y-112403253D01*
X115313223Y-112386777D01*
X115296747Y-112368599D01*
X115282132Y-112348893D01*
X115269520Y-112327850D01*
X115259030Y-112305671D01*
X115250765Y-112282572D01*
X115244804Y-112258773D01*
X115241204Y-112234505D01*
X115240000Y-112210001D01*
X115240000Y-111309999D01*
X115241204Y-111285495D01*
X115244804Y-111261227D01*
X115250765Y-111237428D01*
X115259030Y-111214329D01*
X115269520Y-111192150D01*
X115282132Y-111171107D01*
X115296747Y-111151401D01*
X115313223Y-111133223D01*
X115331401Y-111116747D01*
X115351107Y-111102132D01*
X115372150Y-111089520D01*
X115394329Y-111079030D01*
X115417428Y-111070765D01*
X115441227Y-111064804D01*
X115465495Y-111061204D01*
X115489999Y-111060000D01*
X116140001Y-111060000D01*
X116164505Y-111061204D01*
G37*
G04 #@! TD.AperFunction*
G04 #@! TA.AperFunction,SMDPad,CuDef*
G36*
X113885505Y-114098204D02*
G01*
X113909773Y-114101804D01*
X113933572Y-114107765D01*
X113956671Y-114116030D01*
X113978850Y-114126520D01*
X113999893Y-114139132D01*
X114019599Y-114153747D01*
X114037777Y-114170223D01*
X114054253Y-114188401D01*
X114068868Y-114208107D01*
X114081480Y-114229150D01*
X114091970Y-114251329D01*
X114100235Y-114274428D01*
X114106196Y-114298227D01*
X114109796Y-114322495D01*
X114111000Y-114346999D01*
X114111000Y-114997001D01*
X114109796Y-115021505D01*
X114106196Y-115045773D01*
X114100235Y-115069572D01*
X114091970Y-115092671D01*
X114081480Y-115114850D01*
X114068868Y-115135893D01*
X114054253Y-115155599D01*
X114037777Y-115173777D01*
X114019599Y-115190253D01*
X113999893Y-115204868D01*
X113978850Y-115217480D01*
X113956671Y-115227970D01*
X113933572Y-115236235D01*
X113909773Y-115242196D01*
X113885505Y-115245796D01*
X113861001Y-115247000D01*
X112960999Y-115247000D01*
X112936495Y-115245796D01*
X112912227Y-115242196D01*
X112888428Y-115236235D01*
X112865329Y-115227970D01*
X112843150Y-115217480D01*
X112822107Y-115204868D01*
X112802401Y-115190253D01*
X112784223Y-115173777D01*
X112767747Y-115155599D01*
X112753132Y-115135893D01*
X112740520Y-115114850D01*
X112730030Y-115092671D01*
X112721765Y-115069572D01*
X112715804Y-115045773D01*
X112712204Y-115021505D01*
X112711000Y-114997001D01*
X112711000Y-114346999D01*
X112712204Y-114322495D01*
X112715804Y-114298227D01*
X112721765Y-114274428D01*
X112730030Y-114251329D01*
X112740520Y-114229150D01*
X112753132Y-114208107D01*
X112767747Y-114188401D01*
X112784223Y-114170223D01*
X112802401Y-114153747D01*
X112822107Y-114139132D01*
X112843150Y-114126520D01*
X112865329Y-114116030D01*
X112888428Y-114107765D01*
X112912227Y-114101804D01*
X112936495Y-114098204D01*
X112960999Y-114097000D01*
X113861001Y-114097000D01*
X113885505Y-114098204D01*
G37*
G04 #@! TD.AperFunction*
G04 #@! TA.AperFunction,SMDPad,CuDef*
G36*
X113885505Y-116148204D02*
G01*
X113909773Y-116151804D01*
X113933572Y-116157765D01*
X113956671Y-116166030D01*
X113978850Y-116176520D01*
X113999893Y-116189132D01*
X114019599Y-116203747D01*
X114037777Y-116220223D01*
X114054253Y-116238401D01*
X114068868Y-116258107D01*
X114081480Y-116279150D01*
X114091970Y-116301329D01*
X114100235Y-116324428D01*
X114106196Y-116348227D01*
X114109796Y-116372495D01*
X114111000Y-116396999D01*
X114111000Y-117047001D01*
X114109796Y-117071505D01*
X114106196Y-117095773D01*
X114100235Y-117119572D01*
X114091970Y-117142671D01*
X114081480Y-117164850D01*
X114068868Y-117185893D01*
X114054253Y-117205599D01*
X114037777Y-117223777D01*
X114019599Y-117240253D01*
X113999893Y-117254868D01*
X113978850Y-117267480D01*
X113956671Y-117277970D01*
X113933572Y-117286235D01*
X113909773Y-117292196D01*
X113885505Y-117295796D01*
X113861001Y-117297000D01*
X112960999Y-117297000D01*
X112936495Y-117295796D01*
X112912227Y-117292196D01*
X112888428Y-117286235D01*
X112865329Y-117277970D01*
X112843150Y-117267480D01*
X112822107Y-117254868D01*
X112802401Y-117240253D01*
X112784223Y-117223777D01*
X112767747Y-117205599D01*
X112753132Y-117185893D01*
X112740520Y-117164850D01*
X112730030Y-117142671D01*
X112721765Y-117119572D01*
X112715804Y-117095773D01*
X112712204Y-117071505D01*
X112711000Y-117047001D01*
X112711000Y-116396999D01*
X112712204Y-116372495D01*
X112715804Y-116348227D01*
X112721765Y-116324428D01*
X112730030Y-116301329D01*
X112740520Y-116279150D01*
X112753132Y-116258107D01*
X112767747Y-116238401D01*
X112784223Y-116220223D01*
X112802401Y-116203747D01*
X112822107Y-116189132D01*
X112843150Y-116176520D01*
X112865329Y-116166030D01*
X112888428Y-116157765D01*
X112912227Y-116151804D01*
X112936495Y-116148204D01*
X112960999Y-116147000D01*
X113861001Y-116147000D01*
X113885505Y-116148204D01*
G37*
G04 #@! TD.AperFunction*
G04 #@! TA.AperFunction,SMDPad,CuDef*
G36*
X132184505Y-95821204D02*
G01*
X132208773Y-95824804D01*
X132232572Y-95830765D01*
X132255671Y-95839030D01*
X132277850Y-95849520D01*
X132298893Y-95862132D01*
X132318599Y-95876747D01*
X132336777Y-95893223D01*
X132353253Y-95911401D01*
X132367868Y-95931107D01*
X132380480Y-95952150D01*
X132390970Y-95974329D01*
X132399235Y-95997428D01*
X132405196Y-96021227D01*
X132408796Y-96045495D01*
X132410000Y-96069999D01*
X132410000Y-96970001D01*
X132408796Y-96994505D01*
X132405196Y-97018773D01*
X132399235Y-97042572D01*
X132390970Y-97065671D01*
X132380480Y-97087850D01*
X132367868Y-97108893D01*
X132353253Y-97128599D01*
X132336777Y-97146777D01*
X132318599Y-97163253D01*
X132298893Y-97177868D01*
X132277850Y-97190480D01*
X132255671Y-97200970D01*
X132232572Y-97209235D01*
X132208773Y-97215196D01*
X132184505Y-97218796D01*
X132160001Y-97220000D01*
X131509999Y-97220000D01*
X131485495Y-97218796D01*
X131461227Y-97215196D01*
X131437428Y-97209235D01*
X131414329Y-97200970D01*
X131392150Y-97190480D01*
X131371107Y-97177868D01*
X131351401Y-97163253D01*
X131333223Y-97146777D01*
X131316747Y-97128599D01*
X131302132Y-97108893D01*
X131289520Y-97087850D01*
X131279030Y-97065671D01*
X131270765Y-97042572D01*
X131264804Y-97018773D01*
X131261204Y-96994505D01*
X131260000Y-96970001D01*
X131260000Y-96069999D01*
X131261204Y-96045495D01*
X131264804Y-96021227D01*
X131270765Y-95997428D01*
X131279030Y-95974329D01*
X131289520Y-95952150D01*
X131302132Y-95931107D01*
X131316747Y-95911401D01*
X131333223Y-95893223D01*
X131351401Y-95876747D01*
X131371107Y-95862132D01*
X131392150Y-95849520D01*
X131414329Y-95839030D01*
X131437428Y-95830765D01*
X131461227Y-95824804D01*
X131485495Y-95821204D01*
X131509999Y-95820000D01*
X132160001Y-95820000D01*
X132184505Y-95821204D01*
G37*
G04 #@! TD.AperFunction*
G04 #@! TA.AperFunction,SMDPad,CuDef*
G36*
X130134505Y-95821204D02*
G01*
X130158773Y-95824804D01*
X130182572Y-95830765D01*
X130205671Y-95839030D01*
X130227850Y-95849520D01*
X130248893Y-95862132D01*
X130268599Y-95876747D01*
X130286777Y-95893223D01*
X130303253Y-95911401D01*
X130317868Y-95931107D01*
X130330480Y-95952150D01*
X130340970Y-95974329D01*
X130349235Y-95997428D01*
X130355196Y-96021227D01*
X130358796Y-96045495D01*
X130360000Y-96069999D01*
X130360000Y-96970001D01*
X130358796Y-96994505D01*
X130355196Y-97018773D01*
X130349235Y-97042572D01*
X130340970Y-97065671D01*
X130330480Y-97087850D01*
X130317868Y-97108893D01*
X130303253Y-97128599D01*
X130286777Y-97146777D01*
X130268599Y-97163253D01*
X130248893Y-97177868D01*
X130227850Y-97190480D01*
X130205671Y-97200970D01*
X130182572Y-97209235D01*
X130158773Y-97215196D01*
X130134505Y-97218796D01*
X130110001Y-97220000D01*
X129459999Y-97220000D01*
X129435495Y-97218796D01*
X129411227Y-97215196D01*
X129387428Y-97209235D01*
X129364329Y-97200970D01*
X129342150Y-97190480D01*
X129321107Y-97177868D01*
X129301401Y-97163253D01*
X129283223Y-97146777D01*
X129266747Y-97128599D01*
X129252132Y-97108893D01*
X129239520Y-97087850D01*
X129229030Y-97065671D01*
X129220765Y-97042572D01*
X129214804Y-97018773D01*
X129211204Y-96994505D01*
X129210000Y-96970001D01*
X129210000Y-96069999D01*
X129211204Y-96045495D01*
X129214804Y-96021227D01*
X129220765Y-95997428D01*
X129229030Y-95974329D01*
X129239520Y-95952150D01*
X129252132Y-95931107D01*
X129266747Y-95911401D01*
X129283223Y-95893223D01*
X129301401Y-95876747D01*
X129321107Y-95862132D01*
X129342150Y-95849520D01*
X129364329Y-95839030D01*
X129387428Y-95830765D01*
X129411227Y-95824804D01*
X129435495Y-95821204D01*
X129459999Y-95820000D01*
X130110001Y-95820000D01*
X130134505Y-95821204D01*
G37*
G04 #@! TD.AperFunction*
G04 #@! TA.AperFunction,SMDPad,CuDef*
G36*
X125689505Y-95821204D02*
G01*
X125713773Y-95824804D01*
X125737572Y-95830765D01*
X125760671Y-95839030D01*
X125782850Y-95849520D01*
X125803893Y-95862132D01*
X125823599Y-95876747D01*
X125841777Y-95893223D01*
X125858253Y-95911401D01*
X125872868Y-95931107D01*
X125885480Y-95952150D01*
X125895970Y-95974329D01*
X125904235Y-95997428D01*
X125910196Y-96021227D01*
X125913796Y-96045495D01*
X125915000Y-96069999D01*
X125915000Y-96970001D01*
X125913796Y-96994505D01*
X125910196Y-97018773D01*
X125904235Y-97042572D01*
X125895970Y-97065671D01*
X125885480Y-97087850D01*
X125872868Y-97108893D01*
X125858253Y-97128599D01*
X125841777Y-97146777D01*
X125823599Y-97163253D01*
X125803893Y-97177868D01*
X125782850Y-97190480D01*
X125760671Y-97200970D01*
X125737572Y-97209235D01*
X125713773Y-97215196D01*
X125689505Y-97218796D01*
X125665001Y-97220000D01*
X125014999Y-97220000D01*
X124990495Y-97218796D01*
X124966227Y-97215196D01*
X124942428Y-97209235D01*
X124919329Y-97200970D01*
X124897150Y-97190480D01*
X124876107Y-97177868D01*
X124856401Y-97163253D01*
X124838223Y-97146777D01*
X124821747Y-97128599D01*
X124807132Y-97108893D01*
X124794520Y-97087850D01*
X124784030Y-97065671D01*
X124775765Y-97042572D01*
X124769804Y-97018773D01*
X124766204Y-96994505D01*
X124765000Y-96970001D01*
X124765000Y-96069999D01*
X124766204Y-96045495D01*
X124769804Y-96021227D01*
X124775765Y-95997428D01*
X124784030Y-95974329D01*
X124794520Y-95952150D01*
X124807132Y-95931107D01*
X124821747Y-95911401D01*
X124838223Y-95893223D01*
X124856401Y-95876747D01*
X124876107Y-95862132D01*
X124897150Y-95849520D01*
X124919329Y-95839030D01*
X124942428Y-95830765D01*
X124966227Y-95824804D01*
X124990495Y-95821204D01*
X125014999Y-95820000D01*
X125665001Y-95820000D01*
X125689505Y-95821204D01*
G37*
G04 #@! TD.AperFunction*
G04 #@! TA.AperFunction,SMDPad,CuDef*
G36*
X127739505Y-95821204D02*
G01*
X127763773Y-95824804D01*
X127787572Y-95830765D01*
X127810671Y-95839030D01*
X127832850Y-95849520D01*
X127853893Y-95862132D01*
X127873599Y-95876747D01*
X127891777Y-95893223D01*
X127908253Y-95911401D01*
X127922868Y-95931107D01*
X127935480Y-95952150D01*
X127945970Y-95974329D01*
X127954235Y-95997428D01*
X127960196Y-96021227D01*
X127963796Y-96045495D01*
X127965000Y-96069999D01*
X127965000Y-96970001D01*
X127963796Y-96994505D01*
X127960196Y-97018773D01*
X127954235Y-97042572D01*
X127945970Y-97065671D01*
X127935480Y-97087850D01*
X127922868Y-97108893D01*
X127908253Y-97128599D01*
X127891777Y-97146777D01*
X127873599Y-97163253D01*
X127853893Y-97177868D01*
X127832850Y-97190480D01*
X127810671Y-97200970D01*
X127787572Y-97209235D01*
X127763773Y-97215196D01*
X127739505Y-97218796D01*
X127715001Y-97220000D01*
X127064999Y-97220000D01*
X127040495Y-97218796D01*
X127016227Y-97215196D01*
X126992428Y-97209235D01*
X126969329Y-97200970D01*
X126947150Y-97190480D01*
X126926107Y-97177868D01*
X126906401Y-97163253D01*
X126888223Y-97146777D01*
X126871747Y-97128599D01*
X126857132Y-97108893D01*
X126844520Y-97087850D01*
X126834030Y-97065671D01*
X126825765Y-97042572D01*
X126819804Y-97018773D01*
X126816204Y-96994505D01*
X126815000Y-96970001D01*
X126815000Y-96069999D01*
X126816204Y-96045495D01*
X126819804Y-96021227D01*
X126825765Y-95997428D01*
X126834030Y-95974329D01*
X126844520Y-95952150D01*
X126857132Y-95931107D01*
X126871747Y-95911401D01*
X126888223Y-95893223D01*
X126906401Y-95876747D01*
X126926107Y-95862132D01*
X126947150Y-95849520D01*
X126969329Y-95839030D01*
X126992428Y-95830765D01*
X127016227Y-95824804D01*
X127040495Y-95821204D01*
X127064999Y-95820000D01*
X127715001Y-95820000D01*
X127739505Y-95821204D01*
G37*
G04 #@! TD.AperFunction*
D18*
X123335000Y-106305000D03*
X123335000Y-105505000D03*
X123335000Y-104705000D03*
X123335000Y-103905000D03*
X123335000Y-103105000D03*
X123335000Y-102305000D03*
X123335000Y-101505000D03*
X123335000Y-100705000D03*
D19*
X124835000Y-99205000D03*
X125635000Y-99205000D03*
X126435000Y-99205000D03*
X127235000Y-99205000D03*
X128035000Y-99205000D03*
X128835000Y-99205000D03*
X129635000Y-99205000D03*
X130435000Y-99205000D03*
D18*
X131935000Y-100705000D03*
X131935000Y-101505000D03*
X131935000Y-102305000D03*
X131935000Y-103105000D03*
X131935000Y-103905000D03*
X131935000Y-104705000D03*
X131935000Y-105505000D03*
X131935000Y-106305000D03*
D19*
X130435000Y-107805000D03*
X129635000Y-107805000D03*
X128835000Y-107805000D03*
X128035000Y-107805000D03*
X127235000Y-107805000D03*
X126435000Y-107805000D03*
X125635000Y-107805000D03*
X124835000Y-107805000D03*
G04 #@! TA.AperFunction,SMDPad,CuDef*
D11*
G36*
X119184504Y-100301204D02*
G01*
X119208773Y-100304804D01*
X119232571Y-100310765D01*
X119255671Y-100319030D01*
X119277849Y-100329520D01*
X119298893Y-100342133D01*
X119318598Y-100356747D01*
X119336777Y-100373223D01*
X119353253Y-100391402D01*
X119367867Y-100411107D01*
X119380480Y-100432151D01*
X119390970Y-100454329D01*
X119399235Y-100477429D01*
X119405196Y-100501227D01*
X119408796Y-100525496D01*
X119410000Y-100550000D01*
X119410000Y-102650000D01*
X119408796Y-102674504D01*
X119405196Y-102698773D01*
X119399235Y-102722571D01*
X119390970Y-102745671D01*
X119380480Y-102767849D01*
X119367867Y-102788893D01*
X119353253Y-102808598D01*
X119336777Y-102826777D01*
X119318598Y-102843253D01*
X119298893Y-102857867D01*
X119277849Y-102870480D01*
X119255671Y-102880970D01*
X119232571Y-102889235D01*
X119208773Y-102895196D01*
X119184504Y-102898796D01*
X119160000Y-102900000D01*
X117060000Y-102900000D01*
X117035496Y-102898796D01*
X117011227Y-102895196D01*
X116987429Y-102889235D01*
X116964329Y-102880970D01*
X116942151Y-102870480D01*
X116921107Y-102857867D01*
X116901402Y-102843253D01*
X116883223Y-102826777D01*
X116866747Y-102808598D01*
X116852133Y-102788893D01*
X116839520Y-102767849D01*
X116829030Y-102745671D01*
X116820765Y-102722571D01*
X116814804Y-102698773D01*
X116811204Y-102674504D01*
X116810000Y-102650000D01*
X116810000Y-100550000D01*
X116811204Y-100525496D01*
X116814804Y-100501227D01*
X116820765Y-100477429D01*
X116829030Y-100454329D01*
X116839520Y-100432151D01*
X116852133Y-100411107D01*
X116866747Y-100391402D01*
X116883223Y-100373223D01*
X116901402Y-100356747D01*
X116921107Y-100342133D01*
X116942151Y-100329520D01*
X116964329Y-100319030D01*
X116987429Y-100310765D01*
X117011227Y-100304804D01*
X117035496Y-100301204D01*
X117060000Y-100300000D01*
X119160000Y-100300000D01*
X119184504Y-100301204D01*
G37*
G04 #@! TD.AperFunction*
G04 #@! TA.AperFunction,SMDPad,CuDef*
G36*
X116528626Y-100225301D02*
G01*
X116534693Y-100226201D01*
X116540643Y-100227691D01*
X116546418Y-100229758D01*
X116551962Y-100232380D01*
X116557223Y-100235533D01*
X116562150Y-100239187D01*
X116566694Y-100243306D01*
X116570813Y-100247850D01*
X116574467Y-100252777D01*
X116577620Y-100258038D01*
X116580242Y-100263582D01*
X116582309Y-100269357D01*
X116583799Y-100275307D01*
X116584699Y-100281374D01*
X116585000Y-100287500D01*
X116585000Y-100412500D01*
X116584699Y-100418626D01*
X116583799Y-100424693D01*
X116582309Y-100430643D01*
X116580242Y-100436418D01*
X116577620Y-100441962D01*
X116574467Y-100447223D01*
X116570813Y-100452150D01*
X116566694Y-100456694D01*
X116562150Y-100460813D01*
X116557223Y-100464467D01*
X116551962Y-100467620D01*
X116546418Y-100470242D01*
X116540643Y-100472309D01*
X116534693Y-100473799D01*
X116528626Y-100474699D01*
X116522500Y-100475000D01*
X115822500Y-100475000D01*
X115816374Y-100474699D01*
X115810307Y-100473799D01*
X115804357Y-100472309D01*
X115798582Y-100470242D01*
X115793038Y-100467620D01*
X115787777Y-100464467D01*
X115782850Y-100460813D01*
X115778306Y-100456694D01*
X115774187Y-100452150D01*
X115770533Y-100447223D01*
X115767380Y-100441962D01*
X115764758Y-100436418D01*
X115762691Y-100430643D01*
X115761201Y-100424693D01*
X115760301Y-100418626D01*
X115760000Y-100412500D01*
X115760000Y-100287500D01*
X115760301Y-100281374D01*
X115761201Y-100275307D01*
X115762691Y-100269357D01*
X115764758Y-100263582D01*
X115767380Y-100258038D01*
X115770533Y-100252777D01*
X115774187Y-100247850D01*
X115778306Y-100243306D01*
X115782850Y-100239187D01*
X115787777Y-100235533D01*
X115793038Y-100232380D01*
X115798582Y-100229758D01*
X115804357Y-100227691D01*
X115810307Y-100226201D01*
X115816374Y-100225301D01*
X115822500Y-100225000D01*
X116522500Y-100225000D01*
X116528626Y-100225301D01*
G37*
G04 #@! TD.AperFunction*
G04 #@! TA.AperFunction,SMDPad,CuDef*
G36*
X116528626Y-100725301D02*
G01*
X116534693Y-100726201D01*
X116540643Y-100727691D01*
X116546418Y-100729758D01*
X116551962Y-100732380D01*
X116557223Y-100735533D01*
X116562150Y-100739187D01*
X116566694Y-100743306D01*
X116570813Y-100747850D01*
X116574467Y-100752777D01*
X116577620Y-100758038D01*
X116580242Y-100763582D01*
X116582309Y-100769357D01*
X116583799Y-100775307D01*
X116584699Y-100781374D01*
X116585000Y-100787500D01*
X116585000Y-100912500D01*
X116584699Y-100918626D01*
X116583799Y-100924693D01*
X116582309Y-100930643D01*
X116580242Y-100936418D01*
X116577620Y-100941962D01*
X116574467Y-100947223D01*
X116570813Y-100952150D01*
X116566694Y-100956694D01*
X116562150Y-100960813D01*
X116557223Y-100964467D01*
X116551962Y-100967620D01*
X116546418Y-100970242D01*
X116540643Y-100972309D01*
X116534693Y-100973799D01*
X116528626Y-100974699D01*
X116522500Y-100975000D01*
X115822500Y-100975000D01*
X115816374Y-100974699D01*
X115810307Y-100973799D01*
X115804357Y-100972309D01*
X115798582Y-100970242D01*
X115793038Y-100967620D01*
X115787777Y-100964467D01*
X115782850Y-100960813D01*
X115778306Y-100956694D01*
X115774187Y-100952150D01*
X115770533Y-100947223D01*
X115767380Y-100941962D01*
X115764758Y-100936418D01*
X115762691Y-100930643D01*
X115761201Y-100924693D01*
X115760301Y-100918626D01*
X115760000Y-100912500D01*
X115760000Y-100787500D01*
X115760301Y-100781374D01*
X115761201Y-100775307D01*
X115762691Y-100769357D01*
X115764758Y-100763582D01*
X115767380Y-100758038D01*
X115770533Y-100752777D01*
X115774187Y-100747850D01*
X115778306Y-100743306D01*
X115782850Y-100739187D01*
X115787777Y-100735533D01*
X115793038Y-100732380D01*
X115798582Y-100729758D01*
X115804357Y-100727691D01*
X115810307Y-100726201D01*
X115816374Y-100725301D01*
X115822500Y-100725000D01*
X116522500Y-100725000D01*
X116528626Y-100725301D01*
G37*
G04 #@! TD.AperFunction*
G04 #@! TA.AperFunction,SMDPad,CuDef*
G36*
X116528626Y-101225301D02*
G01*
X116534693Y-101226201D01*
X116540643Y-101227691D01*
X116546418Y-101229758D01*
X116551962Y-101232380D01*
X116557223Y-101235533D01*
X116562150Y-101239187D01*
X116566694Y-101243306D01*
X116570813Y-101247850D01*
X116574467Y-101252777D01*
X116577620Y-101258038D01*
X116580242Y-101263582D01*
X116582309Y-101269357D01*
X116583799Y-101275307D01*
X116584699Y-101281374D01*
X116585000Y-101287500D01*
X116585000Y-101412500D01*
X116584699Y-101418626D01*
X116583799Y-101424693D01*
X116582309Y-101430643D01*
X116580242Y-101436418D01*
X116577620Y-101441962D01*
X116574467Y-101447223D01*
X116570813Y-101452150D01*
X116566694Y-101456694D01*
X116562150Y-101460813D01*
X116557223Y-101464467D01*
X116551962Y-101467620D01*
X116546418Y-101470242D01*
X116540643Y-101472309D01*
X116534693Y-101473799D01*
X116528626Y-101474699D01*
X116522500Y-101475000D01*
X115822500Y-101475000D01*
X115816374Y-101474699D01*
X115810307Y-101473799D01*
X115804357Y-101472309D01*
X115798582Y-101470242D01*
X115793038Y-101467620D01*
X115787777Y-101464467D01*
X115782850Y-101460813D01*
X115778306Y-101456694D01*
X115774187Y-101452150D01*
X115770533Y-101447223D01*
X115767380Y-101441962D01*
X115764758Y-101436418D01*
X115762691Y-101430643D01*
X115761201Y-101424693D01*
X115760301Y-101418626D01*
X115760000Y-101412500D01*
X115760000Y-101287500D01*
X115760301Y-101281374D01*
X115761201Y-101275307D01*
X115762691Y-101269357D01*
X115764758Y-101263582D01*
X115767380Y-101258038D01*
X115770533Y-101252777D01*
X115774187Y-101247850D01*
X115778306Y-101243306D01*
X115782850Y-101239187D01*
X115787777Y-101235533D01*
X115793038Y-101232380D01*
X115798582Y-101229758D01*
X115804357Y-101227691D01*
X115810307Y-101226201D01*
X115816374Y-101225301D01*
X115822500Y-101225000D01*
X116522500Y-101225000D01*
X116528626Y-101225301D01*
G37*
G04 #@! TD.AperFunction*
G04 #@! TA.AperFunction,SMDPad,CuDef*
G36*
X116528626Y-101725301D02*
G01*
X116534693Y-101726201D01*
X116540643Y-101727691D01*
X116546418Y-101729758D01*
X116551962Y-101732380D01*
X116557223Y-101735533D01*
X116562150Y-101739187D01*
X116566694Y-101743306D01*
X116570813Y-101747850D01*
X116574467Y-101752777D01*
X116577620Y-101758038D01*
X116580242Y-101763582D01*
X116582309Y-101769357D01*
X116583799Y-101775307D01*
X116584699Y-101781374D01*
X116585000Y-101787500D01*
X116585000Y-101912500D01*
X116584699Y-101918626D01*
X116583799Y-101924693D01*
X116582309Y-101930643D01*
X116580242Y-101936418D01*
X116577620Y-101941962D01*
X116574467Y-101947223D01*
X116570813Y-101952150D01*
X116566694Y-101956694D01*
X116562150Y-101960813D01*
X116557223Y-101964467D01*
X116551962Y-101967620D01*
X116546418Y-101970242D01*
X116540643Y-101972309D01*
X116534693Y-101973799D01*
X116528626Y-101974699D01*
X116522500Y-101975000D01*
X115822500Y-101975000D01*
X115816374Y-101974699D01*
X115810307Y-101973799D01*
X115804357Y-101972309D01*
X115798582Y-101970242D01*
X115793038Y-101967620D01*
X115787777Y-101964467D01*
X115782850Y-101960813D01*
X115778306Y-101956694D01*
X115774187Y-101952150D01*
X115770533Y-101947223D01*
X115767380Y-101941962D01*
X115764758Y-101936418D01*
X115762691Y-101930643D01*
X115761201Y-101924693D01*
X115760301Y-101918626D01*
X115760000Y-101912500D01*
X115760000Y-101787500D01*
X115760301Y-101781374D01*
X115761201Y-101775307D01*
X115762691Y-101769357D01*
X115764758Y-101763582D01*
X115767380Y-101758038D01*
X115770533Y-101752777D01*
X115774187Y-101747850D01*
X115778306Y-101743306D01*
X115782850Y-101739187D01*
X115787777Y-101735533D01*
X115793038Y-101732380D01*
X115798582Y-101729758D01*
X115804357Y-101727691D01*
X115810307Y-101726201D01*
X115816374Y-101725301D01*
X115822500Y-101725000D01*
X116522500Y-101725000D01*
X116528626Y-101725301D01*
G37*
G04 #@! TD.AperFunction*
G04 #@! TA.AperFunction,SMDPad,CuDef*
G36*
X116528626Y-102225301D02*
G01*
X116534693Y-102226201D01*
X116540643Y-102227691D01*
X116546418Y-102229758D01*
X116551962Y-102232380D01*
X116557223Y-102235533D01*
X116562150Y-102239187D01*
X116566694Y-102243306D01*
X116570813Y-102247850D01*
X116574467Y-102252777D01*
X116577620Y-102258038D01*
X116580242Y-102263582D01*
X116582309Y-102269357D01*
X116583799Y-102275307D01*
X116584699Y-102281374D01*
X116585000Y-102287500D01*
X116585000Y-102412500D01*
X116584699Y-102418626D01*
X116583799Y-102424693D01*
X116582309Y-102430643D01*
X116580242Y-102436418D01*
X116577620Y-102441962D01*
X116574467Y-102447223D01*
X116570813Y-102452150D01*
X116566694Y-102456694D01*
X116562150Y-102460813D01*
X116557223Y-102464467D01*
X116551962Y-102467620D01*
X116546418Y-102470242D01*
X116540643Y-102472309D01*
X116534693Y-102473799D01*
X116528626Y-102474699D01*
X116522500Y-102475000D01*
X115822500Y-102475000D01*
X115816374Y-102474699D01*
X115810307Y-102473799D01*
X115804357Y-102472309D01*
X115798582Y-102470242D01*
X115793038Y-102467620D01*
X115787777Y-102464467D01*
X115782850Y-102460813D01*
X115778306Y-102456694D01*
X115774187Y-102452150D01*
X115770533Y-102447223D01*
X115767380Y-102441962D01*
X115764758Y-102436418D01*
X115762691Y-102430643D01*
X115761201Y-102424693D01*
X115760301Y-102418626D01*
X115760000Y-102412500D01*
X115760000Y-102287500D01*
X115760301Y-102281374D01*
X115761201Y-102275307D01*
X115762691Y-102269357D01*
X115764758Y-102263582D01*
X115767380Y-102258038D01*
X115770533Y-102252777D01*
X115774187Y-102247850D01*
X115778306Y-102243306D01*
X115782850Y-102239187D01*
X115787777Y-102235533D01*
X115793038Y-102232380D01*
X115798582Y-102229758D01*
X115804357Y-102227691D01*
X115810307Y-102226201D01*
X115816374Y-102225301D01*
X115822500Y-102225000D01*
X116522500Y-102225000D01*
X116528626Y-102225301D01*
G37*
G04 #@! TD.AperFunction*
G04 #@! TA.AperFunction,SMDPad,CuDef*
G36*
X116528626Y-102725301D02*
G01*
X116534693Y-102726201D01*
X116540643Y-102727691D01*
X116546418Y-102729758D01*
X116551962Y-102732380D01*
X116557223Y-102735533D01*
X116562150Y-102739187D01*
X116566694Y-102743306D01*
X116570813Y-102747850D01*
X116574467Y-102752777D01*
X116577620Y-102758038D01*
X116580242Y-102763582D01*
X116582309Y-102769357D01*
X116583799Y-102775307D01*
X116584699Y-102781374D01*
X116585000Y-102787500D01*
X116585000Y-102912500D01*
X116584699Y-102918626D01*
X116583799Y-102924693D01*
X116582309Y-102930643D01*
X116580242Y-102936418D01*
X116577620Y-102941962D01*
X116574467Y-102947223D01*
X116570813Y-102952150D01*
X116566694Y-102956694D01*
X116562150Y-102960813D01*
X116557223Y-102964467D01*
X116551962Y-102967620D01*
X116546418Y-102970242D01*
X116540643Y-102972309D01*
X116534693Y-102973799D01*
X116528626Y-102974699D01*
X116522500Y-102975000D01*
X115822500Y-102975000D01*
X115816374Y-102974699D01*
X115810307Y-102973799D01*
X115804357Y-102972309D01*
X115798582Y-102970242D01*
X115793038Y-102967620D01*
X115787777Y-102964467D01*
X115782850Y-102960813D01*
X115778306Y-102956694D01*
X115774187Y-102952150D01*
X115770533Y-102947223D01*
X115767380Y-102941962D01*
X115764758Y-102936418D01*
X115762691Y-102930643D01*
X115761201Y-102924693D01*
X115760301Y-102918626D01*
X115760000Y-102912500D01*
X115760000Y-102787500D01*
X115760301Y-102781374D01*
X115761201Y-102775307D01*
X115762691Y-102769357D01*
X115764758Y-102763582D01*
X115767380Y-102758038D01*
X115770533Y-102752777D01*
X115774187Y-102747850D01*
X115778306Y-102743306D01*
X115782850Y-102739187D01*
X115787777Y-102735533D01*
X115793038Y-102732380D01*
X115798582Y-102729758D01*
X115804357Y-102727691D01*
X115810307Y-102726201D01*
X115816374Y-102725301D01*
X115822500Y-102725000D01*
X116522500Y-102725000D01*
X116528626Y-102725301D01*
G37*
G04 #@! TD.AperFunction*
G04 #@! TA.AperFunction,SMDPad,CuDef*
G36*
X116928626Y-103125301D02*
G01*
X116934693Y-103126201D01*
X116940643Y-103127691D01*
X116946418Y-103129758D01*
X116951962Y-103132380D01*
X116957223Y-103135533D01*
X116962150Y-103139187D01*
X116966694Y-103143306D01*
X116970813Y-103147850D01*
X116974467Y-103152777D01*
X116977620Y-103158038D01*
X116980242Y-103163582D01*
X116982309Y-103169357D01*
X116983799Y-103175307D01*
X116984699Y-103181374D01*
X116985000Y-103187500D01*
X116985000Y-103887500D01*
X116984699Y-103893626D01*
X116983799Y-103899693D01*
X116982309Y-103905643D01*
X116980242Y-103911418D01*
X116977620Y-103916962D01*
X116974467Y-103922223D01*
X116970813Y-103927150D01*
X116966694Y-103931694D01*
X116962150Y-103935813D01*
X116957223Y-103939467D01*
X116951962Y-103942620D01*
X116946418Y-103945242D01*
X116940643Y-103947309D01*
X116934693Y-103948799D01*
X116928626Y-103949699D01*
X116922500Y-103950000D01*
X116797500Y-103950000D01*
X116791374Y-103949699D01*
X116785307Y-103948799D01*
X116779357Y-103947309D01*
X116773582Y-103945242D01*
X116768038Y-103942620D01*
X116762777Y-103939467D01*
X116757850Y-103935813D01*
X116753306Y-103931694D01*
X116749187Y-103927150D01*
X116745533Y-103922223D01*
X116742380Y-103916962D01*
X116739758Y-103911418D01*
X116737691Y-103905643D01*
X116736201Y-103899693D01*
X116735301Y-103893626D01*
X116735000Y-103887500D01*
X116735000Y-103187500D01*
X116735301Y-103181374D01*
X116736201Y-103175307D01*
X116737691Y-103169357D01*
X116739758Y-103163582D01*
X116742380Y-103158038D01*
X116745533Y-103152777D01*
X116749187Y-103147850D01*
X116753306Y-103143306D01*
X116757850Y-103139187D01*
X116762777Y-103135533D01*
X116768038Y-103132380D01*
X116773582Y-103129758D01*
X116779357Y-103127691D01*
X116785307Y-103126201D01*
X116791374Y-103125301D01*
X116797500Y-103125000D01*
X116922500Y-103125000D01*
X116928626Y-103125301D01*
G37*
G04 #@! TD.AperFunction*
G04 #@! TA.AperFunction,SMDPad,CuDef*
G36*
X117428626Y-103125301D02*
G01*
X117434693Y-103126201D01*
X117440643Y-103127691D01*
X117446418Y-103129758D01*
X117451962Y-103132380D01*
X117457223Y-103135533D01*
X117462150Y-103139187D01*
X117466694Y-103143306D01*
X117470813Y-103147850D01*
X117474467Y-103152777D01*
X117477620Y-103158038D01*
X117480242Y-103163582D01*
X117482309Y-103169357D01*
X117483799Y-103175307D01*
X117484699Y-103181374D01*
X117485000Y-103187500D01*
X117485000Y-103887500D01*
X117484699Y-103893626D01*
X117483799Y-103899693D01*
X117482309Y-103905643D01*
X117480242Y-103911418D01*
X117477620Y-103916962D01*
X117474467Y-103922223D01*
X117470813Y-103927150D01*
X117466694Y-103931694D01*
X117462150Y-103935813D01*
X117457223Y-103939467D01*
X117451962Y-103942620D01*
X117446418Y-103945242D01*
X117440643Y-103947309D01*
X117434693Y-103948799D01*
X117428626Y-103949699D01*
X117422500Y-103950000D01*
X117297500Y-103950000D01*
X117291374Y-103949699D01*
X117285307Y-103948799D01*
X117279357Y-103947309D01*
X117273582Y-103945242D01*
X117268038Y-103942620D01*
X117262777Y-103939467D01*
X117257850Y-103935813D01*
X117253306Y-103931694D01*
X117249187Y-103927150D01*
X117245533Y-103922223D01*
X117242380Y-103916962D01*
X117239758Y-103911418D01*
X117237691Y-103905643D01*
X117236201Y-103899693D01*
X117235301Y-103893626D01*
X117235000Y-103887500D01*
X117235000Y-103187500D01*
X117235301Y-103181374D01*
X117236201Y-103175307D01*
X117237691Y-103169357D01*
X117239758Y-103163582D01*
X117242380Y-103158038D01*
X117245533Y-103152777D01*
X117249187Y-103147850D01*
X117253306Y-103143306D01*
X117257850Y-103139187D01*
X117262777Y-103135533D01*
X117268038Y-103132380D01*
X117273582Y-103129758D01*
X117279357Y-103127691D01*
X117285307Y-103126201D01*
X117291374Y-103125301D01*
X117297500Y-103125000D01*
X117422500Y-103125000D01*
X117428626Y-103125301D01*
G37*
G04 #@! TD.AperFunction*
G04 #@! TA.AperFunction,SMDPad,CuDef*
G36*
X117928626Y-103125301D02*
G01*
X117934693Y-103126201D01*
X117940643Y-103127691D01*
X117946418Y-103129758D01*
X117951962Y-103132380D01*
X117957223Y-103135533D01*
X117962150Y-103139187D01*
X117966694Y-103143306D01*
X117970813Y-103147850D01*
X117974467Y-103152777D01*
X117977620Y-103158038D01*
X117980242Y-103163582D01*
X117982309Y-103169357D01*
X117983799Y-103175307D01*
X117984699Y-103181374D01*
X117985000Y-103187500D01*
X117985000Y-103887500D01*
X117984699Y-103893626D01*
X117983799Y-103899693D01*
X117982309Y-103905643D01*
X117980242Y-103911418D01*
X117977620Y-103916962D01*
X117974467Y-103922223D01*
X117970813Y-103927150D01*
X117966694Y-103931694D01*
X117962150Y-103935813D01*
X117957223Y-103939467D01*
X117951962Y-103942620D01*
X117946418Y-103945242D01*
X117940643Y-103947309D01*
X117934693Y-103948799D01*
X117928626Y-103949699D01*
X117922500Y-103950000D01*
X117797500Y-103950000D01*
X117791374Y-103949699D01*
X117785307Y-103948799D01*
X117779357Y-103947309D01*
X117773582Y-103945242D01*
X117768038Y-103942620D01*
X117762777Y-103939467D01*
X117757850Y-103935813D01*
X117753306Y-103931694D01*
X117749187Y-103927150D01*
X117745533Y-103922223D01*
X117742380Y-103916962D01*
X117739758Y-103911418D01*
X117737691Y-103905643D01*
X117736201Y-103899693D01*
X117735301Y-103893626D01*
X117735000Y-103887500D01*
X117735000Y-103187500D01*
X117735301Y-103181374D01*
X117736201Y-103175307D01*
X117737691Y-103169357D01*
X117739758Y-103163582D01*
X117742380Y-103158038D01*
X117745533Y-103152777D01*
X117749187Y-103147850D01*
X117753306Y-103143306D01*
X117757850Y-103139187D01*
X117762777Y-103135533D01*
X117768038Y-103132380D01*
X117773582Y-103129758D01*
X117779357Y-103127691D01*
X117785307Y-103126201D01*
X117791374Y-103125301D01*
X117797500Y-103125000D01*
X117922500Y-103125000D01*
X117928626Y-103125301D01*
G37*
G04 #@! TD.AperFunction*
G04 #@! TA.AperFunction,SMDPad,CuDef*
G36*
X118428626Y-103125301D02*
G01*
X118434693Y-103126201D01*
X118440643Y-103127691D01*
X118446418Y-103129758D01*
X118451962Y-103132380D01*
X118457223Y-103135533D01*
X118462150Y-103139187D01*
X118466694Y-103143306D01*
X118470813Y-103147850D01*
X118474467Y-103152777D01*
X118477620Y-103158038D01*
X118480242Y-103163582D01*
X118482309Y-103169357D01*
X118483799Y-103175307D01*
X118484699Y-103181374D01*
X118485000Y-103187500D01*
X118485000Y-103887500D01*
X118484699Y-103893626D01*
X118483799Y-103899693D01*
X118482309Y-103905643D01*
X118480242Y-103911418D01*
X118477620Y-103916962D01*
X118474467Y-103922223D01*
X118470813Y-103927150D01*
X118466694Y-103931694D01*
X118462150Y-103935813D01*
X118457223Y-103939467D01*
X118451962Y-103942620D01*
X118446418Y-103945242D01*
X118440643Y-103947309D01*
X118434693Y-103948799D01*
X118428626Y-103949699D01*
X118422500Y-103950000D01*
X118297500Y-103950000D01*
X118291374Y-103949699D01*
X118285307Y-103948799D01*
X118279357Y-103947309D01*
X118273582Y-103945242D01*
X118268038Y-103942620D01*
X118262777Y-103939467D01*
X118257850Y-103935813D01*
X118253306Y-103931694D01*
X118249187Y-103927150D01*
X118245533Y-103922223D01*
X118242380Y-103916962D01*
X118239758Y-103911418D01*
X118237691Y-103905643D01*
X118236201Y-103899693D01*
X118235301Y-103893626D01*
X118235000Y-103887500D01*
X118235000Y-103187500D01*
X118235301Y-103181374D01*
X118236201Y-103175307D01*
X118237691Y-103169357D01*
X118239758Y-103163582D01*
X118242380Y-103158038D01*
X118245533Y-103152777D01*
X118249187Y-103147850D01*
X118253306Y-103143306D01*
X118257850Y-103139187D01*
X118262777Y-103135533D01*
X118268038Y-103132380D01*
X118273582Y-103129758D01*
X118279357Y-103127691D01*
X118285307Y-103126201D01*
X118291374Y-103125301D01*
X118297500Y-103125000D01*
X118422500Y-103125000D01*
X118428626Y-103125301D01*
G37*
G04 #@! TD.AperFunction*
G04 #@! TA.AperFunction,SMDPad,CuDef*
G36*
X118928626Y-103125301D02*
G01*
X118934693Y-103126201D01*
X118940643Y-103127691D01*
X118946418Y-103129758D01*
X118951962Y-103132380D01*
X118957223Y-103135533D01*
X118962150Y-103139187D01*
X118966694Y-103143306D01*
X118970813Y-103147850D01*
X118974467Y-103152777D01*
X118977620Y-103158038D01*
X118980242Y-103163582D01*
X118982309Y-103169357D01*
X118983799Y-103175307D01*
X118984699Y-103181374D01*
X118985000Y-103187500D01*
X118985000Y-103887500D01*
X118984699Y-103893626D01*
X118983799Y-103899693D01*
X118982309Y-103905643D01*
X118980242Y-103911418D01*
X118977620Y-103916962D01*
X118974467Y-103922223D01*
X118970813Y-103927150D01*
X118966694Y-103931694D01*
X118962150Y-103935813D01*
X118957223Y-103939467D01*
X118951962Y-103942620D01*
X118946418Y-103945242D01*
X118940643Y-103947309D01*
X118934693Y-103948799D01*
X118928626Y-103949699D01*
X118922500Y-103950000D01*
X118797500Y-103950000D01*
X118791374Y-103949699D01*
X118785307Y-103948799D01*
X118779357Y-103947309D01*
X118773582Y-103945242D01*
X118768038Y-103942620D01*
X118762777Y-103939467D01*
X118757850Y-103935813D01*
X118753306Y-103931694D01*
X118749187Y-103927150D01*
X118745533Y-103922223D01*
X118742380Y-103916962D01*
X118739758Y-103911418D01*
X118737691Y-103905643D01*
X118736201Y-103899693D01*
X118735301Y-103893626D01*
X118735000Y-103887500D01*
X118735000Y-103187500D01*
X118735301Y-103181374D01*
X118736201Y-103175307D01*
X118737691Y-103169357D01*
X118739758Y-103163582D01*
X118742380Y-103158038D01*
X118745533Y-103152777D01*
X118749187Y-103147850D01*
X118753306Y-103143306D01*
X118757850Y-103139187D01*
X118762777Y-103135533D01*
X118768038Y-103132380D01*
X118773582Y-103129758D01*
X118779357Y-103127691D01*
X118785307Y-103126201D01*
X118791374Y-103125301D01*
X118797500Y-103125000D01*
X118922500Y-103125000D01*
X118928626Y-103125301D01*
G37*
G04 #@! TD.AperFunction*
G04 #@! TA.AperFunction,SMDPad,CuDef*
G36*
X119428626Y-103125301D02*
G01*
X119434693Y-103126201D01*
X119440643Y-103127691D01*
X119446418Y-103129758D01*
X119451962Y-103132380D01*
X119457223Y-103135533D01*
X119462150Y-103139187D01*
X119466694Y-103143306D01*
X119470813Y-103147850D01*
X119474467Y-103152777D01*
X119477620Y-103158038D01*
X119480242Y-103163582D01*
X119482309Y-103169357D01*
X119483799Y-103175307D01*
X119484699Y-103181374D01*
X119485000Y-103187500D01*
X119485000Y-103887500D01*
X119484699Y-103893626D01*
X119483799Y-103899693D01*
X119482309Y-103905643D01*
X119480242Y-103911418D01*
X119477620Y-103916962D01*
X119474467Y-103922223D01*
X119470813Y-103927150D01*
X119466694Y-103931694D01*
X119462150Y-103935813D01*
X119457223Y-103939467D01*
X119451962Y-103942620D01*
X119446418Y-103945242D01*
X119440643Y-103947309D01*
X119434693Y-103948799D01*
X119428626Y-103949699D01*
X119422500Y-103950000D01*
X119297500Y-103950000D01*
X119291374Y-103949699D01*
X119285307Y-103948799D01*
X119279357Y-103947309D01*
X119273582Y-103945242D01*
X119268038Y-103942620D01*
X119262777Y-103939467D01*
X119257850Y-103935813D01*
X119253306Y-103931694D01*
X119249187Y-103927150D01*
X119245533Y-103922223D01*
X119242380Y-103916962D01*
X119239758Y-103911418D01*
X119237691Y-103905643D01*
X119236201Y-103899693D01*
X119235301Y-103893626D01*
X119235000Y-103887500D01*
X119235000Y-103187500D01*
X119235301Y-103181374D01*
X119236201Y-103175307D01*
X119237691Y-103169357D01*
X119239758Y-103163582D01*
X119242380Y-103158038D01*
X119245533Y-103152777D01*
X119249187Y-103147850D01*
X119253306Y-103143306D01*
X119257850Y-103139187D01*
X119262777Y-103135533D01*
X119268038Y-103132380D01*
X119273582Y-103129758D01*
X119279357Y-103127691D01*
X119285307Y-103126201D01*
X119291374Y-103125301D01*
X119297500Y-103125000D01*
X119422500Y-103125000D01*
X119428626Y-103125301D01*
G37*
G04 #@! TD.AperFunction*
G04 #@! TA.AperFunction,SMDPad,CuDef*
G36*
X120403626Y-102725301D02*
G01*
X120409693Y-102726201D01*
X120415643Y-102727691D01*
X120421418Y-102729758D01*
X120426962Y-102732380D01*
X120432223Y-102735533D01*
X120437150Y-102739187D01*
X120441694Y-102743306D01*
X120445813Y-102747850D01*
X120449467Y-102752777D01*
X120452620Y-102758038D01*
X120455242Y-102763582D01*
X120457309Y-102769357D01*
X120458799Y-102775307D01*
X120459699Y-102781374D01*
X120460000Y-102787500D01*
X120460000Y-102912500D01*
X120459699Y-102918626D01*
X120458799Y-102924693D01*
X120457309Y-102930643D01*
X120455242Y-102936418D01*
X120452620Y-102941962D01*
X120449467Y-102947223D01*
X120445813Y-102952150D01*
X120441694Y-102956694D01*
X120437150Y-102960813D01*
X120432223Y-102964467D01*
X120426962Y-102967620D01*
X120421418Y-102970242D01*
X120415643Y-102972309D01*
X120409693Y-102973799D01*
X120403626Y-102974699D01*
X120397500Y-102975000D01*
X119697500Y-102975000D01*
X119691374Y-102974699D01*
X119685307Y-102973799D01*
X119679357Y-102972309D01*
X119673582Y-102970242D01*
X119668038Y-102967620D01*
X119662777Y-102964467D01*
X119657850Y-102960813D01*
X119653306Y-102956694D01*
X119649187Y-102952150D01*
X119645533Y-102947223D01*
X119642380Y-102941962D01*
X119639758Y-102936418D01*
X119637691Y-102930643D01*
X119636201Y-102924693D01*
X119635301Y-102918626D01*
X119635000Y-102912500D01*
X119635000Y-102787500D01*
X119635301Y-102781374D01*
X119636201Y-102775307D01*
X119637691Y-102769357D01*
X119639758Y-102763582D01*
X119642380Y-102758038D01*
X119645533Y-102752777D01*
X119649187Y-102747850D01*
X119653306Y-102743306D01*
X119657850Y-102739187D01*
X119662777Y-102735533D01*
X119668038Y-102732380D01*
X119673582Y-102729758D01*
X119679357Y-102727691D01*
X119685307Y-102726201D01*
X119691374Y-102725301D01*
X119697500Y-102725000D01*
X120397500Y-102725000D01*
X120403626Y-102725301D01*
G37*
G04 #@! TD.AperFunction*
G04 #@! TA.AperFunction,SMDPad,CuDef*
G36*
X120403626Y-102225301D02*
G01*
X120409693Y-102226201D01*
X120415643Y-102227691D01*
X120421418Y-102229758D01*
X120426962Y-102232380D01*
X120432223Y-102235533D01*
X120437150Y-102239187D01*
X120441694Y-102243306D01*
X120445813Y-102247850D01*
X120449467Y-102252777D01*
X120452620Y-102258038D01*
X120455242Y-102263582D01*
X120457309Y-102269357D01*
X120458799Y-102275307D01*
X120459699Y-102281374D01*
X120460000Y-102287500D01*
X120460000Y-102412500D01*
X120459699Y-102418626D01*
X120458799Y-102424693D01*
X120457309Y-102430643D01*
X120455242Y-102436418D01*
X120452620Y-102441962D01*
X120449467Y-102447223D01*
X120445813Y-102452150D01*
X120441694Y-102456694D01*
X120437150Y-102460813D01*
X120432223Y-102464467D01*
X120426962Y-102467620D01*
X120421418Y-102470242D01*
X120415643Y-102472309D01*
X120409693Y-102473799D01*
X120403626Y-102474699D01*
X120397500Y-102475000D01*
X119697500Y-102475000D01*
X119691374Y-102474699D01*
X119685307Y-102473799D01*
X119679357Y-102472309D01*
X119673582Y-102470242D01*
X119668038Y-102467620D01*
X119662777Y-102464467D01*
X119657850Y-102460813D01*
X119653306Y-102456694D01*
X119649187Y-102452150D01*
X119645533Y-102447223D01*
X119642380Y-102441962D01*
X119639758Y-102436418D01*
X119637691Y-102430643D01*
X119636201Y-102424693D01*
X119635301Y-102418626D01*
X119635000Y-102412500D01*
X119635000Y-102287500D01*
X119635301Y-102281374D01*
X119636201Y-102275307D01*
X119637691Y-102269357D01*
X119639758Y-102263582D01*
X119642380Y-102258038D01*
X119645533Y-102252777D01*
X119649187Y-102247850D01*
X119653306Y-102243306D01*
X119657850Y-102239187D01*
X119662777Y-102235533D01*
X119668038Y-102232380D01*
X119673582Y-102229758D01*
X119679357Y-102227691D01*
X119685307Y-102226201D01*
X119691374Y-102225301D01*
X119697500Y-102225000D01*
X120397500Y-102225000D01*
X120403626Y-102225301D01*
G37*
G04 #@! TD.AperFunction*
G04 #@! TA.AperFunction,SMDPad,CuDef*
G36*
X120403626Y-101725301D02*
G01*
X120409693Y-101726201D01*
X120415643Y-101727691D01*
X120421418Y-101729758D01*
X120426962Y-101732380D01*
X120432223Y-101735533D01*
X120437150Y-101739187D01*
X120441694Y-101743306D01*
X120445813Y-101747850D01*
X120449467Y-101752777D01*
X120452620Y-101758038D01*
X120455242Y-101763582D01*
X120457309Y-101769357D01*
X120458799Y-101775307D01*
X120459699Y-101781374D01*
X120460000Y-101787500D01*
X120460000Y-101912500D01*
X120459699Y-101918626D01*
X120458799Y-101924693D01*
X120457309Y-101930643D01*
X120455242Y-101936418D01*
X120452620Y-101941962D01*
X120449467Y-101947223D01*
X120445813Y-101952150D01*
X120441694Y-101956694D01*
X120437150Y-101960813D01*
X120432223Y-101964467D01*
X120426962Y-101967620D01*
X120421418Y-101970242D01*
X120415643Y-101972309D01*
X120409693Y-101973799D01*
X120403626Y-101974699D01*
X120397500Y-101975000D01*
X119697500Y-101975000D01*
X119691374Y-101974699D01*
X119685307Y-101973799D01*
X119679357Y-101972309D01*
X119673582Y-101970242D01*
X119668038Y-101967620D01*
X119662777Y-101964467D01*
X119657850Y-101960813D01*
X119653306Y-101956694D01*
X119649187Y-101952150D01*
X119645533Y-101947223D01*
X119642380Y-101941962D01*
X119639758Y-101936418D01*
X119637691Y-101930643D01*
X119636201Y-101924693D01*
X119635301Y-101918626D01*
X119635000Y-101912500D01*
X119635000Y-101787500D01*
X119635301Y-101781374D01*
X119636201Y-101775307D01*
X119637691Y-101769357D01*
X119639758Y-101763582D01*
X119642380Y-101758038D01*
X119645533Y-101752777D01*
X119649187Y-101747850D01*
X119653306Y-101743306D01*
X119657850Y-101739187D01*
X119662777Y-101735533D01*
X119668038Y-101732380D01*
X119673582Y-101729758D01*
X119679357Y-101727691D01*
X119685307Y-101726201D01*
X119691374Y-101725301D01*
X119697500Y-101725000D01*
X120397500Y-101725000D01*
X120403626Y-101725301D01*
G37*
G04 #@! TD.AperFunction*
G04 #@! TA.AperFunction,SMDPad,CuDef*
G36*
X120403626Y-101225301D02*
G01*
X120409693Y-101226201D01*
X120415643Y-101227691D01*
X120421418Y-101229758D01*
X120426962Y-101232380D01*
X120432223Y-101235533D01*
X120437150Y-101239187D01*
X120441694Y-101243306D01*
X120445813Y-101247850D01*
X120449467Y-101252777D01*
X120452620Y-101258038D01*
X120455242Y-101263582D01*
X120457309Y-101269357D01*
X120458799Y-101275307D01*
X120459699Y-101281374D01*
X120460000Y-101287500D01*
X120460000Y-101412500D01*
X120459699Y-101418626D01*
X120458799Y-101424693D01*
X120457309Y-101430643D01*
X120455242Y-101436418D01*
X120452620Y-101441962D01*
X120449467Y-101447223D01*
X120445813Y-101452150D01*
X120441694Y-101456694D01*
X120437150Y-101460813D01*
X120432223Y-101464467D01*
X120426962Y-101467620D01*
X120421418Y-101470242D01*
X120415643Y-101472309D01*
X120409693Y-101473799D01*
X120403626Y-101474699D01*
X120397500Y-101475000D01*
X119697500Y-101475000D01*
X119691374Y-101474699D01*
X119685307Y-101473799D01*
X119679357Y-101472309D01*
X119673582Y-101470242D01*
X119668038Y-101467620D01*
X119662777Y-101464467D01*
X119657850Y-101460813D01*
X119653306Y-101456694D01*
X119649187Y-101452150D01*
X119645533Y-101447223D01*
X119642380Y-101441962D01*
X119639758Y-101436418D01*
X119637691Y-101430643D01*
X119636201Y-101424693D01*
X119635301Y-101418626D01*
X119635000Y-101412500D01*
X119635000Y-101287500D01*
X119635301Y-101281374D01*
X119636201Y-101275307D01*
X119637691Y-101269357D01*
X119639758Y-101263582D01*
X119642380Y-101258038D01*
X119645533Y-101252777D01*
X119649187Y-101247850D01*
X119653306Y-101243306D01*
X119657850Y-101239187D01*
X119662777Y-101235533D01*
X119668038Y-101232380D01*
X119673582Y-101229758D01*
X119679357Y-101227691D01*
X119685307Y-101226201D01*
X119691374Y-101225301D01*
X119697500Y-101225000D01*
X120397500Y-101225000D01*
X120403626Y-101225301D01*
G37*
G04 #@! TD.AperFunction*
G04 #@! TA.AperFunction,SMDPad,CuDef*
G36*
X120403626Y-100725301D02*
G01*
X120409693Y-100726201D01*
X120415643Y-100727691D01*
X120421418Y-100729758D01*
X120426962Y-100732380D01*
X120432223Y-100735533D01*
X120437150Y-100739187D01*
X120441694Y-100743306D01*
X120445813Y-100747850D01*
X120449467Y-100752777D01*
X120452620Y-100758038D01*
X120455242Y-100763582D01*
X120457309Y-100769357D01*
X120458799Y-100775307D01*
X120459699Y-100781374D01*
X120460000Y-100787500D01*
X120460000Y-100912500D01*
X120459699Y-100918626D01*
X120458799Y-100924693D01*
X120457309Y-100930643D01*
X120455242Y-100936418D01*
X120452620Y-100941962D01*
X120449467Y-100947223D01*
X120445813Y-100952150D01*
X120441694Y-100956694D01*
X120437150Y-100960813D01*
X120432223Y-100964467D01*
X120426962Y-100967620D01*
X120421418Y-100970242D01*
X120415643Y-100972309D01*
X120409693Y-100973799D01*
X120403626Y-100974699D01*
X120397500Y-100975000D01*
X119697500Y-100975000D01*
X119691374Y-100974699D01*
X119685307Y-100973799D01*
X119679357Y-100972309D01*
X119673582Y-100970242D01*
X119668038Y-100967620D01*
X119662777Y-100964467D01*
X119657850Y-100960813D01*
X119653306Y-100956694D01*
X119649187Y-100952150D01*
X119645533Y-100947223D01*
X119642380Y-100941962D01*
X119639758Y-100936418D01*
X119637691Y-100930643D01*
X119636201Y-100924693D01*
X119635301Y-100918626D01*
X119635000Y-100912500D01*
X119635000Y-100787500D01*
X119635301Y-100781374D01*
X119636201Y-100775307D01*
X119637691Y-100769357D01*
X119639758Y-100763582D01*
X119642380Y-100758038D01*
X119645533Y-100752777D01*
X119649187Y-100747850D01*
X119653306Y-100743306D01*
X119657850Y-100739187D01*
X119662777Y-100735533D01*
X119668038Y-100732380D01*
X119673582Y-100729758D01*
X119679357Y-100727691D01*
X119685307Y-100726201D01*
X119691374Y-100725301D01*
X119697500Y-100725000D01*
X120397500Y-100725000D01*
X120403626Y-100725301D01*
G37*
G04 #@! TD.AperFunction*
G04 #@! TA.AperFunction,SMDPad,CuDef*
G36*
X120403626Y-100225301D02*
G01*
X120409693Y-100226201D01*
X120415643Y-100227691D01*
X120421418Y-100229758D01*
X120426962Y-100232380D01*
X120432223Y-100235533D01*
X120437150Y-100239187D01*
X120441694Y-100243306D01*
X120445813Y-100247850D01*
X120449467Y-100252777D01*
X120452620Y-100258038D01*
X120455242Y-100263582D01*
X120457309Y-100269357D01*
X120458799Y-100275307D01*
X120459699Y-100281374D01*
X120460000Y-100287500D01*
X120460000Y-100412500D01*
X120459699Y-100418626D01*
X120458799Y-100424693D01*
X120457309Y-100430643D01*
X120455242Y-100436418D01*
X120452620Y-100441962D01*
X120449467Y-100447223D01*
X120445813Y-100452150D01*
X120441694Y-100456694D01*
X120437150Y-100460813D01*
X120432223Y-100464467D01*
X120426962Y-100467620D01*
X120421418Y-100470242D01*
X120415643Y-100472309D01*
X120409693Y-100473799D01*
X120403626Y-100474699D01*
X120397500Y-100475000D01*
X119697500Y-100475000D01*
X119691374Y-100474699D01*
X119685307Y-100473799D01*
X119679357Y-100472309D01*
X119673582Y-100470242D01*
X119668038Y-100467620D01*
X119662777Y-100464467D01*
X119657850Y-100460813D01*
X119653306Y-100456694D01*
X119649187Y-100452150D01*
X119645533Y-100447223D01*
X119642380Y-100441962D01*
X119639758Y-100436418D01*
X119637691Y-100430643D01*
X119636201Y-100424693D01*
X119635301Y-100418626D01*
X119635000Y-100412500D01*
X119635000Y-100287500D01*
X119635301Y-100281374D01*
X119636201Y-100275307D01*
X119637691Y-100269357D01*
X119639758Y-100263582D01*
X119642380Y-100258038D01*
X119645533Y-100252777D01*
X119649187Y-100247850D01*
X119653306Y-100243306D01*
X119657850Y-100239187D01*
X119662777Y-100235533D01*
X119668038Y-100232380D01*
X119673582Y-100229758D01*
X119679357Y-100227691D01*
X119685307Y-100226201D01*
X119691374Y-100225301D01*
X119697500Y-100225000D01*
X120397500Y-100225000D01*
X120403626Y-100225301D01*
G37*
G04 #@! TD.AperFunction*
G04 #@! TA.AperFunction,SMDPad,CuDef*
G36*
X119428626Y-99250301D02*
G01*
X119434693Y-99251201D01*
X119440643Y-99252691D01*
X119446418Y-99254758D01*
X119451962Y-99257380D01*
X119457223Y-99260533D01*
X119462150Y-99264187D01*
X119466694Y-99268306D01*
X119470813Y-99272850D01*
X119474467Y-99277777D01*
X119477620Y-99283038D01*
X119480242Y-99288582D01*
X119482309Y-99294357D01*
X119483799Y-99300307D01*
X119484699Y-99306374D01*
X119485000Y-99312500D01*
X119485000Y-100012500D01*
X119484699Y-100018626D01*
X119483799Y-100024693D01*
X119482309Y-100030643D01*
X119480242Y-100036418D01*
X119477620Y-100041962D01*
X119474467Y-100047223D01*
X119470813Y-100052150D01*
X119466694Y-100056694D01*
X119462150Y-100060813D01*
X119457223Y-100064467D01*
X119451962Y-100067620D01*
X119446418Y-100070242D01*
X119440643Y-100072309D01*
X119434693Y-100073799D01*
X119428626Y-100074699D01*
X119422500Y-100075000D01*
X119297500Y-100075000D01*
X119291374Y-100074699D01*
X119285307Y-100073799D01*
X119279357Y-100072309D01*
X119273582Y-100070242D01*
X119268038Y-100067620D01*
X119262777Y-100064467D01*
X119257850Y-100060813D01*
X119253306Y-100056694D01*
X119249187Y-100052150D01*
X119245533Y-100047223D01*
X119242380Y-100041962D01*
X119239758Y-100036418D01*
X119237691Y-100030643D01*
X119236201Y-100024693D01*
X119235301Y-100018626D01*
X119235000Y-100012500D01*
X119235000Y-99312500D01*
X119235301Y-99306374D01*
X119236201Y-99300307D01*
X119237691Y-99294357D01*
X119239758Y-99288582D01*
X119242380Y-99283038D01*
X119245533Y-99277777D01*
X119249187Y-99272850D01*
X119253306Y-99268306D01*
X119257850Y-99264187D01*
X119262777Y-99260533D01*
X119268038Y-99257380D01*
X119273582Y-99254758D01*
X119279357Y-99252691D01*
X119285307Y-99251201D01*
X119291374Y-99250301D01*
X119297500Y-99250000D01*
X119422500Y-99250000D01*
X119428626Y-99250301D01*
G37*
G04 #@! TD.AperFunction*
G04 #@! TA.AperFunction,SMDPad,CuDef*
G36*
X118928626Y-99250301D02*
G01*
X118934693Y-99251201D01*
X118940643Y-99252691D01*
X118946418Y-99254758D01*
X118951962Y-99257380D01*
X118957223Y-99260533D01*
X118962150Y-99264187D01*
X118966694Y-99268306D01*
X118970813Y-99272850D01*
X118974467Y-99277777D01*
X118977620Y-99283038D01*
X118980242Y-99288582D01*
X118982309Y-99294357D01*
X118983799Y-99300307D01*
X118984699Y-99306374D01*
X118985000Y-99312500D01*
X118985000Y-100012500D01*
X118984699Y-100018626D01*
X118983799Y-100024693D01*
X118982309Y-100030643D01*
X118980242Y-100036418D01*
X118977620Y-100041962D01*
X118974467Y-100047223D01*
X118970813Y-100052150D01*
X118966694Y-100056694D01*
X118962150Y-100060813D01*
X118957223Y-100064467D01*
X118951962Y-100067620D01*
X118946418Y-100070242D01*
X118940643Y-100072309D01*
X118934693Y-100073799D01*
X118928626Y-100074699D01*
X118922500Y-100075000D01*
X118797500Y-100075000D01*
X118791374Y-100074699D01*
X118785307Y-100073799D01*
X118779357Y-100072309D01*
X118773582Y-100070242D01*
X118768038Y-100067620D01*
X118762777Y-100064467D01*
X118757850Y-100060813D01*
X118753306Y-100056694D01*
X118749187Y-100052150D01*
X118745533Y-100047223D01*
X118742380Y-100041962D01*
X118739758Y-100036418D01*
X118737691Y-100030643D01*
X118736201Y-100024693D01*
X118735301Y-100018626D01*
X118735000Y-100012500D01*
X118735000Y-99312500D01*
X118735301Y-99306374D01*
X118736201Y-99300307D01*
X118737691Y-99294357D01*
X118739758Y-99288582D01*
X118742380Y-99283038D01*
X118745533Y-99277777D01*
X118749187Y-99272850D01*
X118753306Y-99268306D01*
X118757850Y-99264187D01*
X118762777Y-99260533D01*
X118768038Y-99257380D01*
X118773582Y-99254758D01*
X118779357Y-99252691D01*
X118785307Y-99251201D01*
X118791374Y-99250301D01*
X118797500Y-99250000D01*
X118922500Y-99250000D01*
X118928626Y-99250301D01*
G37*
G04 #@! TD.AperFunction*
G04 #@! TA.AperFunction,SMDPad,CuDef*
G36*
X118428626Y-99250301D02*
G01*
X118434693Y-99251201D01*
X118440643Y-99252691D01*
X118446418Y-99254758D01*
X118451962Y-99257380D01*
X118457223Y-99260533D01*
X118462150Y-99264187D01*
X118466694Y-99268306D01*
X118470813Y-99272850D01*
X118474467Y-99277777D01*
X118477620Y-99283038D01*
X118480242Y-99288582D01*
X118482309Y-99294357D01*
X118483799Y-99300307D01*
X118484699Y-99306374D01*
X118485000Y-99312500D01*
X118485000Y-100012500D01*
X118484699Y-100018626D01*
X118483799Y-100024693D01*
X118482309Y-100030643D01*
X118480242Y-100036418D01*
X118477620Y-100041962D01*
X118474467Y-100047223D01*
X118470813Y-100052150D01*
X118466694Y-100056694D01*
X118462150Y-100060813D01*
X118457223Y-100064467D01*
X118451962Y-100067620D01*
X118446418Y-100070242D01*
X118440643Y-100072309D01*
X118434693Y-100073799D01*
X118428626Y-100074699D01*
X118422500Y-100075000D01*
X118297500Y-100075000D01*
X118291374Y-100074699D01*
X118285307Y-100073799D01*
X118279357Y-100072309D01*
X118273582Y-100070242D01*
X118268038Y-100067620D01*
X118262777Y-100064467D01*
X118257850Y-100060813D01*
X118253306Y-100056694D01*
X118249187Y-100052150D01*
X118245533Y-100047223D01*
X118242380Y-100041962D01*
X118239758Y-100036418D01*
X118237691Y-100030643D01*
X118236201Y-100024693D01*
X118235301Y-100018626D01*
X118235000Y-100012500D01*
X118235000Y-99312500D01*
X118235301Y-99306374D01*
X118236201Y-99300307D01*
X118237691Y-99294357D01*
X118239758Y-99288582D01*
X118242380Y-99283038D01*
X118245533Y-99277777D01*
X118249187Y-99272850D01*
X118253306Y-99268306D01*
X118257850Y-99264187D01*
X118262777Y-99260533D01*
X118268038Y-99257380D01*
X118273582Y-99254758D01*
X118279357Y-99252691D01*
X118285307Y-99251201D01*
X118291374Y-99250301D01*
X118297500Y-99250000D01*
X118422500Y-99250000D01*
X118428626Y-99250301D01*
G37*
G04 #@! TD.AperFunction*
G04 #@! TA.AperFunction,SMDPad,CuDef*
G36*
X117928626Y-99250301D02*
G01*
X117934693Y-99251201D01*
X117940643Y-99252691D01*
X117946418Y-99254758D01*
X117951962Y-99257380D01*
X117957223Y-99260533D01*
X117962150Y-99264187D01*
X117966694Y-99268306D01*
X117970813Y-99272850D01*
X117974467Y-99277777D01*
X117977620Y-99283038D01*
X117980242Y-99288582D01*
X117982309Y-99294357D01*
X117983799Y-99300307D01*
X117984699Y-99306374D01*
X117985000Y-99312500D01*
X117985000Y-100012500D01*
X117984699Y-100018626D01*
X117983799Y-100024693D01*
X117982309Y-100030643D01*
X117980242Y-100036418D01*
X117977620Y-100041962D01*
X117974467Y-100047223D01*
X117970813Y-100052150D01*
X117966694Y-100056694D01*
X117962150Y-100060813D01*
X117957223Y-100064467D01*
X117951962Y-100067620D01*
X117946418Y-100070242D01*
X117940643Y-100072309D01*
X117934693Y-100073799D01*
X117928626Y-100074699D01*
X117922500Y-100075000D01*
X117797500Y-100075000D01*
X117791374Y-100074699D01*
X117785307Y-100073799D01*
X117779357Y-100072309D01*
X117773582Y-100070242D01*
X117768038Y-100067620D01*
X117762777Y-100064467D01*
X117757850Y-100060813D01*
X117753306Y-100056694D01*
X117749187Y-100052150D01*
X117745533Y-100047223D01*
X117742380Y-100041962D01*
X117739758Y-100036418D01*
X117737691Y-100030643D01*
X117736201Y-100024693D01*
X117735301Y-100018626D01*
X117735000Y-100012500D01*
X117735000Y-99312500D01*
X117735301Y-99306374D01*
X117736201Y-99300307D01*
X117737691Y-99294357D01*
X117739758Y-99288582D01*
X117742380Y-99283038D01*
X117745533Y-99277777D01*
X117749187Y-99272850D01*
X117753306Y-99268306D01*
X117757850Y-99264187D01*
X117762777Y-99260533D01*
X117768038Y-99257380D01*
X117773582Y-99254758D01*
X117779357Y-99252691D01*
X117785307Y-99251201D01*
X117791374Y-99250301D01*
X117797500Y-99250000D01*
X117922500Y-99250000D01*
X117928626Y-99250301D01*
G37*
G04 #@! TD.AperFunction*
G04 #@! TA.AperFunction,SMDPad,CuDef*
G36*
X117428626Y-99250301D02*
G01*
X117434693Y-99251201D01*
X117440643Y-99252691D01*
X117446418Y-99254758D01*
X117451962Y-99257380D01*
X117457223Y-99260533D01*
X117462150Y-99264187D01*
X117466694Y-99268306D01*
X117470813Y-99272850D01*
X117474467Y-99277777D01*
X117477620Y-99283038D01*
X117480242Y-99288582D01*
X117482309Y-99294357D01*
X117483799Y-99300307D01*
X117484699Y-99306374D01*
X117485000Y-99312500D01*
X117485000Y-100012500D01*
X117484699Y-100018626D01*
X117483799Y-100024693D01*
X117482309Y-100030643D01*
X117480242Y-100036418D01*
X117477620Y-100041962D01*
X117474467Y-100047223D01*
X117470813Y-100052150D01*
X117466694Y-100056694D01*
X117462150Y-100060813D01*
X117457223Y-100064467D01*
X117451962Y-100067620D01*
X117446418Y-100070242D01*
X117440643Y-100072309D01*
X117434693Y-100073799D01*
X117428626Y-100074699D01*
X117422500Y-100075000D01*
X117297500Y-100075000D01*
X117291374Y-100074699D01*
X117285307Y-100073799D01*
X117279357Y-100072309D01*
X117273582Y-100070242D01*
X117268038Y-100067620D01*
X117262777Y-100064467D01*
X117257850Y-100060813D01*
X117253306Y-100056694D01*
X117249187Y-100052150D01*
X117245533Y-100047223D01*
X117242380Y-100041962D01*
X117239758Y-100036418D01*
X117237691Y-100030643D01*
X117236201Y-100024693D01*
X117235301Y-100018626D01*
X117235000Y-100012500D01*
X117235000Y-99312500D01*
X117235301Y-99306374D01*
X117236201Y-99300307D01*
X117237691Y-99294357D01*
X117239758Y-99288582D01*
X117242380Y-99283038D01*
X117245533Y-99277777D01*
X117249187Y-99272850D01*
X117253306Y-99268306D01*
X117257850Y-99264187D01*
X117262777Y-99260533D01*
X117268038Y-99257380D01*
X117273582Y-99254758D01*
X117279357Y-99252691D01*
X117285307Y-99251201D01*
X117291374Y-99250301D01*
X117297500Y-99250000D01*
X117422500Y-99250000D01*
X117428626Y-99250301D01*
G37*
G04 #@! TD.AperFunction*
G04 #@! TA.AperFunction,SMDPad,CuDef*
G36*
X116928626Y-99250301D02*
G01*
X116934693Y-99251201D01*
X116940643Y-99252691D01*
X116946418Y-99254758D01*
X116951962Y-99257380D01*
X116957223Y-99260533D01*
X116962150Y-99264187D01*
X116966694Y-99268306D01*
X116970813Y-99272850D01*
X116974467Y-99277777D01*
X116977620Y-99283038D01*
X116980242Y-99288582D01*
X116982309Y-99294357D01*
X116983799Y-99300307D01*
X116984699Y-99306374D01*
X116985000Y-99312500D01*
X116985000Y-100012500D01*
X116984699Y-100018626D01*
X116983799Y-100024693D01*
X116982309Y-100030643D01*
X116980242Y-100036418D01*
X116977620Y-100041962D01*
X116974467Y-100047223D01*
X116970813Y-100052150D01*
X116966694Y-100056694D01*
X116962150Y-100060813D01*
X116957223Y-100064467D01*
X116951962Y-100067620D01*
X116946418Y-100070242D01*
X116940643Y-100072309D01*
X116934693Y-100073799D01*
X116928626Y-100074699D01*
X116922500Y-100075000D01*
X116797500Y-100075000D01*
X116791374Y-100074699D01*
X116785307Y-100073799D01*
X116779357Y-100072309D01*
X116773582Y-100070242D01*
X116768038Y-100067620D01*
X116762777Y-100064467D01*
X116757850Y-100060813D01*
X116753306Y-100056694D01*
X116749187Y-100052150D01*
X116745533Y-100047223D01*
X116742380Y-100041962D01*
X116739758Y-100036418D01*
X116737691Y-100030643D01*
X116736201Y-100024693D01*
X116735301Y-100018626D01*
X116735000Y-100012500D01*
X116735000Y-99312500D01*
X116735301Y-99306374D01*
X116736201Y-99300307D01*
X116737691Y-99294357D01*
X116739758Y-99288582D01*
X116742380Y-99283038D01*
X116745533Y-99277777D01*
X116749187Y-99272850D01*
X116753306Y-99268306D01*
X116757850Y-99264187D01*
X116762777Y-99260533D01*
X116768038Y-99257380D01*
X116773582Y-99254758D01*
X116779357Y-99252691D01*
X116785307Y-99251201D01*
X116791374Y-99250301D01*
X116797500Y-99250000D01*
X116922500Y-99250000D01*
X116928626Y-99250301D01*
G37*
G04 #@! TD.AperFunction*
D20*
X119210000Y-107000000D03*
X119210000Y-108900000D03*
X117010000Y-108900000D03*
D21*
X117010000Y-107180000D03*
D22*
X116078000Y-104013000D03*
X116078000Y-98933000D03*
X114758733Y-99617267D03*
X114681000Y-101346000D03*
X114681000Y-108712000D03*
X114681000Y-106426000D03*
X122174000Y-108712000D03*
X116459000Y-105918000D03*
X118110000Y-101600000D03*
X118110000Y-101600000D03*
X114808000Y-94742000D03*
X111760000Y-105029000D03*
X136017000Y-105537000D03*
X135636000Y-107950000D03*
X135128000Y-96520000D03*
X126365000Y-101092000D03*
X122809000Y-118618000D03*
X113411000Y-116722000D03*
X133223000Y-105537000D03*
X134620000Y-107950000D03*
X120372998Y-97790054D03*
X121539000Y-97790000D03*
X122174000Y-103759000D03*
X121158000Y-104394000D03*
X120374798Y-98552050D03*
X121539000Y-98552000D03*
X115316000Y-103759000D03*
X113521000Y-105537000D03*
X123190000Y-113030000D03*
X123190000Y-114300000D03*
D23*
X116860000Y-104172500D02*
X116860000Y-103537500D01*
X116860000Y-104633022D02*
X116860000Y-104172500D01*
X117636978Y-105410000D02*
X116860000Y-104633022D01*
X118370000Y-105410000D02*
X117636978Y-105410000D01*
X119210000Y-107000000D02*
X119210000Y-106250000D01*
X119210000Y-106250000D02*
X118370000Y-105410000D01*
X116450000Y-97220000D02*
X116450000Y-96520000D01*
X115529000Y-98141000D02*
X116450000Y-97220000D01*
X113030000Y-98141000D02*
X115529000Y-98141000D01*
X116860000Y-103537500D02*
X116553500Y-103537500D01*
X116553500Y-103537500D02*
X116078000Y-104013000D01*
X115529000Y-98384000D02*
X115529000Y-98141000D01*
X116078000Y-98933000D02*
X115529000Y-98384000D01*
X113030000Y-98791000D02*
X113932466Y-98791000D01*
X113932466Y-98791000D02*
X114758733Y-99617267D01*
X115185000Y-101850000D02*
X116172500Y-101850000D01*
X114681000Y-101346000D02*
X115185000Y-101850000D01*
X114681000Y-108712000D02*
X114935000Y-109220000D01*
X114935000Y-109220000D02*
X115824000Y-110109000D01*
X115824000Y-110109000D02*
X118751000Y-110109000D01*
X118751000Y-110109000D02*
X119210000Y-109650000D01*
X119210000Y-109650000D02*
X119210000Y-108900000D01*
X114681000Y-102489000D02*
X115185000Y-101850000D01*
X114681000Y-106426000D02*
X114681000Y-102489000D01*
X113840002Y-99441000D02*
X114427000Y-100027998D01*
X113030000Y-99441000D02*
X113840002Y-99441000D01*
X116122510Y-101300010D02*
X116172500Y-101350000D01*
X115661988Y-101300010D02*
X116122510Y-101300010D01*
X113030000Y-99441000D02*
X113802978Y-99441000D01*
X116060000Y-108900000D02*
X114046000Y-106886000D01*
X117010000Y-108900000D02*
X116060000Y-108900000D01*
X114046000Y-106886000D02*
X114046000Y-101219000D01*
X113802978Y-99441000D02*
X114808000Y-100457000D01*
X114046000Y-101219000D02*
X114808000Y-100457000D01*
X114808000Y-100457000D02*
X115661988Y-101300010D01*
X117865000Y-111760000D02*
X120260000Y-111760000D01*
X121536999Y-108074999D02*
X121974001Y-108512001D01*
X117010000Y-108030000D02*
X117054999Y-108074999D01*
X121974001Y-108512001D02*
X122174000Y-108712000D01*
X117054999Y-108074999D02*
X121536999Y-108074999D01*
X117010000Y-107180000D02*
X117010000Y-108030000D01*
X120260000Y-110626000D02*
X122174000Y-108712000D01*
X120260000Y-111760000D02*
X120260000Y-110626000D01*
X117360000Y-100850000D02*
X118110000Y-101600000D01*
X116172500Y-100850000D02*
X117360000Y-100850000D01*
X122945000Y-97220000D02*
X122936000Y-97229000D01*
X122945000Y-96520000D02*
X122945000Y-97220000D01*
X127235000Y-99205000D02*
X127235000Y-101073000D01*
X128035000Y-107805000D02*
X128035000Y-104502000D01*
X126435000Y-107805000D02*
X126435000Y-105213000D01*
X122945000Y-96520000D02*
X125340000Y-96520000D01*
X125550000Y-96520000D02*
X125340000Y-96520000D01*
X127235000Y-98205000D02*
X125550000Y-96520000D01*
X127235000Y-99205000D02*
X127235000Y-98205000D01*
X117010000Y-107180000D02*
X117010000Y-106469000D01*
X117010000Y-106469000D02*
X116459000Y-105918000D01*
X111779999Y-101066001D02*
X112105000Y-100741000D01*
X111779999Y-104921999D02*
X111779999Y-101066001D01*
X111760000Y-105029000D02*
X111779999Y-104921999D01*
X112105000Y-100741000D02*
X113030000Y-100741000D01*
X111760000Y-106172000D02*
X109728000Y-108204000D01*
X111760000Y-105029000D02*
X111760000Y-106172000D01*
X137668000Y-103886000D02*
X136017000Y-105537000D01*
X110355000Y-96791000D02*
X110355000Y-98241000D01*
X110355000Y-95641000D02*
X110355000Y-96791000D01*
X110355000Y-98241000D02*
X110355000Y-100641000D01*
X110355000Y-100641000D02*
X110355000Y-103241000D01*
X112205000Y-95641000D02*
X112905000Y-96341000D01*
X110355000Y-95641000D02*
X112205000Y-95641000D01*
X137668000Y-95377000D02*
X136271000Y-95377000D01*
X136271000Y-95377000D02*
X135128000Y-96520000D01*
X124835000Y-102622000D02*
X124835000Y-107805000D01*
X126365000Y-101092000D02*
X124835000Y-102622000D01*
X109474000Y-111594000D02*
X109474000Y-110744000D01*
X123467000Y-118618000D02*
X122809000Y-118618000D01*
X125120000Y-115965000D02*
X125120000Y-116965000D01*
X125120000Y-116965000D02*
X123467000Y-118618000D01*
X136798000Y-120015000D02*
X135401000Y-118618000D01*
X137668000Y-120015000D02*
X136798000Y-120015000D01*
X125120000Y-117119000D02*
X125120000Y-115965000D01*
X126619000Y-118618000D02*
X125120000Y-117119000D01*
X135401000Y-118618000D02*
X131826000Y-118618000D01*
X131826000Y-118618000D02*
X126619000Y-118618000D01*
X137668000Y-98787000D02*
X140589000Y-101708000D01*
X137668000Y-97917000D02*
X137668000Y-98787000D01*
X138538000Y-108966000D02*
X137668000Y-108966000D01*
X140589000Y-106915000D02*
X138538000Y-108966000D01*
X140589000Y-101708000D02*
X140589000Y-106915000D01*
X138538000Y-108966000D02*
X140589000Y-111017000D01*
X138538000Y-120015000D02*
X137668000Y-120015000D01*
X140589000Y-117964000D02*
X138538000Y-120015000D01*
X140589000Y-111017000D02*
X140589000Y-117964000D01*
X112711000Y-116722000D02*
X113411000Y-116722000D01*
X109728000Y-113739000D02*
X112711000Y-116722000D01*
X109728000Y-110744000D02*
X109728000Y-113739000D01*
X132056000Y-106426000D02*
X131935000Y-106305000D01*
X137668000Y-106426000D02*
X132056000Y-106426000D01*
X131967000Y-105537000D02*
X131935000Y-105505000D01*
X133223000Y-105537000D02*
X131967000Y-105537000D01*
X134620000Y-116586000D02*
X134620000Y-107950000D01*
X137668000Y-117475000D02*
X136437635Y-117475000D01*
X136437635Y-117475000D02*
X134620000Y-116586000D01*
X118360000Y-99201978D02*
X118364000Y-99197978D01*
X118360000Y-99662500D02*
X118360000Y-99201978D01*
X118364000Y-99197978D02*
X118364000Y-98552000D01*
X118364000Y-98552000D02*
X118364000Y-98425000D01*
X118364000Y-98425000D02*
X118998946Y-97790054D01*
X118998946Y-97790054D02*
X120372998Y-97790054D01*
X121539000Y-97790000D02*
X122174000Y-98425000D01*
X122174000Y-98425000D02*
X122174000Y-103759000D01*
X122269000Y-105505000D02*
X123335000Y-105505000D01*
X121158000Y-104394000D02*
X122269000Y-105505000D01*
X119509928Y-98552050D02*
X120374798Y-98552050D01*
X118860000Y-99662500D02*
X118860000Y-99201978D01*
X118860000Y-99201978D02*
X119509928Y-98552050D01*
X122335000Y-104705000D02*
X123335000Y-104705000D01*
X121539000Y-103909000D02*
X122335000Y-104705000D01*
X121539000Y-98552000D02*
X121539000Y-103909000D01*
X118500000Y-96520000D02*
X120895000Y-96520000D01*
X118500000Y-96520000D02*
X119075000Y-96520000D01*
X117360000Y-103950000D02*
X117360000Y-103537500D01*
X120904000Y-100330000D02*
X120904000Y-103759000D01*
X120895000Y-96520000D02*
X120904000Y-100330000D01*
X120904000Y-103759000D02*
X119761000Y-104775000D01*
X119761000Y-104775000D02*
X118110000Y-104775000D01*
X118110000Y-104775000D02*
X117360000Y-103998022D01*
X117360000Y-103998022D02*
X117360000Y-103950000D01*
X131420000Y-113665000D02*
X125120000Y-113665000D01*
X120260000Y-115505000D02*
X120260000Y-116205000D01*
X122100000Y-113665000D02*
X120260000Y-115505000D01*
X122100000Y-113665000D02*
X121465000Y-113665000D01*
X115815000Y-112460000D02*
X115815000Y-111760000D01*
X117020000Y-113665000D02*
X115815000Y-112460000D01*
X121465000Y-113665000D02*
X117020000Y-113665000D01*
X127235000Y-108805000D02*
X127235000Y-107805000D01*
X125370000Y-113665000D02*
X127235000Y-111800000D01*
X125120000Y-113665000D02*
X125370000Y-113665000D01*
X128835000Y-108805000D02*
X128835000Y-107805000D01*
X128020000Y-109620000D02*
X128835000Y-108805000D01*
X127235000Y-109620000D02*
X128020000Y-109620000D01*
X127235000Y-109620000D02*
X127235000Y-108805000D01*
X127235000Y-111800000D02*
X127235000Y-109620000D01*
X129635000Y-100205000D02*
X129635000Y-99205000D01*
X129635000Y-106005000D02*
X129635000Y-100205000D01*
X128835000Y-106805000D02*
X129635000Y-106005000D01*
X128835000Y-107805000D02*
X128835000Y-106805000D01*
X129635000Y-96670000D02*
X129785000Y-96520000D01*
X129635000Y-99205000D02*
X129635000Y-96670000D01*
X122310000Y-112460000D02*
X122310000Y-111760000D01*
X123047998Y-113665000D02*
X122310000Y-112927002D01*
X123825000Y-113665000D02*
X123047998Y-113665000D01*
X122310000Y-112927002D02*
X122310000Y-112460000D01*
X123825000Y-113665000D02*
X122100000Y-113665000D01*
X125120000Y-113665000D02*
X123825000Y-113665000D01*
X127390000Y-96520000D02*
X129785000Y-96520000D01*
X116172500Y-102350000D02*
X116172500Y-102850000D01*
X116172500Y-102850000D02*
X116172500Y-102902500D01*
X116172500Y-102902500D02*
X115316000Y-103759000D01*
X115240000Y-111760000D02*
X115815000Y-111760000D01*
X113521000Y-110041000D02*
X115240000Y-111760000D01*
X113521000Y-105537000D02*
X113521000Y-110041000D01*
X123205000Y-113030000D02*
X123190000Y-113030000D01*
X125120000Y-111365000D02*
X124870000Y-111365000D01*
X124870000Y-111365000D02*
X123205000Y-113030000D01*
X122310000Y-115180000D02*
X123190000Y-114300000D01*
X122310000Y-116205000D02*
X122310000Y-115180000D01*
X116459000Y-117729000D02*
X121031000Y-117729000D01*
X121031000Y-117729000D02*
X122310000Y-116205000D01*
X115815000Y-116205000D02*
X115815000Y-116905000D01*
X115815000Y-116905000D02*
X116459000Y-117729000D01*
D24*
G36*
X140121504Y-100165702D02*
G01*
X139008277Y-99052476D01*
X139026405Y-99030387D01*
X139108472Y-98876851D01*
X139159008Y-98710255D01*
X139176072Y-98537001D01*
X139176072Y-97296999D01*
X139159008Y-97123745D01*
X139108472Y-96957149D01*
X139026405Y-96803613D01*
X138915962Y-96669038D01*
X138781387Y-96558595D01*
X138672825Y-96500567D01*
X138837010Y-96336382D01*
X139001714Y-96089885D01*
X139115164Y-95815992D01*
X139173000Y-95525230D01*
X139173000Y-95228770D01*
X139115164Y-94938008D01*
X139001714Y-94664115D01*
X138837010Y-94417618D01*
X138627382Y-94207990D01*
X138461694Y-94097281D01*
X138531067Y-93879672D01*
X137668000Y-93016605D01*
X136804933Y-93879672D01*
X136874306Y-94097281D01*
X136708618Y-94207990D01*
X136498990Y-94417618D01*
X136365767Y-94617000D01*
X136308322Y-94617000D01*
X136270999Y-94613324D01*
X136233676Y-94617000D01*
X136233667Y-94617000D01*
X136122014Y-94627997D01*
X136002947Y-94664115D01*
X135978753Y-94671454D01*
X135846723Y-94742026D01*
X135824258Y-94760463D01*
X135730999Y-94836999D01*
X135707201Y-94865997D01*
X134836077Y-95737121D01*
X134732479Y-95780033D01*
X134595719Y-95871413D01*
X134479413Y-95987719D01*
X134388033Y-96124479D01*
X134325089Y-96276440D01*
X134293000Y-96437760D01*
X134293000Y-96602240D01*
X134325089Y-96763560D01*
X134388033Y-96915521D01*
X134479413Y-97052281D01*
X134595719Y-97168587D01*
X134732479Y-97259967D01*
X134884440Y-97322911D01*
X135045760Y-97355000D01*
X135210240Y-97355000D01*
X135371560Y-97322911D01*
X135523521Y-97259967D01*
X135660281Y-97168587D01*
X135776587Y-97052281D01*
X135867967Y-96915521D01*
X135910879Y-96811923D01*
X136453901Y-96268901D01*
X136498990Y-96336382D01*
X136663175Y-96500567D01*
X136554613Y-96558595D01*
X136420038Y-96669038D01*
X136309595Y-96803613D01*
X136227528Y-96957149D01*
X136176992Y-97123745D01*
X136159928Y-97296999D01*
X136159928Y-98537001D01*
X136176992Y-98710255D01*
X136227528Y-98876851D01*
X136309595Y-99030387D01*
X136420038Y-99164962D01*
X136554613Y-99275405D01*
X136708149Y-99357472D01*
X136874745Y-99408008D01*
X137047999Y-99425072D01*
X137231271Y-99425072D01*
X139829000Y-102022802D01*
X139829001Y-106600197D01*
X138803476Y-107625723D01*
X138781387Y-107607595D01*
X138672825Y-107549567D01*
X138837010Y-107385382D01*
X139001714Y-107138885D01*
X139115164Y-106864992D01*
X139173000Y-106574230D01*
X139173000Y-106277770D01*
X139115164Y-105987008D01*
X139001714Y-105713115D01*
X138837010Y-105466618D01*
X138627382Y-105256990D01*
X138461694Y-105146281D01*
X138531067Y-104928672D01*
X137668000Y-104065605D01*
X136804933Y-104928672D01*
X136874306Y-105146281D01*
X136708618Y-105256990D01*
X136498990Y-105466618D01*
X136365767Y-105666000D01*
X134048699Y-105666000D01*
X134058000Y-105619240D01*
X134058000Y-105454760D01*
X134025911Y-105293440D01*
X133962967Y-105141479D01*
X133871587Y-105004719D01*
X133755281Y-104888413D01*
X133618521Y-104797033D01*
X133466560Y-104734089D01*
X133323072Y-104705547D01*
X133323072Y-104430000D01*
X133310812Y-104305518D01*
X133310655Y-104305000D01*
X133310812Y-104304482D01*
X133323072Y-104180000D01*
X133323072Y-103953740D01*
X136157236Y-103953740D01*
X136199480Y-104247174D01*
X136298159Y-104526728D01*
X136374211Y-104669012D01*
X136625328Y-104749067D01*
X137488395Y-103886000D01*
X137847605Y-103886000D01*
X138710672Y-104749067D01*
X138961789Y-104669012D01*
X139089687Y-104401561D01*
X139162950Y-104114297D01*
X139178764Y-103818260D01*
X139136520Y-103524826D01*
X139037841Y-103245272D01*
X138961789Y-103102988D01*
X138710672Y-103022933D01*
X137847605Y-103886000D01*
X137488395Y-103886000D01*
X136625328Y-103022933D01*
X136374211Y-103102988D01*
X136246313Y-103370439D01*
X136173050Y-103657703D01*
X136157236Y-103953740D01*
X133323072Y-103953740D01*
X133323072Y-103630000D01*
X133310812Y-103505518D01*
X133310655Y-103505000D01*
X133310812Y-103504482D01*
X133323072Y-103380000D01*
X133323072Y-102843328D01*
X136804933Y-102843328D01*
X137668000Y-103706395D01*
X138531067Y-102843328D01*
X138451012Y-102592211D01*
X138183561Y-102464313D01*
X137896297Y-102391050D01*
X137600260Y-102375236D01*
X137306826Y-102417480D01*
X137027272Y-102516159D01*
X136884988Y-102592211D01*
X136804933Y-102843328D01*
X133323072Y-102843328D01*
X133323072Y-102830000D01*
X133310812Y-102705518D01*
X133310655Y-102705000D01*
X133310812Y-102704482D01*
X133323072Y-102580000D01*
X133323072Y-102030000D01*
X133310812Y-101905518D01*
X133310655Y-101905000D01*
X133310812Y-101904482D01*
X133323072Y-101780000D01*
X133323072Y-101230000D01*
X133310812Y-101105518D01*
X133310655Y-101105000D01*
X133310812Y-101104482D01*
X133323072Y-100980000D01*
X133323072Y-100430000D01*
X133310812Y-100305518D01*
X133274502Y-100185820D01*
X133215537Y-100075506D01*
X133136185Y-99978815D01*
X133039494Y-99899463D01*
X132929180Y-99840498D01*
X132809482Y-99804188D01*
X132685000Y-99791928D01*
X131348072Y-99791928D01*
X131348072Y-98455000D01*
X131335812Y-98330518D01*
X131299502Y-98210820D01*
X131240537Y-98100506D01*
X131161185Y-98003815D01*
X131064494Y-97924463D01*
X130954180Y-97865498D01*
X130834482Y-97829188D01*
X130710000Y-97816928D01*
X130395000Y-97816928D01*
X130395000Y-97807111D01*
X130449851Y-97790472D01*
X130603387Y-97708405D01*
X130737962Y-97597962D01*
X130743342Y-97591406D01*
X130808815Y-97671185D01*
X130905506Y-97750537D01*
X131015820Y-97809502D01*
X131135518Y-97845812D01*
X131260000Y-97858072D01*
X131549250Y-97855000D01*
X131708000Y-97696250D01*
X131708000Y-96647000D01*
X131962000Y-96647000D01*
X131962000Y-97696250D01*
X132120750Y-97855000D01*
X132410000Y-97858072D01*
X132534482Y-97845812D01*
X132654180Y-97809502D01*
X132764494Y-97750537D01*
X132861185Y-97671185D01*
X132940537Y-97574494D01*
X132999502Y-97464180D01*
X133035812Y-97344482D01*
X133048072Y-97220000D01*
X133045000Y-96805750D01*
X132886250Y-96647000D01*
X131962000Y-96647000D01*
X131708000Y-96647000D01*
X131688000Y-96647000D01*
X131688000Y-96393000D01*
X131708000Y-96393000D01*
X131708000Y-95343750D01*
X131962000Y-95343750D01*
X131962000Y-96393000D01*
X132886250Y-96393000D01*
X133045000Y-96234250D01*
X133048072Y-95820000D01*
X133035812Y-95695518D01*
X132999502Y-95575820D01*
X132940537Y-95465506D01*
X132861185Y-95368815D01*
X132764494Y-95289463D01*
X132654180Y-95230498D01*
X132534482Y-95194188D01*
X132410000Y-95181928D01*
X132120750Y-95185000D01*
X131962000Y-95343750D01*
X131708000Y-95343750D01*
X131549250Y-95185000D01*
X131260000Y-95181928D01*
X131135518Y-95194188D01*
X131015820Y-95230498D01*
X130905506Y-95289463D01*
X130808815Y-95368815D01*
X130743342Y-95448594D01*
X130737962Y-95442038D01*
X130603387Y-95331595D01*
X130449851Y-95249528D01*
X130283255Y-95198992D01*
X130110001Y-95181928D01*
X129459999Y-95181928D01*
X129286745Y-95198992D01*
X129120149Y-95249528D01*
X128966613Y-95331595D01*
X128832038Y-95442038D01*
X128721595Y-95576613D01*
X128639528Y-95730149D01*
X128630473Y-95760000D01*
X128544527Y-95760000D01*
X128535472Y-95730149D01*
X128453405Y-95576613D01*
X128342962Y-95442038D01*
X128208387Y-95331595D01*
X128054851Y-95249528D01*
X127888255Y-95198992D01*
X127715001Y-95181928D01*
X127064999Y-95181928D01*
X126891745Y-95198992D01*
X126725149Y-95249528D01*
X126571613Y-95331595D01*
X126437038Y-95442038D01*
X126431658Y-95448594D01*
X126366185Y-95368815D01*
X126269494Y-95289463D01*
X126159180Y-95230498D01*
X126039482Y-95194188D01*
X125915000Y-95181928D01*
X125625750Y-95185000D01*
X125467000Y-95343750D01*
X125467000Y-96393000D01*
X125487000Y-96393000D01*
X125487000Y-96647000D01*
X125467000Y-96647000D01*
X125467000Y-96667000D01*
X125213000Y-96667000D01*
X125213000Y-96647000D01*
X124288750Y-96647000D01*
X124142500Y-96793250D01*
X123996250Y-96647000D01*
X123072000Y-96647000D01*
X123072000Y-97696250D01*
X123230750Y-97855000D01*
X123520000Y-97858072D01*
X123644482Y-97845812D01*
X123764180Y-97809502D01*
X123874494Y-97750537D01*
X123971185Y-97671185D01*
X124050537Y-97574494D01*
X124109502Y-97464180D01*
X124142500Y-97355400D01*
X124175498Y-97464180D01*
X124234463Y-97574494D01*
X124313815Y-97671185D01*
X124410506Y-97750537D01*
X124520820Y-97809502D01*
X124548903Y-97818021D01*
X124435518Y-97829188D01*
X124315820Y-97865498D01*
X124205506Y-97924463D01*
X124108815Y-98003815D01*
X124029463Y-98100506D01*
X123970498Y-98210820D01*
X123934188Y-98330518D01*
X123921928Y-98455000D01*
X123921928Y-99791928D01*
X122934000Y-99791928D01*
X122934000Y-98462333D01*
X122937677Y-98425000D01*
X122923003Y-98276014D01*
X122879546Y-98132753D01*
X122808974Y-98000724D01*
X122737799Y-97913997D01*
X122714001Y-97884999D01*
X122685004Y-97861202D01*
X122669026Y-97845224D01*
X122818000Y-97696250D01*
X122818000Y-96647000D01*
X122798000Y-96647000D01*
X122798000Y-96393000D01*
X122818000Y-96393000D01*
X122818000Y-95343750D01*
X123072000Y-95343750D01*
X123072000Y-96393000D01*
X123996250Y-96393000D01*
X124142500Y-96246750D01*
X124288750Y-96393000D01*
X125213000Y-96393000D01*
X125213000Y-95343750D01*
X125054250Y-95185000D01*
X124765000Y-95181928D01*
X124640518Y-95194188D01*
X124520820Y-95230498D01*
X124410506Y-95289463D01*
X124313815Y-95368815D01*
X124234463Y-95465506D01*
X124175498Y-95575820D01*
X124142500Y-95684600D01*
X124109502Y-95575820D01*
X124050537Y-95465506D01*
X123971185Y-95368815D01*
X123874494Y-95289463D01*
X123764180Y-95230498D01*
X123644482Y-95194188D01*
X123520000Y-95181928D01*
X123230750Y-95185000D01*
X123072000Y-95343750D01*
X122818000Y-95343750D01*
X122659250Y-95185000D01*
X122370000Y-95181928D01*
X122245518Y-95194188D01*
X122125820Y-95230498D01*
X122015506Y-95289463D01*
X121918815Y-95368815D01*
X121853342Y-95448594D01*
X121847962Y-95442038D01*
X121713387Y-95331595D01*
X121559851Y-95249528D01*
X121393255Y-95198992D01*
X121220001Y-95181928D01*
X120569999Y-95181928D01*
X120396745Y-95198992D01*
X120230149Y-95249528D01*
X120076613Y-95331595D01*
X119942038Y-95442038D01*
X119831595Y-95576613D01*
X119749528Y-95730149D01*
X119740473Y-95760000D01*
X119654527Y-95760000D01*
X119645472Y-95730149D01*
X119563405Y-95576613D01*
X119452962Y-95442038D01*
X119318387Y-95331595D01*
X119164851Y-95249528D01*
X118998255Y-95198992D01*
X118825001Y-95181928D01*
X118174999Y-95181928D01*
X118001745Y-95198992D01*
X117835149Y-95249528D01*
X117681613Y-95331595D01*
X117547038Y-95442038D01*
X117475000Y-95529816D01*
X117402962Y-95442038D01*
X117268387Y-95331595D01*
X117114851Y-95249528D01*
X116948255Y-95198992D01*
X116775001Y-95181928D01*
X116124999Y-95181928D01*
X115951745Y-95198992D01*
X115785149Y-95249528D01*
X115631613Y-95331595D01*
X115497038Y-95442038D01*
X115386595Y-95576613D01*
X115304528Y-95730149D01*
X115253992Y-95896745D01*
X115236928Y-96069999D01*
X115236928Y-96970001D01*
X115253992Y-97143255D01*
X115300064Y-97295135D01*
X115214199Y-97381000D01*
X114343072Y-97381000D01*
X114343072Y-95291000D01*
X114330812Y-95166518D01*
X114294502Y-95046820D01*
X114235537Y-94936506D01*
X114156185Y-94839815D01*
X114059494Y-94760463D01*
X113949180Y-94701498D01*
X113829482Y-94665188D01*
X113705000Y-94652928D01*
X112105000Y-94652928D01*
X111980518Y-94665188D01*
X111936908Y-94678417D01*
X111930812Y-94616518D01*
X111894502Y-94496820D01*
X111835537Y-94386506D01*
X111756185Y-94289815D01*
X111659494Y-94210463D01*
X111549180Y-94151498D01*
X111429482Y-94115188D01*
X111305000Y-94102928D01*
X109405000Y-94102928D01*
X109280518Y-94115188D01*
X109160820Y-94151498D01*
X109050506Y-94210463D01*
X108953815Y-94289815D01*
X108874463Y-94386506D01*
X108815498Y-94496820D01*
X108779188Y-94616518D01*
X108766928Y-94741000D01*
X108766928Y-96541000D01*
X108779188Y-96665482D01*
X108815498Y-96785180D01*
X108874463Y-96895494D01*
X108891292Y-96916000D01*
X108874463Y-96936506D01*
X108815498Y-97046820D01*
X108779188Y-97166518D01*
X108766928Y-97291000D01*
X108766928Y-99191000D01*
X108779188Y-99315482D01*
X108815498Y-99435180D01*
X108818609Y-99441000D01*
X108815498Y-99446820D01*
X108779188Y-99566518D01*
X108766928Y-99691000D01*
X108766928Y-101591000D01*
X108779188Y-101715482D01*
X108815498Y-101835180D01*
X108874463Y-101945494D01*
X108891292Y-101966000D01*
X108874463Y-101986506D01*
X108815498Y-102096820D01*
X108779188Y-102216518D01*
X108766928Y-102341000D01*
X108766928Y-104141000D01*
X108779188Y-104265482D01*
X108815498Y-104385180D01*
X108874463Y-104495494D01*
X108953815Y-104592185D01*
X109050506Y-104671537D01*
X109160820Y-104730502D01*
X109280518Y-104766812D01*
X109405000Y-104779072D01*
X111305000Y-104779072D01*
X111429482Y-104766812D01*
X111549180Y-104730502D01*
X111659494Y-104671537D01*
X111756185Y-104592185D01*
X111835537Y-104495494D01*
X111894502Y-104385180D01*
X111930812Y-104265482D01*
X111936908Y-104203583D01*
X111980518Y-104216812D01*
X112105000Y-104229072D01*
X113286000Y-104229072D01*
X113286000Y-104732386D01*
X113277440Y-104734089D01*
X113125479Y-104797033D01*
X112988719Y-104888413D01*
X112872413Y-105004719D01*
X112781033Y-105141479D01*
X112718089Y-105293440D01*
X112686000Y-105454760D01*
X112686000Y-105619240D01*
X112718089Y-105780560D01*
X112761000Y-105884157D01*
X112761001Y-110003668D01*
X112757324Y-110041000D01*
X112761001Y-110078333D01*
X112764022Y-110109000D01*
X112771998Y-110189985D01*
X112815454Y-110333246D01*
X112886026Y-110465276D01*
X112938704Y-110529463D01*
X112981000Y-110581001D01*
X113009998Y-110604799D01*
X114601928Y-112196730D01*
X114601928Y-112210001D01*
X114618992Y-112383255D01*
X114669528Y-112549851D01*
X114751595Y-112703387D01*
X114862038Y-112837962D01*
X114996613Y-112948405D01*
X115150149Y-113030472D01*
X115316745Y-113081008D01*
X115366064Y-113085866D01*
X116456201Y-114176003D01*
X116479999Y-114205001D01*
X116595724Y-114299974D01*
X116727753Y-114370546D01*
X116871014Y-114414003D01*
X116982667Y-114425000D01*
X116982676Y-114425000D01*
X117019999Y-114428676D01*
X117057322Y-114425000D01*
X120265199Y-114425000D01*
X119811064Y-114879134D01*
X119761745Y-114883992D01*
X119595149Y-114934528D01*
X119441613Y-115016595D01*
X119307038Y-115127038D01*
X119196595Y-115261613D01*
X119114528Y-115415149D01*
X119077841Y-115536089D01*
X119078072Y-115505000D01*
X119065812Y-115380518D01*
X119029502Y-115260820D01*
X118970537Y-115150506D01*
X118891185Y-115053815D01*
X118794494Y-114974463D01*
X118684180Y-114915498D01*
X118564482Y-114879188D01*
X118440000Y-114866928D01*
X118150750Y-114870000D01*
X117992000Y-115028750D01*
X117992000Y-116078000D01*
X118012000Y-116078000D01*
X118012000Y-116332000D01*
X117992000Y-116332000D01*
X117992000Y-116352000D01*
X117738000Y-116352000D01*
X117738000Y-116332000D01*
X117718000Y-116332000D01*
X117718000Y-116078000D01*
X117738000Y-116078000D01*
X117738000Y-115028750D01*
X117579250Y-114870000D01*
X117290000Y-114866928D01*
X117165518Y-114879188D01*
X117045820Y-114915498D01*
X116935506Y-114974463D01*
X116838815Y-115053815D01*
X116773342Y-115133594D01*
X116767962Y-115127038D01*
X116633387Y-115016595D01*
X116479851Y-114934528D01*
X116313255Y-114883992D01*
X116140001Y-114866928D01*
X115489999Y-114866928D01*
X115316745Y-114883992D01*
X115150149Y-114934528D01*
X114996613Y-115016595D01*
X114862038Y-115127038D01*
X114751595Y-115261613D01*
X114746738Y-115270700D01*
X114749072Y-115247000D01*
X114746000Y-114957750D01*
X114587250Y-114799000D01*
X113538000Y-114799000D01*
X113538000Y-114819000D01*
X113284000Y-114819000D01*
X113284000Y-114799000D01*
X112234750Y-114799000D01*
X112076000Y-114957750D01*
X112075428Y-115011626D01*
X111160802Y-114097000D01*
X112072928Y-114097000D01*
X112076000Y-114386250D01*
X112234750Y-114545000D01*
X113284000Y-114545000D01*
X113284000Y-113620750D01*
X113538000Y-113620750D01*
X113538000Y-114545000D01*
X114587250Y-114545000D01*
X114746000Y-114386250D01*
X114749072Y-114097000D01*
X114736812Y-113972518D01*
X114700502Y-113852820D01*
X114641537Y-113742506D01*
X114562185Y-113645815D01*
X114465494Y-113566463D01*
X114355180Y-113507498D01*
X114235482Y-113471188D01*
X114111000Y-113458928D01*
X113696750Y-113462000D01*
X113538000Y-113620750D01*
X113284000Y-113620750D01*
X113125250Y-113462000D01*
X112711000Y-113458928D01*
X112586518Y-113471188D01*
X112466820Y-113507498D01*
X112356506Y-113566463D01*
X112259815Y-113645815D01*
X112180463Y-113742506D01*
X112121498Y-113852820D01*
X112085188Y-113972518D01*
X112072928Y-114097000D01*
X111160802Y-114097000D01*
X110488000Y-113424199D01*
X110488000Y-112238283D01*
X110521255Y-112235008D01*
X110687851Y-112184472D01*
X110841387Y-112102405D01*
X110975962Y-111991962D01*
X111086405Y-111857387D01*
X111168472Y-111703851D01*
X111219008Y-111537255D01*
X111236072Y-111364001D01*
X111236072Y-110123999D01*
X111219008Y-109950745D01*
X111168472Y-109784149D01*
X111086405Y-109630613D01*
X110975962Y-109496038D01*
X110841387Y-109385595D01*
X110687851Y-109303528D01*
X110583074Y-109271744D01*
X110591067Y-109246672D01*
X109728000Y-108383605D01*
X108864933Y-109246672D01*
X108872926Y-109271744D01*
X108768149Y-109303528D01*
X108614613Y-109385595D01*
X108480038Y-109496038D01*
X108369595Y-109630613D01*
X108287528Y-109784149D01*
X108236992Y-109950745D01*
X108219928Y-110123999D01*
X108219928Y-111364001D01*
X108236992Y-111537255D01*
X108287528Y-111703851D01*
X108369595Y-111857387D01*
X108480038Y-111991962D01*
X108614613Y-112102405D01*
X108768149Y-112184472D01*
X108934745Y-112235008D01*
X108968000Y-112238283D01*
X108968001Y-113701668D01*
X108964324Y-113739000D01*
X108968001Y-113776333D01*
X108971710Y-113813985D01*
X108978998Y-113887985D01*
X109022454Y-114031246D01*
X109093026Y-114163276D01*
X109146800Y-114228799D01*
X109188000Y-114279001D01*
X109216998Y-114302799D01*
X112085135Y-117170937D01*
X112089992Y-117220255D01*
X112140528Y-117386851D01*
X112222595Y-117540387D01*
X112333038Y-117674962D01*
X112467613Y-117785405D01*
X112621149Y-117867472D01*
X112787745Y-117918008D01*
X112960999Y-117935072D01*
X113861001Y-117935072D01*
X114034255Y-117918008D01*
X114200851Y-117867472D01*
X114354387Y-117785405D01*
X114488962Y-117674962D01*
X114599405Y-117540387D01*
X114681472Y-117386851D01*
X114732008Y-117220255D01*
X114741033Y-117128626D01*
X114751595Y-117148387D01*
X114862038Y-117282962D01*
X114996613Y-117393405D01*
X115150149Y-117475472D01*
X115316745Y-117526008D01*
X115337359Y-117528038D01*
X115819721Y-118145223D01*
X115824026Y-118153276D01*
X115865756Y-118204124D01*
X115883179Y-118226417D01*
X115889443Y-118232987D01*
X115918999Y-118269001D01*
X115940978Y-118287038D01*
X115960598Y-118307617D01*
X115998711Y-118334419D01*
X116034724Y-118363974D01*
X116059797Y-118377376D01*
X116083057Y-118393733D01*
X116125660Y-118412581D01*
X116166753Y-118434546D01*
X116193970Y-118442802D01*
X116219964Y-118454302D01*
X116265416Y-118464475D01*
X116310014Y-118478003D01*
X116338318Y-118480791D01*
X116366057Y-118486999D01*
X116412622Y-118488109D01*
X116421667Y-118489000D01*
X116449991Y-118489000D01*
X116515721Y-118490567D01*
X116524714Y-118489000D01*
X121026922Y-118489000D01*
X121097496Y-118489776D01*
X121138480Y-118482091D01*
X121179986Y-118478003D01*
X121211885Y-118468327D01*
X121244639Y-118462185D01*
X121283333Y-118446654D01*
X121323247Y-118434546D01*
X121352644Y-118418833D01*
X121383571Y-118406419D01*
X121418496Y-118383634D01*
X121455276Y-118363974D01*
X121481044Y-118342827D01*
X121508954Y-118324618D01*
X121538758Y-118295462D01*
X121571001Y-118269001D01*
X121615852Y-118214350D01*
X122179215Y-117543072D01*
X122635001Y-117543072D01*
X122808255Y-117526008D01*
X122974851Y-117475472D01*
X123128387Y-117393405D01*
X123262962Y-117282962D01*
X123373405Y-117148387D01*
X123455472Y-116994851D01*
X123498395Y-116853351D01*
X123530498Y-116959180D01*
X123589463Y-117069494D01*
X123668815Y-117166185D01*
X123765042Y-117245156D01*
X123153358Y-117856841D01*
X123052560Y-117815089D01*
X122891240Y-117783000D01*
X122726760Y-117783000D01*
X122565440Y-117815089D01*
X122413479Y-117878033D01*
X122276719Y-117969413D01*
X122160413Y-118085719D01*
X122069033Y-118222479D01*
X122006089Y-118374440D01*
X121974000Y-118535760D01*
X121974000Y-118700240D01*
X122006089Y-118861560D01*
X122069033Y-119013521D01*
X122127485Y-119101000D01*
X107061000Y-119101000D01*
X107061000Y-108271740D01*
X108217236Y-108271740D01*
X108259480Y-108565174D01*
X108358159Y-108844728D01*
X108434211Y-108987012D01*
X108685328Y-109067067D01*
X109548395Y-108204000D01*
X109907605Y-108204000D01*
X110770672Y-109067067D01*
X111021789Y-108987012D01*
X111149687Y-108719561D01*
X111222950Y-108432297D01*
X111238764Y-108136260D01*
X111196520Y-107842826D01*
X111097841Y-107563272D01*
X111021789Y-107420988D01*
X110770672Y-107340933D01*
X109907605Y-108204000D01*
X109548395Y-108204000D01*
X108685328Y-107340933D01*
X108434211Y-107420988D01*
X108306313Y-107688439D01*
X108233050Y-107975703D01*
X108217236Y-108271740D01*
X107061000Y-108271740D01*
X107061000Y-107161328D01*
X108864933Y-107161328D01*
X109728000Y-108024395D01*
X110591067Y-107161328D01*
X110511012Y-106910211D01*
X110243561Y-106782313D01*
X109956297Y-106709050D01*
X109660260Y-106693236D01*
X109366826Y-106735480D01*
X109087272Y-106834159D01*
X108944988Y-106910211D01*
X108864933Y-107161328D01*
X107061000Y-107161328D01*
X107061000Y-93878000D01*
X131003158Y-93878000D01*
X131007239Y-93878759D01*
X131068033Y-93878000D01*
X131096419Y-93878000D01*
X131100540Y-93877594D01*
X131137237Y-93877136D01*
X131165062Y-93871239D01*
X131193383Y-93868450D01*
X131228519Y-93857791D01*
X131264421Y-93850183D01*
X131290562Y-93838971D01*
X131317793Y-93830710D01*
X131350178Y-93813400D01*
X131383902Y-93798935D01*
X131407350Y-93782841D01*
X131432450Y-93769425D01*
X131460829Y-93746135D01*
X131491091Y-93725364D01*
X131510956Y-93704996D01*
X131532948Y-93686948D01*
X131556239Y-93658568D01*
X131559121Y-93655613D01*
X131576794Y-93633522D01*
X131615425Y-93586450D01*
X131617385Y-93582783D01*
X132159819Y-92904740D01*
X136157236Y-92904740D01*
X136199480Y-93198174D01*
X136298159Y-93477728D01*
X136374211Y-93620012D01*
X136625328Y-93700067D01*
X137488395Y-92837000D01*
X137847605Y-92837000D01*
X138710672Y-93700067D01*
X138961789Y-93620012D01*
X139089687Y-93352561D01*
X139162950Y-93065297D01*
X139178764Y-92769260D01*
X139136520Y-92475826D01*
X139037841Y-92196272D01*
X138961789Y-92053988D01*
X138710672Y-91973933D01*
X137847605Y-92837000D01*
X137488395Y-92837000D01*
X136625328Y-91973933D01*
X136374211Y-92053988D01*
X136246313Y-92321439D01*
X136173050Y-92608703D01*
X136157236Y-92904740D01*
X132159819Y-92904740D01*
X133048149Y-91794328D01*
X136804933Y-91794328D01*
X137668000Y-92657395D01*
X138531067Y-91794328D01*
X138451012Y-91543211D01*
X138183561Y-91415313D01*
X137896297Y-91342050D01*
X137600260Y-91326236D01*
X137306826Y-91368480D01*
X137027272Y-91467159D01*
X136884988Y-91543211D01*
X136804933Y-91794328D01*
X133048149Y-91794328D01*
X134937213Y-89433000D01*
X140082476Y-89433000D01*
X140121504Y-100165702D01*
G37*
X140121504Y-100165702D02*
X139008277Y-99052476D01*
X139026405Y-99030387D01*
X139108472Y-98876851D01*
X139159008Y-98710255D01*
X139176072Y-98537001D01*
X139176072Y-97296999D01*
X139159008Y-97123745D01*
X139108472Y-96957149D01*
X139026405Y-96803613D01*
X138915962Y-96669038D01*
X138781387Y-96558595D01*
X138672825Y-96500567D01*
X138837010Y-96336382D01*
X139001714Y-96089885D01*
X139115164Y-95815992D01*
X139173000Y-95525230D01*
X139173000Y-95228770D01*
X139115164Y-94938008D01*
X139001714Y-94664115D01*
X138837010Y-94417618D01*
X138627382Y-94207990D01*
X138461694Y-94097281D01*
X138531067Y-93879672D01*
X137668000Y-93016605D01*
X136804933Y-93879672D01*
X136874306Y-94097281D01*
X136708618Y-94207990D01*
X136498990Y-94417618D01*
X136365767Y-94617000D01*
X136308322Y-94617000D01*
X136270999Y-94613324D01*
X136233676Y-94617000D01*
X136233667Y-94617000D01*
X136122014Y-94627997D01*
X136002947Y-94664115D01*
X135978753Y-94671454D01*
X135846723Y-94742026D01*
X135824258Y-94760463D01*
X135730999Y-94836999D01*
X135707201Y-94865997D01*
X134836077Y-95737121D01*
X134732479Y-95780033D01*
X134595719Y-95871413D01*
X134479413Y-95987719D01*
X134388033Y-96124479D01*
X134325089Y-96276440D01*
X134293000Y-96437760D01*
X134293000Y-96602240D01*
X134325089Y-96763560D01*
X134388033Y-96915521D01*
X134479413Y-97052281D01*
X134595719Y-97168587D01*
X134732479Y-97259967D01*
X134884440Y-97322911D01*
X135045760Y-97355000D01*
X135210240Y-97355000D01*
X135371560Y-97322911D01*
X135523521Y-97259967D01*
X135660281Y-97168587D01*
X135776587Y-97052281D01*
X135867967Y-96915521D01*
X135910879Y-96811923D01*
X136453901Y-96268901D01*
X136498990Y-96336382D01*
X136663175Y-96500567D01*
X136554613Y-96558595D01*
X136420038Y-96669038D01*
X136309595Y-96803613D01*
X136227528Y-96957149D01*
X136176992Y-97123745D01*
X136159928Y-97296999D01*
X136159928Y-98537001D01*
X136176992Y-98710255D01*
X136227528Y-98876851D01*
X136309595Y-99030387D01*
X136420038Y-99164962D01*
X136554613Y-99275405D01*
X136708149Y-99357472D01*
X136874745Y-99408008D01*
X137047999Y-99425072D01*
X137231271Y-99425072D01*
X139829000Y-102022802D01*
X139829001Y-106600197D01*
X138803476Y-107625723D01*
X138781387Y-107607595D01*
X138672825Y-107549567D01*
X138837010Y-107385382D01*
X139001714Y-107138885D01*
X139115164Y-106864992D01*
X139173000Y-106574230D01*
X139173000Y-106277770D01*
X139115164Y-105987008D01*
X139001714Y-105713115D01*
X138837010Y-105466618D01*
X138627382Y-105256990D01*
X138461694Y-105146281D01*
X138531067Y-104928672D01*
X137668000Y-104065605D01*
X136804933Y-104928672D01*
X136874306Y-105146281D01*
X136708618Y-105256990D01*
X136498990Y-105466618D01*
X136365767Y-105666000D01*
X134048699Y-105666000D01*
X134058000Y-105619240D01*
X134058000Y-105454760D01*
X134025911Y-105293440D01*
X133962967Y-105141479D01*
X133871587Y-105004719D01*
X133755281Y-104888413D01*
X133618521Y-104797033D01*
X133466560Y-104734089D01*
X133323072Y-104705547D01*
X133323072Y-104430000D01*
X133310812Y-104305518D01*
X133310655Y-104305000D01*
X133310812Y-104304482D01*
X133323072Y-104180000D01*
X133323072Y-103953740D01*
X136157236Y-103953740D01*
X136199480Y-104247174D01*
X136298159Y-104526728D01*
X136374211Y-104669012D01*
X136625328Y-104749067D01*
X137488395Y-103886000D01*
X137847605Y-103886000D01*
X138710672Y-104749067D01*
X138961789Y-104669012D01*
X139089687Y-104401561D01*
X139162950Y-104114297D01*
X139178764Y-103818260D01*
X139136520Y-103524826D01*
X139037841Y-103245272D01*
X138961789Y-103102988D01*
X138710672Y-103022933D01*
X137847605Y-103886000D01*
X137488395Y-103886000D01*
X136625328Y-103022933D01*
X136374211Y-103102988D01*
X136246313Y-103370439D01*
X136173050Y-103657703D01*
X136157236Y-103953740D01*
X133323072Y-103953740D01*
X133323072Y-103630000D01*
X133310812Y-103505518D01*
X133310655Y-103505000D01*
X133310812Y-103504482D01*
X133323072Y-103380000D01*
X133323072Y-102843328D01*
X136804933Y-102843328D01*
X137668000Y-103706395D01*
X138531067Y-102843328D01*
X138451012Y-102592211D01*
X138183561Y-102464313D01*
X137896297Y-102391050D01*
X137600260Y-102375236D01*
X137306826Y-102417480D01*
X137027272Y-102516159D01*
X136884988Y-102592211D01*
X136804933Y-102843328D01*
X133323072Y-102843328D01*
X133323072Y-102830000D01*
X133310812Y-102705518D01*
X133310655Y-102705000D01*
X133310812Y-102704482D01*
X133323072Y-102580000D01*
X133323072Y-102030000D01*
X133310812Y-101905518D01*
X133310655Y-101905000D01*
X133310812Y-101904482D01*
X133323072Y-101780000D01*
X133323072Y-101230000D01*
X133310812Y-101105518D01*
X133310655Y-101105000D01*
X133310812Y-101104482D01*
X133323072Y-100980000D01*
X133323072Y-100430000D01*
X133310812Y-100305518D01*
X133274502Y-100185820D01*
X133215537Y-100075506D01*
X133136185Y-99978815D01*
X133039494Y-99899463D01*
X132929180Y-99840498D01*
X132809482Y-99804188D01*
X132685000Y-99791928D01*
X131348072Y-99791928D01*
X131348072Y-98455000D01*
X131335812Y-98330518D01*
X131299502Y-98210820D01*
X131240537Y-98100506D01*
X131161185Y-98003815D01*
X131064494Y-97924463D01*
X130954180Y-97865498D01*
X130834482Y-97829188D01*
X130710000Y-97816928D01*
X130395000Y-97816928D01*
X130395000Y-97807111D01*
X130449851Y-97790472D01*
X130603387Y-97708405D01*
X130737962Y-97597962D01*
X130743342Y-97591406D01*
X130808815Y-97671185D01*
X130905506Y-97750537D01*
X131015820Y-97809502D01*
X131135518Y-97845812D01*
X131260000Y-97858072D01*
X131549250Y-97855000D01*
X131708000Y-97696250D01*
X131708000Y-96647000D01*
X131962000Y-96647000D01*
X131962000Y-97696250D01*
X132120750Y-97855000D01*
X132410000Y-97858072D01*
X132534482Y-97845812D01*
X132654180Y-97809502D01*
X132764494Y-97750537D01*
X132861185Y-97671185D01*
X132940537Y-97574494D01*
X132999502Y-97464180D01*
X133035812Y-97344482D01*
X133048072Y-97220000D01*
X133045000Y-96805750D01*
X132886250Y-96647000D01*
X131962000Y-96647000D01*
X131708000Y-96647000D01*
X131688000Y-96647000D01*
X131688000Y-96393000D01*
X131708000Y-96393000D01*
X131708000Y-95343750D01*
X131962000Y-95343750D01*
X131962000Y-96393000D01*
X132886250Y-96393000D01*
X133045000Y-96234250D01*
X133048072Y-95820000D01*
X133035812Y-95695518D01*
X132999502Y-95575820D01*
X132940537Y-95465506D01*
X132861185Y-95368815D01*
X132764494Y-95289463D01*
X132654180Y-95230498D01*
X132534482Y-95194188D01*
X132410000Y-95181928D01*
X132120750Y-95185000D01*
X131962000Y-95343750D01*
X131708000Y-95343750D01*
X131549250Y-95185000D01*
X131260000Y-95181928D01*
X131135518Y-95194188D01*
X131015820Y-95230498D01*
X130905506Y-95289463D01*
X130808815Y-95368815D01*
X130743342Y-95448594D01*
X130737962Y-95442038D01*
X130603387Y-95331595D01*
X130449851Y-95249528D01*
X130283255Y-95198992D01*
X130110001Y-95181928D01*
X129459999Y-95181928D01*
X129286745Y-95198992D01*
X129120149Y-95249528D01*
X128966613Y-95331595D01*
X128832038Y-95442038D01*
X128721595Y-95576613D01*
X128639528Y-95730149D01*
X128630473Y-95760000D01*
X128544527Y-95760000D01*
X128535472Y-95730149D01*
X128453405Y-95576613D01*
X128342962Y-95442038D01*
X128208387Y-95331595D01*
X128054851Y-95249528D01*
X127888255Y-95198992D01*
X127715001Y-95181928D01*
X127064999Y-95181928D01*
X126891745Y-95198992D01*
X126725149Y-95249528D01*
X126571613Y-95331595D01*
X126437038Y-95442038D01*
X126431658Y-95448594D01*
X126366185Y-95368815D01*
X126269494Y-95289463D01*
X126159180Y-95230498D01*
X126039482Y-95194188D01*
X125915000Y-95181928D01*
X125625750Y-95185000D01*
X125467000Y-95343750D01*
X125467000Y-96393000D01*
X125487000Y-96393000D01*
X125487000Y-96647000D01*
X125467000Y-96647000D01*
X125467000Y-96667000D01*
X125213000Y-96667000D01*
X125213000Y-96647000D01*
X124288750Y-96647000D01*
X124142500Y-96793250D01*
X123996250Y-96647000D01*
X123072000Y-96647000D01*
X123072000Y-97696250D01*
X123230750Y-97855000D01*
X123520000Y-97858072D01*
X123644482Y-97845812D01*
X123764180Y-97809502D01*
X123874494Y-97750537D01*
X123971185Y-97671185D01*
X124050537Y-97574494D01*
X124109502Y-97464180D01*
X124142500Y-97355400D01*
X124175498Y-97464180D01*
X124234463Y-97574494D01*
X124313815Y-97671185D01*
X124410506Y-97750537D01*
X124520820Y-97809502D01*
X124548903Y-97818021D01*
X124435518Y-97829188D01*
X124315820Y-97865498D01*
X124205506Y-97924463D01*
X124108815Y-98003815D01*
X124029463Y-98100506D01*
X123970498Y-98210820D01*
X123934188Y-98330518D01*
X123921928Y-98455000D01*
X123921928Y-99791928D01*
X122934000Y-99791928D01*
X122934000Y-98462333D01*
X122937677Y-98425000D01*
X122923003Y-98276014D01*
X122879546Y-98132753D01*
X122808974Y-98000724D01*
X122737799Y-97913997D01*
X122714001Y-97884999D01*
X122685004Y-97861202D01*
X122669026Y-97845224D01*
X122818000Y-97696250D01*
X122818000Y-96647000D01*
X122798000Y-96647000D01*
X122798000Y-96393000D01*
X122818000Y-96393000D01*
X122818000Y-95343750D01*
X123072000Y-95343750D01*
X123072000Y-96393000D01*
X123996250Y-96393000D01*
X124142500Y-96246750D01*
X124288750Y-96393000D01*
X125213000Y-96393000D01*
X125213000Y-95343750D01*
X125054250Y-95185000D01*
X124765000Y-95181928D01*
X124640518Y-95194188D01*
X124520820Y-95230498D01*
X124410506Y-95289463D01*
X124313815Y-95368815D01*
X124234463Y-95465506D01*
X124175498Y-95575820D01*
X124142500Y-95684600D01*
X124109502Y-95575820D01*
X124050537Y-95465506D01*
X123971185Y-95368815D01*
X123874494Y-95289463D01*
X123764180Y-95230498D01*
X123644482Y-95194188D01*
X123520000Y-95181928D01*
X123230750Y-95185000D01*
X123072000Y-95343750D01*
X122818000Y-95343750D01*
X122659250Y-95185000D01*
X122370000Y-95181928D01*
X122245518Y-95194188D01*
X122125820Y-95230498D01*
X122015506Y-95289463D01*
X121918815Y-95368815D01*
X121853342Y-95448594D01*
X121847962Y-95442038D01*
X121713387Y-95331595D01*
X121559851Y-95249528D01*
X121393255Y-95198992D01*
X121220001Y-95181928D01*
X120569999Y-95181928D01*
X120396745Y-95198992D01*
X120230149Y-95249528D01*
X120076613Y-95331595D01*
X119942038Y-95442038D01*
X119831595Y-95576613D01*
X119749528Y-95730149D01*
X119740473Y-95760000D01*
X119654527Y-95760000D01*
X119645472Y-95730149D01*
X119563405Y-95576613D01*
X119452962Y-95442038D01*
X119318387Y-95331595D01*
X119164851Y-95249528D01*
X118998255Y-95198992D01*
X118825001Y-95181928D01*
X118174999Y-95181928D01*
X118001745Y-95198992D01*
X117835149Y-95249528D01*
X117681613Y-95331595D01*
X117547038Y-95442038D01*
X117475000Y-95529816D01*
X117402962Y-95442038D01*
X117268387Y-95331595D01*
X117114851Y-95249528D01*
X116948255Y-95198992D01*
X116775001Y-95181928D01*
X116124999Y-95181928D01*
X115951745Y-95198992D01*
X115785149Y-95249528D01*
X115631613Y-95331595D01*
X115497038Y-95442038D01*
X115386595Y-95576613D01*
X115304528Y-95730149D01*
X115253992Y-95896745D01*
X115236928Y-96069999D01*
X115236928Y-96970001D01*
X115253992Y-97143255D01*
X115300064Y-97295135D01*
X115214199Y-97381000D01*
X114343072Y-97381000D01*
X114343072Y-95291000D01*
X114330812Y-95166518D01*
X114294502Y-95046820D01*
X114235537Y-94936506D01*
X114156185Y-94839815D01*
X114059494Y-94760463D01*
X113949180Y-94701498D01*
X113829482Y-94665188D01*
X113705000Y-94652928D01*
X112105000Y-94652928D01*
X111980518Y-94665188D01*
X111936908Y-94678417D01*
X111930812Y-94616518D01*
X111894502Y-94496820D01*
X111835537Y-94386506D01*
X111756185Y-94289815D01*
X111659494Y-94210463D01*
X111549180Y-94151498D01*
X111429482Y-94115188D01*
X111305000Y-94102928D01*
X109405000Y-94102928D01*
X109280518Y-94115188D01*
X109160820Y-94151498D01*
X109050506Y-94210463D01*
X108953815Y-94289815D01*
X108874463Y-94386506D01*
X108815498Y-94496820D01*
X108779188Y-94616518D01*
X108766928Y-94741000D01*
X108766928Y-96541000D01*
X108779188Y-96665482D01*
X108815498Y-96785180D01*
X108874463Y-96895494D01*
X108891292Y-96916000D01*
X108874463Y-96936506D01*
X108815498Y-97046820D01*
X108779188Y-97166518D01*
X108766928Y-97291000D01*
X108766928Y-99191000D01*
X108779188Y-99315482D01*
X108815498Y-99435180D01*
X108818609Y-99441000D01*
X108815498Y-99446820D01*
X108779188Y-99566518D01*
X108766928Y-99691000D01*
X108766928Y-101591000D01*
X108779188Y-101715482D01*
X108815498Y-101835180D01*
X108874463Y-101945494D01*
X108891292Y-101966000D01*
X108874463Y-101986506D01*
X108815498Y-102096820D01*
X108779188Y-102216518D01*
X108766928Y-102341000D01*
X108766928Y-104141000D01*
X108779188Y-104265482D01*
X108815498Y-104385180D01*
X108874463Y-104495494D01*
X108953815Y-104592185D01*
X109050506Y-104671537D01*
X109160820Y-104730502D01*
X109280518Y-104766812D01*
X109405000Y-104779072D01*
X111305000Y-104779072D01*
X111429482Y-104766812D01*
X111549180Y-104730502D01*
X111659494Y-104671537D01*
X111756185Y-104592185D01*
X111835537Y-104495494D01*
X111894502Y-104385180D01*
X111930812Y-104265482D01*
X111936908Y-104203583D01*
X111980518Y-104216812D01*
X112105000Y-104229072D01*
X113286000Y-104229072D01*
X113286000Y-104732386D01*
X113277440Y-104734089D01*
X113125479Y-104797033D01*
X112988719Y-104888413D01*
X112872413Y-105004719D01*
X112781033Y-105141479D01*
X112718089Y-105293440D01*
X112686000Y-105454760D01*
X112686000Y-105619240D01*
X112718089Y-105780560D01*
X112761000Y-105884157D01*
X112761001Y-110003668D01*
X112757324Y-110041000D01*
X112761001Y-110078333D01*
X112764022Y-110109000D01*
X112771998Y-110189985D01*
X112815454Y-110333246D01*
X112886026Y-110465276D01*
X112938704Y-110529463D01*
X112981000Y-110581001D01*
X113009998Y-110604799D01*
X114601928Y-112196730D01*
X114601928Y-112210001D01*
X114618992Y-112383255D01*
X114669528Y-112549851D01*
X114751595Y-112703387D01*
X114862038Y-112837962D01*
X114996613Y-112948405D01*
X115150149Y-113030472D01*
X115316745Y-113081008D01*
X115366064Y-113085866D01*
X116456201Y-114176003D01*
X116479999Y-114205001D01*
X116595724Y-114299974D01*
X116727753Y-114370546D01*
X116871014Y-114414003D01*
X116982667Y-114425000D01*
X116982676Y-114425000D01*
X117019999Y-114428676D01*
X117057322Y-114425000D01*
X120265199Y-114425000D01*
X119811064Y-114879134D01*
X119761745Y-114883992D01*
X119595149Y-114934528D01*
X119441613Y-115016595D01*
X119307038Y-115127038D01*
X119196595Y-115261613D01*
X119114528Y-115415149D01*
X119077841Y-115536089D01*
X119078072Y-115505000D01*
X119065812Y-115380518D01*
X119029502Y-115260820D01*
X118970537Y-115150506D01*
X118891185Y-115053815D01*
X118794494Y-114974463D01*
X118684180Y-114915498D01*
X118564482Y-114879188D01*
X118440000Y-114866928D01*
X118150750Y-114870000D01*
X117992000Y-115028750D01*
X117992000Y-116078000D01*
X118012000Y-116078000D01*
X118012000Y-116332000D01*
X117992000Y-116332000D01*
X117992000Y-116352000D01*
X117738000Y-116352000D01*
X117738000Y-116332000D01*
X117718000Y-116332000D01*
X117718000Y-116078000D01*
X117738000Y-116078000D01*
X117738000Y-115028750D01*
X117579250Y-114870000D01*
X117290000Y-114866928D01*
X117165518Y-114879188D01*
X117045820Y-114915498D01*
X116935506Y-114974463D01*
X116838815Y-115053815D01*
X116773342Y-115133594D01*
X116767962Y-115127038D01*
X116633387Y-115016595D01*
X116479851Y-114934528D01*
X116313255Y-114883992D01*
X116140001Y-114866928D01*
X115489999Y-114866928D01*
X115316745Y-114883992D01*
X115150149Y-114934528D01*
X114996613Y-115016595D01*
X114862038Y-115127038D01*
X114751595Y-115261613D01*
X114746738Y-115270700D01*
X114749072Y-115247000D01*
X114746000Y-114957750D01*
X114587250Y-114799000D01*
X113538000Y-114799000D01*
X113538000Y-114819000D01*
X113284000Y-114819000D01*
X113284000Y-114799000D01*
X112234750Y-114799000D01*
X112076000Y-114957750D01*
X112075428Y-115011626D01*
X111160802Y-114097000D01*
X112072928Y-114097000D01*
X112076000Y-114386250D01*
X112234750Y-114545000D01*
X113284000Y-114545000D01*
X113284000Y-113620750D01*
X113538000Y-113620750D01*
X113538000Y-114545000D01*
X114587250Y-114545000D01*
X114746000Y-114386250D01*
X114749072Y-114097000D01*
X114736812Y-113972518D01*
X114700502Y-113852820D01*
X114641537Y-113742506D01*
X114562185Y-113645815D01*
X114465494Y-113566463D01*
X114355180Y-113507498D01*
X114235482Y-113471188D01*
X114111000Y-113458928D01*
X113696750Y-113462000D01*
X113538000Y-113620750D01*
X113284000Y-113620750D01*
X113125250Y-113462000D01*
X112711000Y-113458928D01*
X112586518Y-113471188D01*
X112466820Y-113507498D01*
X112356506Y-113566463D01*
X112259815Y-113645815D01*
X112180463Y-113742506D01*
X112121498Y-113852820D01*
X112085188Y-113972518D01*
X112072928Y-114097000D01*
X111160802Y-114097000D01*
X110488000Y-113424199D01*
X110488000Y-112238283D01*
X110521255Y-112235008D01*
X110687851Y-112184472D01*
X110841387Y-112102405D01*
X110975962Y-111991962D01*
X111086405Y-111857387D01*
X111168472Y-111703851D01*
X111219008Y-111537255D01*
X111236072Y-111364001D01*
X111236072Y-110123999D01*
X111219008Y-109950745D01*
X111168472Y-109784149D01*
X111086405Y-109630613D01*
X110975962Y-109496038D01*
X110841387Y-109385595D01*
X110687851Y-109303528D01*
X110583074Y-109271744D01*
X110591067Y-109246672D01*
X109728000Y-108383605D01*
X108864933Y-109246672D01*
X108872926Y-109271744D01*
X108768149Y-109303528D01*
X108614613Y-109385595D01*
X108480038Y-109496038D01*
X108369595Y-109630613D01*
X108287528Y-109784149D01*
X108236992Y-109950745D01*
X108219928Y-110123999D01*
X108219928Y-111364001D01*
X108236992Y-111537255D01*
X108287528Y-111703851D01*
X108369595Y-111857387D01*
X108480038Y-111991962D01*
X108614613Y-112102405D01*
X108768149Y-112184472D01*
X108934745Y-112235008D01*
X108968000Y-112238283D01*
X108968001Y-113701668D01*
X108964324Y-113739000D01*
X108968001Y-113776333D01*
X108971710Y-113813985D01*
X108978998Y-113887985D01*
X109022454Y-114031246D01*
X109093026Y-114163276D01*
X109146800Y-114228799D01*
X109188000Y-114279001D01*
X109216998Y-114302799D01*
X112085135Y-117170937D01*
X112089992Y-117220255D01*
X112140528Y-117386851D01*
X112222595Y-117540387D01*
X112333038Y-117674962D01*
X112467613Y-117785405D01*
X112621149Y-117867472D01*
X112787745Y-117918008D01*
X112960999Y-117935072D01*
X113861001Y-117935072D01*
X114034255Y-117918008D01*
X114200851Y-117867472D01*
X114354387Y-117785405D01*
X114488962Y-117674962D01*
X114599405Y-117540387D01*
X114681472Y-117386851D01*
X114732008Y-117220255D01*
X114741033Y-117128626D01*
X114751595Y-117148387D01*
X114862038Y-117282962D01*
X114996613Y-117393405D01*
X115150149Y-117475472D01*
X115316745Y-117526008D01*
X115337359Y-117528038D01*
X115819721Y-118145223D01*
X115824026Y-118153276D01*
X115865756Y-118204124D01*
X115883179Y-118226417D01*
X115889443Y-118232987D01*
X115918999Y-118269001D01*
X115940978Y-118287038D01*
X115960598Y-118307617D01*
X115998711Y-118334419D01*
X116034724Y-118363974D01*
X116059797Y-118377376D01*
X116083057Y-118393733D01*
X116125660Y-118412581D01*
X116166753Y-118434546D01*
X116193970Y-118442802D01*
X116219964Y-118454302D01*
X116265416Y-118464475D01*
X116310014Y-118478003D01*
X116338318Y-118480791D01*
X116366057Y-118486999D01*
X116412622Y-118488109D01*
X116421667Y-118489000D01*
X116449991Y-118489000D01*
X116515721Y-118490567D01*
X116524714Y-118489000D01*
X121026922Y-118489000D01*
X121097496Y-118489776D01*
X121138480Y-118482091D01*
X121179986Y-118478003D01*
X121211885Y-118468327D01*
X121244639Y-118462185D01*
X121283333Y-118446654D01*
X121323247Y-118434546D01*
X121352644Y-118418833D01*
X121383571Y-118406419D01*
X121418496Y-118383634D01*
X121455276Y-118363974D01*
X121481044Y-118342827D01*
X121508954Y-118324618D01*
X121538758Y-118295462D01*
X121571001Y-118269001D01*
X121615852Y-118214350D01*
X122179215Y-117543072D01*
X122635001Y-117543072D01*
X122808255Y-117526008D01*
X122974851Y-117475472D01*
X123128387Y-117393405D01*
X123262962Y-117282962D01*
X123373405Y-117148387D01*
X123455472Y-116994851D01*
X123498395Y-116853351D01*
X123530498Y-116959180D01*
X123589463Y-117069494D01*
X123668815Y-117166185D01*
X123765042Y-117245156D01*
X123153358Y-117856841D01*
X123052560Y-117815089D01*
X122891240Y-117783000D01*
X122726760Y-117783000D01*
X122565440Y-117815089D01*
X122413479Y-117878033D01*
X122276719Y-117969413D01*
X122160413Y-118085719D01*
X122069033Y-118222479D01*
X122006089Y-118374440D01*
X121974000Y-118535760D01*
X121974000Y-118700240D01*
X122006089Y-118861560D01*
X122069033Y-119013521D01*
X122127485Y-119101000D01*
X107061000Y-119101000D01*
X107061000Y-108271740D01*
X108217236Y-108271740D01*
X108259480Y-108565174D01*
X108358159Y-108844728D01*
X108434211Y-108987012D01*
X108685328Y-109067067D01*
X109548395Y-108204000D01*
X109907605Y-108204000D01*
X110770672Y-109067067D01*
X111021789Y-108987012D01*
X111149687Y-108719561D01*
X111222950Y-108432297D01*
X111238764Y-108136260D01*
X111196520Y-107842826D01*
X111097841Y-107563272D01*
X111021789Y-107420988D01*
X110770672Y-107340933D01*
X109907605Y-108204000D01*
X109548395Y-108204000D01*
X108685328Y-107340933D01*
X108434211Y-107420988D01*
X108306313Y-107688439D01*
X108233050Y-107975703D01*
X108217236Y-108271740D01*
X107061000Y-108271740D01*
X107061000Y-107161328D01*
X108864933Y-107161328D01*
X109728000Y-108024395D01*
X110591067Y-107161328D01*
X110511012Y-106910211D01*
X110243561Y-106782313D01*
X109956297Y-106709050D01*
X109660260Y-106693236D01*
X109366826Y-106735480D01*
X109087272Y-106834159D01*
X108944988Y-106910211D01*
X108864933Y-107161328D01*
X107061000Y-107161328D01*
X107061000Y-93878000D01*
X131003158Y-93878000D01*
X131007239Y-93878759D01*
X131068033Y-93878000D01*
X131096419Y-93878000D01*
X131100540Y-93877594D01*
X131137237Y-93877136D01*
X131165062Y-93871239D01*
X131193383Y-93868450D01*
X131228519Y-93857791D01*
X131264421Y-93850183D01*
X131290562Y-93838971D01*
X131317793Y-93830710D01*
X131350178Y-93813400D01*
X131383902Y-93798935D01*
X131407350Y-93782841D01*
X131432450Y-93769425D01*
X131460829Y-93746135D01*
X131491091Y-93725364D01*
X131510956Y-93704996D01*
X131532948Y-93686948D01*
X131556239Y-93658568D01*
X131559121Y-93655613D01*
X131576794Y-93633522D01*
X131615425Y-93586450D01*
X131617385Y-93582783D01*
X132159819Y-92904740D01*
X136157236Y-92904740D01*
X136199480Y-93198174D01*
X136298159Y-93477728D01*
X136374211Y-93620012D01*
X136625328Y-93700067D01*
X137488395Y-92837000D01*
X137847605Y-92837000D01*
X138710672Y-93700067D01*
X138961789Y-93620012D01*
X139089687Y-93352561D01*
X139162950Y-93065297D01*
X139178764Y-92769260D01*
X139136520Y-92475826D01*
X139037841Y-92196272D01*
X138961789Y-92053988D01*
X138710672Y-91973933D01*
X137847605Y-92837000D01*
X137488395Y-92837000D01*
X136625328Y-91973933D01*
X136374211Y-92053988D01*
X136246313Y-92321439D01*
X136173050Y-92608703D01*
X136157236Y-92904740D01*
X132159819Y-92904740D01*
X133048149Y-91794328D01*
X136804933Y-91794328D01*
X137668000Y-92657395D01*
X138531067Y-91794328D01*
X138451012Y-91543211D01*
X138183561Y-91415313D01*
X137896297Y-91342050D01*
X137600260Y-91326236D01*
X137306826Y-91368480D01*
X137027272Y-91467159D01*
X136884988Y-91543211D01*
X136804933Y-91794328D01*
X133048149Y-91794328D01*
X134937213Y-89433000D01*
X140082476Y-89433000D01*
X140121504Y-100165702D01*
G36*
X136498990Y-107385382D02*
G01*
X136663175Y-107549567D01*
X136554613Y-107607595D01*
X136420038Y-107718038D01*
X136309595Y-107852613D01*
X136227528Y-108006149D01*
X136176992Y-108172745D01*
X136159928Y-108345999D01*
X136159928Y-109586001D01*
X136176992Y-109759255D01*
X136227528Y-109925851D01*
X136309595Y-110079387D01*
X136420038Y-110213962D01*
X136554613Y-110324405D01*
X136708149Y-110406472D01*
X136874745Y-110457008D01*
X137047999Y-110474072D01*
X138288001Y-110474072D01*
X138461255Y-110457008D01*
X138627851Y-110406472D01*
X138781387Y-110324405D01*
X138803476Y-110306277D01*
X139829000Y-111331802D01*
X139829001Y-117649197D01*
X138803476Y-118674723D01*
X138781387Y-118656595D01*
X138672825Y-118598567D01*
X138837010Y-118434382D01*
X139001714Y-118187885D01*
X139115164Y-117913992D01*
X139173000Y-117623230D01*
X139173000Y-117326770D01*
X139115164Y-117036008D01*
X139001714Y-116762115D01*
X138837010Y-116515618D01*
X138627382Y-116305990D01*
X138461694Y-116195281D01*
X138531067Y-115977672D01*
X137668000Y-115114605D01*
X136804933Y-115977672D01*
X136874306Y-116195281D01*
X136708618Y-116305990D01*
X136498990Y-116515618D01*
X136426795Y-116623665D01*
X135380000Y-116111682D01*
X135380000Y-115002740D01*
X136157236Y-115002740D01*
X136199480Y-115296174D01*
X136298159Y-115575728D01*
X136374211Y-115718012D01*
X136625328Y-115798067D01*
X137488395Y-114935000D01*
X137847605Y-114935000D01*
X138710672Y-115798067D01*
X138961789Y-115718012D01*
X139089687Y-115450561D01*
X139162950Y-115163297D01*
X139178764Y-114867260D01*
X139136520Y-114573826D01*
X139037841Y-114294272D01*
X138961789Y-114151988D01*
X138710672Y-114071933D01*
X137847605Y-114935000D01*
X137488395Y-114935000D01*
X136625328Y-114071933D01*
X136374211Y-114151988D01*
X136246313Y-114419439D01*
X136173050Y-114706703D01*
X136157236Y-115002740D01*
X135380000Y-115002740D01*
X135380000Y-113892328D01*
X136804933Y-113892328D01*
X137668000Y-114755395D01*
X138531067Y-113892328D01*
X138451012Y-113641211D01*
X138183561Y-113513313D01*
X137896297Y-113440050D01*
X137600260Y-113424236D01*
X137306826Y-113466480D01*
X137027272Y-113565159D01*
X136884988Y-113641211D01*
X136804933Y-113892328D01*
X135380000Y-113892328D01*
X135380000Y-108297157D01*
X135422911Y-108193560D01*
X135455000Y-108032240D01*
X135455000Y-107867760D01*
X135422911Y-107706440D01*
X135359967Y-107554479D01*
X135268587Y-107417719D01*
X135152281Y-107301413D01*
X135015521Y-107210033D01*
X134957500Y-107186000D01*
X136365767Y-107186000D01*
X136498990Y-107385382D01*
G37*
X136498990Y-107385382D02*
X136663175Y-107549567D01*
X136554613Y-107607595D01*
X136420038Y-107718038D01*
X136309595Y-107852613D01*
X136227528Y-108006149D01*
X136176992Y-108172745D01*
X136159928Y-108345999D01*
X136159928Y-109586001D01*
X136176992Y-109759255D01*
X136227528Y-109925851D01*
X136309595Y-110079387D01*
X136420038Y-110213962D01*
X136554613Y-110324405D01*
X136708149Y-110406472D01*
X136874745Y-110457008D01*
X137047999Y-110474072D01*
X138288001Y-110474072D01*
X138461255Y-110457008D01*
X138627851Y-110406472D01*
X138781387Y-110324405D01*
X138803476Y-110306277D01*
X139829000Y-111331802D01*
X139829001Y-117649197D01*
X138803476Y-118674723D01*
X138781387Y-118656595D01*
X138672825Y-118598567D01*
X138837010Y-118434382D01*
X139001714Y-118187885D01*
X139115164Y-117913992D01*
X139173000Y-117623230D01*
X139173000Y-117326770D01*
X139115164Y-117036008D01*
X139001714Y-116762115D01*
X138837010Y-116515618D01*
X138627382Y-116305990D01*
X138461694Y-116195281D01*
X138531067Y-115977672D01*
X137668000Y-115114605D01*
X136804933Y-115977672D01*
X136874306Y-116195281D01*
X136708618Y-116305990D01*
X136498990Y-116515618D01*
X136426795Y-116623665D01*
X135380000Y-116111682D01*
X135380000Y-115002740D01*
X136157236Y-115002740D01*
X136199480Y-115296174D01*
X136298159Y-115575728D01*
X136374211Y-115718012D01*
X136625328Y-115798067D01*
X137488395Y-114935000D01*
X137847605Y-114935000D01*
X138710672Y-115798067D01*
X138961789Y-115718012D01*
X139089687Y-115450561D01*
X139162950Y-115163297D01*
X139178764Y-114867260D01*
X139136520Y-114573826D01*
X139037841Y-114294272D01*
X138961789Y-114151988D01*
X138710672Y-114071933D01*
X137847605Y-114935000D01*
X137488395Y-114935000D01*
X136625328Y-114071933D01*
X136374211Y-114151988D01*
X136246313Y-114419439D01*
X136173050Y-114706703D01*
X136157236Y-115002740D01*
X135380000Y-115002740D01*
X135380000Y-113892328D01*
X136804933Y-113892328D01*
X137668000Y-114755395D01*
X138531067Y-113892328D01*
X138451012Y-113641211D01*
X138183561Y-113513313D01*
X137896297Y-113440050D01*
X137600260Y-113424236D01*
X137306826Y-113466480D01*
X137027272Y-113565159D01*
X136884988Y-113641211D01*
X136804933Y-113892328D01*
X135380000Y-113892328D01*
X135380000Y-108297157D01*
X135422911Y-108193560D01*
X135455000Y-108032240D01*
X135455000Y-107867760D01*
X135422911Y-107706440D01*
X135359967Y-107554479D01*
X135268587Y-107417719D01*
X135152281Y-107301413D01*
X135015521Y-107210033D01*
X134957500Y-107186000D01*
X136365767Y-107186000D01*
X136498990Y-107385382D01*
G36*
X120625719Y-105042587D02*
G01*
X120762479Y-105133967D01*
X120866077Y-105176879D01*
X121705200Y-106016002D01*
X121728999Y-106045001D01*
X121844724Y-106139974D01*
X121946928Y-106194604D01*
X121946928Y-106580000D01*
X121959188Y-106704482D01*
X121995498Y-106824180D01*
X122054463Y-106934494D01*
X122133815Y-107031185D01*
X122230506Y-107110537D01*
X122340820Y-107169502D01*
X122460518Y-107205812D01*
X122585000Y-107218072D01*
X123921928Y-107218072D01*
X123921928Y-108555000D01*
X123934188Y-108679482D01*
X123970498Y-108799180D01*
X124029463Y-108909494D01*
X124108815Y-109006185D01*
X124205506Y-109085537D01*
X124315820Y-109144502D01*
X124435518Y-109180812D01*
X124560000Y-109193072D01*
X125110000Y-109193072D01*
X125234482Y-109180812D01*
X125235000Y-109180655D01*
X125235518Y-109180812D01*
X125360000Y-109193072D01*
X125910000Y-109193072D01*
X126034482Y-109180812D01*
X126035663Y-109180454D01*
X126149250Y-109190000D01*
X126241333Y-109097917D01*
X126264494Y-109085537D01*
X126361185Y-109006185D01*
X126435000Y-108916241D01*
X126475000Y-108964981D01*
X126475000Y-109582667D01*
X126471323Y-109620000D01*
X126475001Y-109657343D01*
X126475001Y-110084879D01*
X126474494Y-110084463D01*
X126364180Y-110025498D01*
X126244482Y-109989188D01*
X126120000Y-109976928D01*
X124120000Y-109976928D01*
X123995518Y-109989188D01*
X123875820Y-110025498D01*
X123765506Y-110084463D01*
X123668815Y-110163815D01*
X123589463Y-110260506D01*
X123530498Y-110370820D01*
X123494188Y-110490518D01*
X123481928Y-110615000D01*
X123481928Y-111057363D01*
X123455472Y-110970149D01*
X123373405Y-110816613D01*
X123262962Y-110682038D01*
X123128387Y-110571595D01*
X122974851Y-110489528D01*
X122808255Y-110438992D01*
X122635001Y-110421928D01*
X121984999Y-110421928D01*
X121811745Y-110438992D01*
X121645149Y-110489528D01*
X121491613Y-110571595D01*
X121357038Y-110682038D01*
X121351658Y-110688594D01*
X121286185Y-110608815D01*
X121189494Y-110529463D01*
X121079180Y-110470498D01*
X120959482Y-110434188D01*
X120835000Y-110421928D01*
X120545750Y-110425000D01*
X120387000Y-110583750D01*
X120387000Y-111633000D01*
X120407000Y-111633000D01*
X120407000Y-111887000D01*
X120387000Y-111887000D01*
X120387000Y-111907000D01*
X120133000Y-111907000D01*
X120133000Y-111887000D01*
X119208750Y-111887000D01*
X119062500Y-112033250D01*
X118916250Y-111887000D01*
X117992000Y-111887000D01*
X117992000Y-111907000D01*
X117738000Y-111907000D01*
X117738000Y-111887000D01*
X117718000Y-111887000D01*
X117718000Y-111633000D01*
X117738000Y-111633000D01*
X117738000Y-111613000D01*
X117992000Y-111613000D01*
X117992000Y-111633000D01*
X118916250Y-111633000D01*
X119062500Y-111486750D01*
X119208750Y-111633000D01*
X120133000Y-111633000D01*
X120133000Y-110583750D01*
X119974250Y-110425000D01*
X119685000Y-110421928D01*
X119560518Y-110434188D01*
X119474528Y-110460273D01*
X119720998Y-110213803D01*
X119750001Y-110190001D01*
X119810031Y-110116854D01*
X119844974Y-110074277D01*
X119864326Y-110038072D01*
X119910000Y-110038072D01*
X120034482Y-110025812D01*
X120154180Y-109989502D01*
X120264494Y-109930537D01*
X120361185Y-109851185D01*
X120440537Y-109754494D01*
X120499502Y-109644180D01*
X120535812Y-109524482D01*
X120548072Y-109400000D01*
X120548072Y-108400000D01*
X120535812Y-108275518D01*
X120499502Y-108155820D01*
X120440537Y-108045506D01*
X120362158Y-107950000D01*
X120440537Y-107854494D01*
X120499502Y-107744180D01*
X120535812Y-107624482D01*
X120548072Y-107500000D01*
X120548072Y-106500000D01*
X120535812Y-106375518D01*
X120499502Y-106255820D01*
X120440537Y-106145506D01*
X120361185Y-106048815D01*
X120264494Y-105969463D01*
X120154180Y-105910498D01*
X120034482Y-105874188D01*
X119910000Y-105861928D01*
X119864326Y-105861928D01*
X119844974Y-105825724D01*
X119807909Y-105780560D01*
X119773799Y-105738996D01*
X119773795Y-105738992D01*
X119750001Y-105709999D01*
X119721008Y-105686205D01*
X119569803Y-105535000D01*
X119701254Y-105535000D01*
X119716156Y-105537358D01*
X119775951Y-105535000D01*
X119798333Y-105535000D01*
X119813278Y-105533528D01*
X119865745Y-105531459D01*
X119887606Y-105526207D01*
X119909986Y-105524003D01*
X119960254Y-105508755D01*
X120011311Y-105496489D01*
X120031723Y-105487075D01*
X120053247Y-105480546D01*
X120099583Y-105455778D01*
X120147256Y-105433792D01*
X120165439Y-105420577D01*
X120185276Y-105409974D01*
X120225884Y-105376648D01*
X120238013Y-105367833D01*
X120254713Y-105352988D01*
X120301001Y-105315001D01*
X120310580Y-105303329D01*
X120615458Y-105032326D01*
X120625719Y-105042587D01*
G37*
X120625719Y-105042587D02*
X120762479Y-105133967D01*
X120866077Y-105176879D01*
X121705200Y-106016002D01*
X121728999Y-106045001D01*
X121844724Y-106139974D01*
X121946928Y-106194604D01*
X121946928Y-106580000D01*
X121959188Y-106704482D01*
X121995498Y-106824180D01*
X122054463Y-106934494D01*
X122133815Y-107031185D01*
X122230506Y-107110537D01*
X122340820Y-107169502D01*
X122460518Y-107205812D01*
X122585000Y-107218072D01*
X123921928Y-107218072D01*
X123921928Y-108555000D01*
X123934188Y-108679482D01*
X123970498Y-108799180D01*
X124029463Y-108909494D01*
X124108815Y-109006185D01*
X124205506Y-109085537D01*
X124315820Y-109144502D01*
X124435518Y-109180812D01*
X124560000Y-109193072D01*
X125110000Y-109193072D01*
X125234482Y-109180812D01*
X125235000Y-109180655D01*
X125235518Y-109180812D01*
X125360000Y-109193072D01*
X125910000Y-109193072D01*
X126034482Y-109180812D01*
X126035663Y-109180454D01*
X126149250Y-109190000D01*
X126241333Y-109097917D01*
X126264494Y-109085537D01*
X126361185Y-109006185D01*
X126435000Y-108916241D01*
X126475000Y-108964981D01*
X126475000Y-109582667D01*
X126471323Y-109620000D01*
X126475001Y-109657343D01*
X126475001Y-110084879D01*
X126474494Y-110084463D01*
X126364180Y-110025498D01*
X126244482Y-109989188D01*
X126120000Y-109976928D01*
X124120000Y-109976928D01*
X123995518Y-109989188D01*
X123875820Y-110025498D01*
X123765506Y-110084463D01*
X123668815Y-110163815D01*
X123589463Y-110260506D01*
X123530498Y-110370820D01*
X123494188Y-110490518D01*
X123481928Y-110615000D01*
X123481928Y-111057363D01*
X123455472Y-110970149D01*
X123373405Y-110816613D01*
X123262962Y-110682038D01*
X123128387Y-110571595D01*
X122974851Y-110489528D01*
X122808255Y-110438992D01*
X122635001Y-110421928D01*
X121984999Y-110421928D01*
X121811745Y-110438992D01*
X121645149Y-110489528D01*
X121491613Y-110571595D01*
X121357038Y-110682038D01*
X121351658Y-110688594D01*
X121286185Y-110608815D01*
X121189494Y-110529463D01*
X121079180Y-110470498D01*
X120959482Y-110434188D01*
X120835000Y-110421928D01*
X120545750Y-110425000D01*
X120387000Y-110583750D01*
X120387000Y-111633000D01*
X120407000Y-111633000D01*
X120407000Y-111887000D01*
X120387000Y-111887000D01*
X120387000Y-111907000D01*
X120133000Y-111907000D01*
X120133000Y-111887000D01*
X119208750Y-111887000D01*
X119062500Y-112033250D01*
X118916250Y-111887000D01*
X117992000Y-111887000D01*
X117992000Y-111907000D01*
X117738000Y-111907000D01*
X117738000Y-111887000D01*
X117718000Y-111887000D01*
X117718000Y-111633000D01*
X117738000Y-111633000D01*
X117738000Y-111613000D01*
X117992000Y-111613000D01*
X117992000Y-111633000D01*
X118916250Y-111633000D01*
X119062500Y-111486750D01*
X119208750Y-111633000D01*
X120133000Y-111633000D01*
X120133000Y-110583750D01*
X119974250Y-110425000D01*
X119685000Y-110421928D01*
X119560518Y-110434188D01*
X119474528Y-110460273D01*
X119720998Y-110213803D01*
X119750001Y-110190001D01*
X119810031Y-110116854D01*
X119844974Y-110074277D01*
X119864326Y-110038072D01*
X119910000Y-110038072D01*
X120034482Y-110025812D01*
X120154180Y-109989502D01*
X120264494Y-109930537D01*
X120361185Y-109851185D01*
X120440537Y-109754494D01*
X120499502Y-109644180D01*
X120535812Y-109524482D01*
X120548072Y-109400000D01*
X120548072Y-108400000D01*
X120535812Y-108275518D01*
X120499502Y-108155820D01*
X120440537Y-108045506D01*
X120362158Y-107950000D01*
X120440537Y-107854494D01*
X120499502Y-107744180D01*
X120535812Y-107624482D01*
X120548072Y-107500000D01*
X120548072Y-106500000D01*
X120535812Y-106375518D01*
X120499502Y-106255820D01*
X120440537Y-106145506D01*
X120361185Y-106048815D01*
X120264494Y-105969463D01*
X120154180Y-105910498D01*
X120034482Y-105874188D01*
X119910000Y-105861928D01*
X119864326Y-105861928D01*
X119844974Y-105825724D01*
X119807909Y-105780560D01*
X119773799Y-105738996D01*
X119773795Y-105738992D01*
X119750001Y-105709999D01*
X119721008Y-105686205D01*
X119569803Y-105535000D01*
X119701254Y-105535000D01*
X119716156Y-105537358D01*
X119775951Y-105535000D01*
X119798333Y-105535000D01*
X119813278Y-105533528D01*
X119865745Y-105531459D01*
X119887606Y-105526207D01*
X119909986Y-105524003D01*
X119960254Y-105508755D01*
X120011311Y-105496489D01*
X120031723Y-105487075D01*
X120053247Y-105480546D01*
X120099583Y-105455778D01*
X120147256Y-105433792D01*
X120165439Y-105420577D01*
X120185276Y-105409974D01*
X120225884Y-105376648D01*
X120238013Y-105367833D01*
X120254713Y-105352988D01*
X120301001Y-105315001D01*
X120310580Y-105303329D01*
X120615458Y-105032326D01*
X120625719Y-105042587D01*
G36*
X115545719Y-104661587D02*
G01*
X115682479Y-104752967D01*
X115834440Y-104815911D01*
X115995760Y-104848000D01*
X116131015Y-104848000D01*
X116153159Y-104921000D01*
X116154454Y-104925268D01*
X116225026Y-105057298D01*
X116253740Y-105092286D01*
X116319999Y-105173023D01*
X116349002Y-105196825D01*
X117073179Y-105921002D01*
X117096977Y-105950001D01*
X117203405Y-106037345D01*
X117137000Y-106103750D01*
X117137000Y-107053000D01*
X117157000Y-107053000D01*
X117157000Y-107307000D01*
X117137000Y-107307000D01*
X117137000Y-107327000D01*
X116883000Y-107327000D01*
X116883000Y-107307000D01*
X115833750Y-107307000D01*
X115687776Y-107452974D01*
X115261335Y-107026533D01*
X115329587Y-106958281D01*
X115420967Y-106821521D01*
X115483911Y-106669560D01*
X115501725Y-106580000D01*
X115671928Y-106580000D01*
X115675000Y-106894250D01*
X115833750Y-107053000D01*
X116883000Y-107053000D01*
X116883000Y-106103750D01*
X116724250Y-105945000D01*
X116310000Y-105941928D01*
X116185518Y-105954188D01*
X116065820Y-105990498D01*
X115955506Y-106049463D01*
X115858815Y-106128815D01*
X115779463Y-106225506D01*
X115720498Y-106335820D01*
X115684188Y-106455518D01*
X115671928Y-106580000D01*
X115501725Y-106580000D01*
X115516000Y-106508240D01*
X115516000Y-106343760D01*
X115483911Y-106182440D01*
X115441000Y-106078843D01*
X115441000Y-104585494D01*
X115464877Y-104580745D01*
X115545719Y-104661587D01*
G37*
X115545719Y-104661587D02*
X115682479Y-104752967D01*
X115834440Y-104815911D01*
X115995760Y-104848000D01*
X116131015Y-104848000D01*
X116153159Y-104921000D01*
X116154454Y-104925268D01*
X116225026Y-105057298D01*
X116253740Y-105092286D01*
X116319999Y-105173023D01*
X116349002Y-105196825D01*
X117073179Y-105921002D01*
X117096977Y-105950001D01*
X117203405Y-106037345D01*
X117137000Y-106103750D01*
X117137000Y-107053000D01*
X117157000Y-107053000D01*
X117157000Y-107307000D01*
X117137000Y-107307000D01*
X117137000Y-107327000D01*
X116883000Y-107327000D01*
X116883000Y-107307000D01*
X115833750Y-107307000D01*
X115687776Y-107452974D01*
X115261335Y-107026533D01*
X115329587Y-106958281D01*
X115420967Y-106821521D01*
X115483911Y-106669560D01*
X115501725Y-106580000D01*
X115671928Y-106580000D01*
X115675000Y-106894250D01*
X115833750Y-107053000D01*
X116883000Y-107053000D01*
X116883000Y-106103750D01*
X116724250Y-105945000D01*
X116310000Y-105941928D01*
X116185518Y-105954188D01*
X116065820Y-105990498D01*
X115955506Y-106049463D01*
X115858815Y-106128815D01*
X115779463Y-106225506D01*
X115720498Y-106335820D01*
X115684188Y-106455518D01*
X115671928Y-106580000D01*
X115501725Y-106580000D01*
X115516000Y-106508240D01*
X115516000Y-106343760D01*
X115483911Y-106182440D01*
X115441000Y-106078843D01*
X115441000Y-104585494D01*
X115464877Y-104580745D01*
X115545719Y-104661587D01*
G36*
X127308815Y-100406185D02*
G01*
X127405506Y-100485537D01*
X127428667Y-100497917D01*
X127520750Y-100590000D01*
X127634337Y-100580454D01*
X127635518Y-100580812D01*
X127760000Y-100593072D01*
X128310000Y-100593072D01*
X128434482Y-100580812D01*
X128435000Y-100580655D01*
X128435518Y-100580812D01*
X128560000Y-100593072D01*
X128875001Y-100593072D01*
X128875000Y-105690198D01*
X128323998Y-106241201D01*
X128295000Y-106264999D01*
X128271202Y-106293997D01*
X128271201Y-106293998D01*
X128200026Y-106380724D01*
X128129454Y-106512754D01*
X128110806Y-106574230D01*
X128097738Y-106617313D01*
X128035000Y-106693759D01*
X127961185Y-106603815D01*
X127864494Y-106524463D01*
X127841333Y-106512083D01*
X127749250Y-106420000D01*
X127635663Y-106429546D01*
X127634482Y-106429188D01*
X127510000Y-106416928D01*
X126960000Y-106416928D01*
X126835518Y-106429188D01*
X126834337Y-106429546D01*
X126720750Y-106420000D01*
X126628667Y-106512083D01*
X126605506Y-106524463D01*
X126508815Y-106603815D01*
X126435000Y-106693759D01*
X126361185Y-106603815D01*
X126264494Y-106524463D01*
X126241333Y-106512083D01*
X126149250Y-106420000D01*
X126035663Y-106429546D01*
X126034482Y-106429188D01*
X125910000Y-106416928D01*
X125595000Y-106416928D01*
X125595000Y-102936801D01*
X126656924Y-101874878D01*
X126760521Y-101831967D01*
X126897281Y-101740587D01*
X127013587Y-101624281D01*
X127104967Y-101487521D01*
X127167911Y-101335560D01*
X127200000Y-101174240D01*
X127200000Y-101009760D01*
X127167911Y-100848440D01*
X127104967Y-100696479D01*
X127013587Y-100559719D01*
X126996559Y-100542691D01*
X127041333Y-100497917D01*
X127064494Y-100485537D01*
X127161185Y-100406185D01*
X127235000Y-100316241D01*
X127308815Y-100406185D01*
G37*
X127308815Y-100406185D02*
X127405506Y-100485537D01*
X127428667Y-100497917D01*
X127520750Y-100590000D01*
X127634337Y-100580454D01*
X127635518Y-100580812D01*
X127760000Y-100593072D01*
X128310000Y-100593072D01*
X128434482Y-100580812D01*
X128435000Y-100580655D01*
X128435518Y-100580812D01*
X128560000Y-100593072D01*
X128875001Y-100593072D01*
X128875000Y-105690198D01*
X128323998Y-106241201D01*
X128295000Y-106264999D01*
X128271202Y-106293997D01*
X128271201Y-106293998D01*
X128200026Y-106380724D01*
X128129454Y-106512754D01*
X128110806Y-106574230D01*
X128097738Y-106617313D01*
X128035000Y-106693759D01*
X127961185Y-106603815D01*
X127864494Y-106524463D01*
X127841333Y-106512083D01*
X127749250Y-106420000D01*
X127635663Y-106429546D01*
X127634482Y-106429188D01*
X127510000Y-106416928D01*
X126960000Y-106416928D01*
X126835518Y-106429188D01*
X126834337Y-106429546D01*
X126720750Y-106420000D01*
X126628667Y-106512083D01*
X126605506Y-106524463D01*
X126508815Y-106603815D01*
X126435000Y-106693759D01*
X126361185Y-106603815D01*
X126264494Y-106524463D01*
X126241333Y-106512083D01*
X126149250Y-106420000D01*
X126035663Y-106429546D01*
X126034482Y-106429188D01*
X125910000Y-106416928D01*
X125595000Y-106416928D01*
X125595000Y-102936801D01*
X126656924Y-101874878D01*
X126760521Y-101831967D01*
X126897281Y-101740587D01*
X127013587Y-101624281D01*
X127104967Y-101487521D01*
X127167911Y-101335560D01*
X127200000Y-101174240D01*
X127200000Y-101009760D01*
X127167911Y-100848440D01*
X127104967Y-100696479D01*
X127013587Y-100559719D01*
X126996559Y-100542691D01*
X127041333Y-100497917D01*
X127064494Y-100485537D01*
X127161185Y-100406185D01*
X127235000Y-100316241D01*
X127308815Y-100406185D01*
G36*
X118237000Y-101473000D02*
G01*
X118257000Y-101473000D01*
X118257000Y-101727000D01*
X118237000Y-101727000D01*
X118237000Y-101747000D01*
X117983000Y-101747000D01*
X117983000Y-101727000D01*
X117963000Y-101727000D01*
X117963000Y-101473000D01*
X117983000Y-101473000D01*
X117983000Y-101453000D01*
X118237000Y-101453000D01*
X118237000Y-101473000D01*
G37*
X118237000Y-101473000D02*
X118257000Y-101473000D01*
X118257000Y-101727000D01*
X118237000Y-101727000D01*
X118237000Y-101747000D01*
X117983000Y-101747000D01*
X117983000Y-101727000D01*
X117963000Y-101727000D01*
X117963000Y-101473000D01*
X117983000Y-101473000D01*
X117983000Y-101453000D01*
X118237000Y-101453000D01*
X118237000Y-101473000D01*
M02*
