M48
; DRILL file {KiCad 5.1.5-52549c5~84~ubuntu18.04.1} date Fri 07 Feb 2020 06:48:48 PM EST
; FORMAT={-:-/ absolute / inch / decimal}
; #@! TF.CreationDate,2020-02-07T18:48:48-05:00
; #@! TF.GenerationSoftware,Kicad,Pcbnew,5.1.5-52549c5~84~ubuntu18.04.1
FMAT,2
INCH
T1C0.0138
T2C0.0429
T3C0.0827
%
G90
G05
T1
X4.27Y-3.75
X4.27Y-3.91
X4.295Y-3.75
X4.32Y-3.75
X4.335Y-3.9872
X4.335Y-4.0128
X4.386Y-3.758
X4.4693Y-4.155
X4.515Y-4.19
X4.515Y-4.28
X4.52Y-3.73
X4.52Y-3.73
X4.54Y-4.085
X4.57Y-3.895
X4.57Y-4.075
X4.585Y-4.16
X4.64Y-4.575
X4.6404Y-4.45
X4.65Y-4.0
X4.65Y-4.0
X4.7391Y-3.85
X4.7392Y-3.88
X4.77Y-4.11
X4.785Y-3.85
X4.785Y-3.88
X4.81Y-4.085
X4.81Y-4.28
X4.85Y-4.45
X4.85Y-4.5
X4.975Y-3.98
X5.245Y-4.155
X5.3Y-4.25
X5.32Y-3.8
X5.34Y-4.25
X5.355Y-4.155
T2
X5.42Y-4.09
X5.42Y-4.19
X5.42Y-4.29
X5.42Y-3.655
X5.42Y-3.755
X5.42Y-3.855
X5.42Y-4.525
X5.42Y-4.625
X5.42Y-4.725
X4.32Y-4.26
X4.32Y-4.36
T3
X5.688Y-4.764
X4.0425Y-4.6195
X4.04Y-3.765
X5.689Y-3.63
T0
M30
