G04 #@! TF.GenerationSoftware,KiCad,Pcbnew,5.1.5-52549c5~84~ubuntu18.04.1*
G04 #@! TF.CreationDate,2020-02-07T18:48:43-05:00*
G04 #@! TF.ProjectId,ultrasonic,756c7472-6173-46f6-9e69-632e6b696361,rev?*
G04 #@! TF.SameCoordinates,Original*
G04 #@! TF.FileFunction,Soldermask,Top*
G04 #@! TF.FilePolarity,Negative*
%FSLAX46Y46*%
G04 Gerber Fmt 4.6, Leading zero omitted, Abs format (unit mm)*
G04 Created by KiCad (PCBNEW 5.1.5-52549c5~84~ubuntu18.04.1) date 2020-02-07 18:48:43*
%MOMM*%
%LPD*%
G04 APERTURE LIST*
%ADD10C,0.100000*%
G04 APERTURE END LIST*
D10*
G36*
X144689995Y-119925756D02*
G01*
X144796350Y-119946911D01*
X144896534Y-119988409D01*
X144996720Y-120029907D01*
X145177044Y-120150395D01*
X145330405Y-120303756D01*
X145450893Y-120484080D01*
X145450893Y-120484081D01*
X145533889Y-120684450D01*
X145547780Y-120754287D01*
X145576200Y-120897160D01*
X145576200Y-121114040D01*
X145533889Y-121326749D01*
X145450893Y-121527120D01*
X145330405Y-121707444D01*
X145177044Y-121860805D01*
X144996720Y-121981293D01*
X144796350Y-122064289D01*
X144689994Y-122085445D01*
X144583640Y-122106600D01*
X144366760Y-122106600D01*
X144260406Y-122085445D01*
X144154050Y-122064289D01*
X143953680Y-121981293D01*
X143773356Y-121860805D01*
X143619995Y-121707444D01*
X143499507Y-121527120D01*
X143416511Y-121326749D01*
X143374200Y-121114040D01*
X143374200Y-120897160D01*
X143402620Y-120754287D01*
X143416511Y-120684450D01*
X143499507Y-120484081D01*
X143499507Y-120484080D01*
X143619995Y-120303756D01*
X143773356Y-120150395D01*
X143953680Y-120029907D01*
X144053866Y-119988409D01*
X144154050Y-119946911D01*
X144260405Y-119925756D01*
X144366760Y-119904600D01*
X144583640Y-119904600D01*
X144689995Y-119925756D01*
G37*
G36*
X138447561Y-119097966D02*
G01*
X138480383Y-119107923D01*
X138510632Y-119124092D01*
X138537148Y-119145852D01*
X138558908Y-119172368D01*
X138575077Y-119202617D01*
X138585034Y-119235439D01*
X138589000Y-119275713D01*
X138589000Y-120754287D01*
X138585034Y-120794561D01*
X138575077Y-120827383D01*
X138558908Y-120857632D01*
X138537148Y-120884148D01*
X138510632Y-120905908D01*
X138480383Y-120922077D01*
X138447561Y-120932034D01*
X138407287Y-120936000D01*
X136928713Y-120936000D01*
X136888439Y-120932034D01*
X136855617Y-120922077D01*
X136825368Y-120905908D01*
X136798852Y-120884148D01*
X136777092Y-120857632D01*
X136760923Y-120827383D01*
X136750966Y-120794561D01*
X136747000Y-120754287D01*
X136747000Y-119275713D01*
X136750966Y-119235439D01*
X136760923Y-119202617D01*
X136777092Y-119172368D01*
X136798852Y-119145852D01*
X136825368Y-119124092D01*
X136855617Y-119107923D01*
X136888439Y-119097966D01*
X136928713Y-119094000D01*
X138407287Y-119094000D01*
X138447561Y-119097966D01*
G37*
G36*
X102894295Y-116255456D02*
G01*
X103000650Y-116276611D01*
X103065954Y-116303661D01*
X103201020Y-116359607D01*
X103381344Y-116480095D01*
X103534705Y-116633456D01*
X103655193Y-116813780D01*
X103738189Y-117014151D01*
X103780500Y-117226860D01*
X103780500Y-117443740D01*
X103738189Y-117656449D01*
X103655193Y-117856820D01*
X103534705Y-118037144D01*
X103381344Y-118190505D01*
X103201020Y-118310993D01*
X103000650Y-118393989D01*
X102894294Y-118415145D01*
X102787940Y-118436300D01*
X102571060Y-118436300D01*
X102464706Y-118415145D01*
X102358350Y-118393989D01*
X102157980Y-118310993D01*
X101977656Y-118190505D01*
X101824295Y-118037144D01*
X101703807Y-117856820D01*
X101620811Y-117656449D01*
X101578500Y-117443740D01*
X101578500Y-117226860D01*
X101620811Y-117014151D01*
X101703807Y-116813780D01*
X101824295Y-116633456D01*
X101977656Y-116480095D01*
X102157980Y-116359607D01*
X102293046Y-116303661D01*
X102358350Y-116276611D01*
X102464705Y-116255456D01*
X102571060Y-116234300D01*
X102787940Y-116234300D01*
X102894295Y-116255456D01*
G37*
G36*
X137936645Y-116589393D02*
G01*
X138043021Y-116633456D01*
X138104257Y-116658821D01*
X138255103Y-116759613D01*
X138383387Y-116887897D01*
X138467746Y-117014150D01*
X138484180Y-117038745D01*
X138553607Y-117206355D01*
X138589000Y-117384288D01*
X138589000Y-117565712D01*
X138553607Y-117743645D01*
X138506728Y-117856819D01*
X138484179Y-117911257D01*
X138383387Y-118062103D01*
X138255103Y-118190387D01*
X138104257Y-118291179D01*
X138104256Y-118291180D01*
X138104255Y-118291180D01*
X137936645Y-118360607D01*
X137758712Y-118396000D01*
X137577288Y-118396000D01*
X137399355Y-118360607D01*
X137231745Y-118291180D01*
X137231744Y-118291180D01*
X137231743Y-118291179D01*
X137080897Y-118190387D01*
X136952613Y-118062103D01*
X136851821Y-117911257D01*
X136829272Y-117856819D01*
X136782393Y-117743645D01*
X136747000Y-117565712D01*
X136747000Y-117384288D01*
X136782393Y-117206355D01*
X136851820Y-117038745D01*
X136868254Y-117014150D01*
X136952613Y-116887897D01*
X137080897Y-116759613D01*
X137231743Y-116658821D01*
X137292979Y-116633456D01*
X137399355Y-116589393D01*
X137577288Y-116554000D01*
X137758712Y-116554000D01*
X137936645Y-116589393D01*
G37*
G36*
X113999674Y-116100465D02*
G01*
X114037367Y-116111899D01*
X114072103Y-116130466D01*
X114102548Y-116155452D01*
X114127534Y-116185897D01*
X114146101Y-116220633D01*
X114157535Y-116258326D01*
X114162000Y-116303661D01*
X114162000Y-117140339D01*
X114157535Y-117185674D01*
X114146101Y-117223367D01*
X114127534Y-117258103D01*
X114102548Y-117288548D01*
X114072103Y-117313534D01*
X114037367Y-117332101D01*
X113999674Y-117343535D01*
X113954339Y-117348000D01*
X112867661Y-117348000D01*
X112822326Y-117343535D01*
X112784633Y-117332101D01*
X112749897Y-117313534D01*
X112719452Y-117288548D01*
X112694466Y-117258103D01*
X112675899Y-117223367D01*
X112664465Y-117185674D01*
X112660000Y-117140339D01*
X112660000Y-116303661D01*
X112664465Y-116258326D01*
X112675899Y-116220633D01*
X112694466Y-116185897D01*
X112719452Y-116155452D01*
X112749897Y-116130466D01*
X112784633Y-116111899D01*
X112822326Y-116100465D01*
X112867661Y-116096000D01*
X113954339Y-116096000D01*
X113999674Y-116100465D01*
G37*
G36*
X122773674Y-115458465D02*
G01*
X122811367Y-115469899D01*
X122846103Y-115488466D01*
X122876548Y-115513452D01*
X122901534Y-115543897D01*
X122920101Y-115578633D01*
X122931535Y-115616326D01*
X122936000Y-115661661D01*
X122936000Y-116748339D01*
X122931535Y-116793674D01*
X122920101Y-116831367D01*
X122901534Y-116866103D01*
X122876548Y-116896548D01*
X122846103Y-116921534D01*
X122811367Y-116940101D01*
X122773674Y-116951535D01*
X122728339Y-116956000D01*
X121891661Y-116956000D01*
X121846326Y-116951535D01*
X121808633Y-116940101D01*
X121773897Y-116921534D01*
X121743452Y-116896548D01*
X121718466Y-116866103D01*
X121699899Y-116831367D01*
X121688465Y-116793674D01*
X121684000Y-116748339D01*
X121684000Y-115661661D01*
X121688465Y-115616326D01*
X121699899Y-115578633D01*
X121718466Y-115543897D01*
X121743452Y-115513452D01*
X121773897Y-115488466D01*
X121808633Y-115469899D01*
X121846326Y-115458465D01*
X121891661Y-115454000D01*
X122728339Y-115454000D01*
X122773674Y-115458465D01*
G37*
G36*
X116278674Y-115458465D02*
G01*
X116316367Y-115469899D01*
X116351103Y-115488466D01*
X116381548Y-115513452D01*
X116406534Y-115543897D01*
X116425101Y-115578633D01*
X116436535Y-115616326D01*
X116441000Y-115661661D01*
X116441000Y-116748339D01*
X116436535Y-116793674D01*
X116425101Y-116831367D01*
X116406534Y-116866103D01*
X116381548Y-116896548D01*
X116351103Y-116921534D01*
X116316367Y-116940101D01*
X116278674Y-116951535D01*
X116233339Y-116956000D01*
X115396661Y-116956000D01*
X115351326Y-116951535D01*
X115313633Y-116940101D01*
X115278897Y-116921534D01*
X115248452Y-116896548D01*
X115223466Y-116866103D01*
X115204899Y-116831367D01*
X115193465Y-116793674D01*
X115189000Y-116748339D01*
X115189000Y-115661661D01*
X115193465Y-115616326D01*
X115204899Y-115578633D01*
X115223466Y-115543897D01*
X115248452Y-115513452D01*
X115278897Y-115488466D01*
X115313633Y-115469899D01*
X115351326Y-115458465D01*
X115396661Y-115454000D01*
X116233339Y-115454000D01*
X116278674Y-115458465D01*
G37*
G36*
X118328674Y-115458465D02*
G01*
X118366367Y-115469899D01*
X118401103Y-115488466D01*
X118431548Y-115513452D01*
X118456534Y-115543897D01*
X118475101Y-115578633D01*
X118486535Y-115616326D01*
X118491000Y-115661661D01*
X118491000Y-116748339D01*
X118486535Y-116793674D01*
X118475101Y-116831367D01*
X118456534Y-116866103D01*
X118431548Y-116896548D01*
X118401103Y-116921534D01*
X118366367Y-116940101D01*
X118328674Y-116951535D01*
X118283339Y-116956000D01*
X117446661Y-116956000D01*
X117401326Y-116951535D01*
X117363633Y-116940101D01*
X117328897Y-116921534D01*
X117298452Y-116896548D01*
X117273466Y-116866103D01*
X117254899Y-116831367D01*
X117243465Y-116793674D01*
X117239000Y-116748339D01*
X117239000Y-115661661D01*
X117243465Y-115616326D01*
X117254899Y-115578633D01*
X117273466Y-115543897D01*
X117298452Y-115513452D01*
X117328897Y-115488466D01*
X117363633Y-115469899D01*
X117401326Y-115458465D01*
X117446661Y-115454000D01*
X118283339Y-115454000D01*
X118328674Y-115458465D01*
G37*
G36*
X120723674Y-115458465D02*
G01*
X120761367Y-115469899D01*
X120796103Y-115488466D01*
X120826548Y-115513452D01*
X120851534Y-115543897D01*
X120870101Y-115578633D01*
X120881535Y-115616326D01*
X120886000Y-115661661D01*
X120886000Y-116748339D01*
X120881535Y-116793674D01*
X120870101Y-116831367D01*
X120851534Y-116866103D01*
X120826548Y-116896548D01*
X120796103Y-116921534D01*
X120761367Y-116940101D01*
X120723674Y-116951535D01*
X120678339Y-116956000D01*
X119841661Y-116956000D01*
X119796326Y-116951535D01*
X119758633Y-116940101D01*
X119723897Y-116921534D01*
X119693452Y-116896548D01*
X119668466Y-116866103D01*
X119649899Y-116831367D01*
X119638465Y-116793674D01*
X119634000Y-116748339D01*
X119634000Y-115661661D01*
X119638465Y-115616326D01*
X119649899Y-115578633D01*
X119668466Y-115543897D01*
X119693452Y-115513452D01*
X119723897Y-115488466D01*
X119758633Y-115469899D01*
X119796326Y-115458465D01*
X119841661Y-115454000D01*
X120678339Y-115454000D01*
X120723674Y-115458465D01*
G37*
G36*
X126171000Y-116766000D02*
G01*
X124069000Y-116766000D01*
X124069000Y-115164000D01*
X126171000Y-115164000D01*
X126171000Y-116766000D01*
G37*
G36*
X137936645Y-114049393D02*
G01*
X138104255Y-114118820D01*
X138104257Y-114118821D01*
X138255103Y-114219613D01*
X138383387Y-114347897D01*
X138484179Y-114498743D01*
X138484180Y-114498745D01*
X138553607Y-114666355D01*
X138589000Y-114844288D01*
X138589000Y-115025712D01*
X138553607Y-115203645D01*
X138484180Y-115371255D01*
X138484179Y-115371257D01*
X138383387Y-115522103D01*
X138255103Y-115650387D01*
X138104257Y-115751179D01*
X138104256Y-115751180D01*
X138104255Y-115751180D01*
X137936645Y-115820607D01*
X137758712Y-115856000D01*
X137577288Y-115856000D01*
X137399355Y-115820607D01*
X137231745Y-115751180D01*
X137231744Y-115751180D01*
X137231743Y-115751179D01*
X137080897Y-115650387D01*
X136952613Y-115522103D01*
X136851821Y-115371257D01*
X136851820Y-115371255D01*
X136782393Y-115203645D01*
X136747000Y-115025712D01*
X136747000Y-114844288D01*
X136782393Y-114666355D01*
X136851820Y-114498745D01*
X136851821Y-114498743D01*
X136952613Y-114347897D01*
X137080897Y-114219613D01*
X137231743Y-114118821D01*
X137231745Y-114118820D01*
X137399355Y-114049393D01*
X137577288Y-114014000D01*
X137758712Y-114014000D01*
X137936645Y-114049393D01*
G37*
G36*
X132471000Y-115616000D02*
G01*
X130369000Y-115616000D01*
X130369000Y-111714000D01*
X132471000Y-111714000D01*
X132471000Y-115616000D01*
G37*
G36*
X113999674Y-114050465D02*
G01*
X114037367Y-114061899D01*
X114072103Y-114080466D01*
X114102548Y-114105452D01*
X114127534Y-114135897D01*
X114146101Y-114170633D01*
X114157535Y-114208326D01*
X114162000Y-114253661D01*
X114162000Y-115090339D01*
X114157535Y-115135674D01*
X114146101Y-115173367D01*
X114127534Y-115208103D01*
X114102548Y-115238548D01*
X114072103Y-115263534D01*
X114037367Y-115282101D01*
X113999674Y-115293535D01*
X113954339Y-115298000D01*
X112867661Y-115298000D01*
X112822326Y-115293535D01*
X112784633Y-115282101D01*
X112749897Y-115263534D01*
X112719452Y-115238548D01*
X112694466Y-115208103D01*
X112675899Y-115173367D01*
X112664465Y-115135674D01*
X112660000Y-115090339D01*
X112660000Y-114253661D01*
X112664465Y-114208326D01*
X112675899Y-114170633D01*
X112694466Y-114135897D01*
X112719452Y-114105452D01*
X112749897Y-114080466D01*
X112784633Y-114061899D01*
X112822326Y-114050465D01*
X112867661Y-114046000D01*
X113954339Y-114046000D01*
X113999674Y-114050465D01*
G37*
G36*
X126171000Y-114466000D02*
G01*
X124069000Y-114466000D01*
X124069000Y-112864000D01*
X126171000Y-112864000D01*
X126171000Y-114466000D01*
G37*
G36*
X116278674Y-111013465D02*
G01*
X116316367Y-111024899D01*
X116351103Y-111043466D01*
X116381548Y-111068452D01*
X116406534Y-111098897D01*
X116425101Y-111133633D01*
X116436535Y-111171326D01*
X116441000Y-111216661D01*
X116441000Y-112303339D01*
X116436535Y-112348674D01*
X116425101Y-112386367D01*
X116406534Y-112421103D01*
X116381548Y-112451548D01*
X116351103Y-112476534D01*
X116316367Y-112495101D01*
X116278674Y-112506535D01*
X116233339Y-112511000D01*
X115396661Y-112511000D01*
X115351326Y-112506535D01*
X115313633Y-112495101D01*
X115278897Y-112476534D01*
X115248452Y-112451548D01*
X115223466Y-112421103D01*
X115204899Y-112386367D01*
X115193465Y-112348674D01*
X115189000Y-112303339D01*
X115189000Y-111216661D01*
X115193465Y-111171326D01*
X115204899Y-111133633D01*
X115223466Y-111098897D01*
X115248452Y-111068452D01*
X115278897Y-111043466D01*
X115313633Y-111024899D01*
X115351326Y-111013465D01*
X115396661Y-111009000D01*
X116233339Y-111009000D01*
X116278674Y-111013465D01*
G37*
G36*
X118328674Y-111013465D02*
G01*
X118366367Y-111024899D01*
X118401103Y-111043466D01*
X118431548Y-111068452D01*
X118456534Y-111098897D01*
X118475101Y-111133633D01*
X118486535Y-111171326D01*
X118491000Y-111216661D01*
X118491000Y-112303339D01*
X118486535Y-112348674D01*
X118475101Y-112386367D01*
X118456534Y-112421103D01*
X118431548Y-112451548D01*
X118401103Y-112476534D01*
X118366367Y-112495101D01*
X118328674Y-112506535D01*
X118283339Y-112511000D01*
X117446661Y-112511000D01*
X117401326Y-112506535D01*
X117363633Y-112495101D01*
X117328897Y-112476534D01*
X117298452Y-112451548D01*
X117273466Y-112421103D01*
X117254899Y-112386367D01*
X117243465Y-112348674D01*
X117239000Y-112303339D01*
X117239000Y-111216661D01*
X117243465Y-111171326D01*
X117254899Y-111133633D01*
X117273466Y-111098897D01*
X117298452Y-111068452D01*
X117328897Y-111043466D01*
X117363633Y-111024899D01*
X117401326Y-111013465D01*
X117446661Y-111009000D01*
X118283339Y-111009000D01*
X118328674Y-111013465D01*
G37*
G36*
X122773674Y-111013465D02*
G01*
X122811367Y-111024899D01*
X122846103Y-111043466D01*
X122876548Y-111068452D01*
X122901534Y-111098897D01*
X122920101Y-111133633D01*
X122931535Y-111171326D01*
X122936000Y-111216661D01*
X122936000Y-112303339D01*
X122931535Y-112348674D01*
X122920101Y-112386367D01*
X122901534Y-112421103D01*
X122876548Y-112451548D01*
X122846103Y-112476534D01*
X122811367Y-112495101D01*
X122773674Y-112506535D01*
X122728339Y-112511000D01*
X121891661Y-112511000D01*
X121846326Y-112506535D01*
X121808633Y-112495101D01*
X121773897Y-112476534D01*
X121743452Y-112451548D01*
X121718466Y-112421103D01*
X121699899Y-112386367D01*
X121688465Y-112348674D01*
X121684000Y-112303339D01*
X121684000Y-111216661D01*
X121688465Y-111171326D01*
X121699899Y-111133633D01*
X121718466Y-111098897D01*
X121743452Y-111068452D01*
X121773897Y-111043466D01*
X121808633Y-111024899D01*
X121846326Y-111013465D01*
X121891661Y-111009000D01*
X122728339Y-111009000D01*
X122773674Y-111013465D01*
G37*
G36*
X120723674Y-111013465D02*
G01*
X120761367Y-111024899D01*
X120796103Y-111043466D01*
X120826548Y-111068452D01*
X120851534Y-111098897D01*
X120870101Y-111133633D01*
X120881535Y-111171326D01*
X120886000Y-111216661D01*
X120886000Y-112303339D01*
X120881535Y-112348674D01*
X120870101Y-112386367D01*
X120851534Y-112421103D01*
X120826548Y-112451548D01*
X120796103Y-112476534D01*
X120761367Y-112495101D01*
X120723674Y-112506535D01*
X120678339Y-112511000D01*
X119841661Y-112511000D01*
X119796326Y-112506535D01*
X119758633Y-112495101D01*
X119723897Y-112476534D01*
X119693452Y-112451548D01*
X119668466Y-112421103D01*
X119649899Y-112386367D01*
X119638465Y-112348674D01*
X119634000Y-112303339D01*
X119634000Y-111216661D01*
X119638465Y-111171326D01*
X119649899Y-111133633D01*
X119668466Y-111098897D01*
X119693452Y-111068452D01*
X119723897Y-111043466D01*
X119758633Y-111024899D01*
X119796326Y-111013465D01*
X119841661Y-111009000D01*
X120678339Y-111009000D01*
X120723674Y-111013465D01*
G37*
G36*
X126171000Y-112166000D02*
G01*
X124069000Y-112166000D01*
X124069000Y-110564000D01*
X126171000Y-110564000D01*
X126171000Y-112166000D01*
G37*
G36*
X110507561Y-109826966D02*
G01*
X110540383Y-109836923D01*
X110570632Y-109853092D01*
X110597148Y-109874852D01*
X110618908Y-109901368D01*
X110635077Y-109931617D01*
X110645034Y-109964439D01*
X110649000Y-110004713D01*
X110649000Y-111483287D01*
X110645034Y-111523561D01*
X110635077Y-111556383D01*
X110618908Y-111586632D01*
X110597148Y-111613148D01*
X110570632Y-111634908D01*
X110540383Y-111651077D01*
X110507561Y-111661034D01*
X110467287Y-111665000D01*
X108988713Y-111665000D01*
X108948439Y-111661034D01*
X108915617Y-111651077D01*
X108885368Y-111634908D01*
X108858852Y-111613148D01*
X108837092Y-111586632D01*
X108820923Y-111556383D01*
X108810966Y-111523561D01*
X108807000Y-111483287D01*
X108807000Y-110004713D01*
X108810966Y-109964439D01*
X108820923Y-109931617D01*
X108837092Y-109901368D01*
X108858852Y-109874852D01*
X108885368Y-109853092D01*
X108915617Y-109836923D01*
X108948439Y-109826966D01*
X108988713Y-109823000D01*
X110467287Y-109823000D01*
X110507561Y-109826966D01*
G37*
G36*
X138447561Y-108048966D02*
G01*
X138480383Y-108058923D01*
X138510632Y-108075092D01*
X138537148Y-108096852D01*
X138558908Y-108123368D01*
X138575077Y-108153617D01*
X138585034Y-108186439D01*
X138589000Y-108226713D01*
X138589000Y-109705287D01*
X138585034Y-109745561D01*
X138575077Y-109778383D01*
X138558908Y-109808632D01*
X138537148Y-109835148D01*
X138510632Y-109856908D01*
X138480383Y-109873077D01*
X138447561Y-109883034D01*
X138407287Y-109887000D01*
X136928713Y-109887000D01*
X136888439Y-109883034D01*
X136855617Y-109873077D01*
X136825368Y-109856908D01*
X136798852Y-109835148D01*
X136777092Y-109808632D01*
X136760923Y-109778383D01*
X136750966Y-109745561D01*
X136747000Y-109705287D01*
X136747000Y-108226713D01*
X136750966Y-108186439D01*
X136760923Y-108153617D01*
X136777092Y-108123368D01*
X136798852Y-108096852D01*
X136825368Y-108075092D01*
X136855617Y-108058923D01*
X136888439Y-108048966D01*
X136928713Y-108045000D01*
X138407287Y-108045000D01*
X138447561Y-108048966D01*
G37*
G36*
X117761000Y-109451000D02*
G01*
X116259000Y-109451000D01*
X116259000Y-108349000D01*
X117761000Y-108349000D01*
X117761000Y-109451000D01*
G37*
G36*
X119961000Y-109451000D02*
G01*
X118459000Y-109451000D01*
X118459000Y-108349000D01*
X119961000Y-108349000D01*
X119961000Y-109451000D01*
G37*
G36*
X109996645Y-107318393D02*
G01*
X110164255Y-107387820D01*
X110164257Y-107387821D01*
X110315103Y-107488613D01*
X110443387Y-107616897D01*
X110544179Y-107767743D01*
X110544180Y-107767745D01*
X110613607Y-107935355D01*
X110649000Y-108113288D01*
X110649000Y-108294712D01*
X110613607Y-108472645D01*
X110558369Y-108606000D01*
X110544179Y-108640257D01*
X110443387Y-108791103D01*
X110315103Y-108919387D01*
X110164257Y-109020179D01*
X110164256Y-109020180D01*
X110164255Y-109020180D01*
X109996645Y-109089607D01*
X109818712Y-109125000D01*
X109637288Y-109125000D01*
X109459355Y-109089607D01*
X109291745Y-109020180D01*
X109291744Y-109020180D01*
X109291743Y-109020179D01*
X109140897Y-108919387D01*
X109012613Y-108791103D01*
X108911821Y-108640257D01*
X108897631Y-108606000D01*
X108842393Y-108472645D01*
X108807000Y-108294712D01*
X108807000Y-108113288D01*
X108842393Y-107935355D01*
X108911820Y-107767745D01*
X108911821Y-107767743D01*
X109012613Y-107616897D01*
X109140897Y-107488613D01*
X109291743Y-107387821D01*
X109291745Y-107387820D01*
X109459355Y-107318393D01*
X109637288Y-107283000D01*
X109818712Y-107283000D01*
X109996645Y-107318393D01*
G37*
G36*
X130761000Y-108606000D02*
G01*
X124509000Y-108606000D01*
X124509000Y-107004000D01*
X130761000Y-107004000D01*
X130761000Y-108606000D01*
G37*
G36*
X117761000Y-107831000D02*
G01*
X116259000Y-107831000D01*
X116259000Y-106529000D01*
X117761000Y-106529000D01*
X117761000Y-107831000D01*
G37*
G36*
X119961000Y-107551000D02*
G01*
X118459000Y-107551000D01*
X118459000Y-106449000D01*
X119961000Y-106449000D01*
X119961000Y-107551000D01*
G37*
G36*
X137936645Y-105540393D02*
G01*
X138104255Y-105609820D01*
X138104257Y-105609821D01*
X138255103Y-105710613D01*
X138383387Y-105838897D01*
X138484179Y-105989743D01*
X138484180Y-105989745D01*
X138553607Y-106157355D01*
X138589000Y-106335288D01*
X138589000Y-106516712D01*
X138553607Y-106694645D01*
X138484180Y-106862255D01*
X138484179Y-106862257D01*
X138383387Y-107013103D01*
X138255103Y-107141387D01*
X138104257Y-107242179D01*
X138104256Y-107242180D01*
X138104255Y-107242180D01*
X137936645Y-107311607D01*
X137758712Y-107347000D01*
X137577288Y-107347000D01*
X137399355Y-107311607D01*
X137231745Y-107242180D01*
X137231744Y-107242180D01*
X137231743Y-107242179D01*
X137080897Y-107141387D01*
X136952613Y-107013103D01*
X136851821Y-106862257D01*
X136851820Y-106862255D01*
X136782393Y-106694645D01*
X136747000Y-106516712D01*
X136747000Y-106335288D01*
X136782393Y-106157355D01*
X136851820Y-105989745D01*
X136851821Y-105989743D01*
X136952613Y-105838897D01*
X137080897Y-105710613D01*
X137231743Y-105609821D01*
X137231745Y-105609820D01*
X137399355Y-105540393D01*
X137577288Y-105505000D01*
X137758712Y-105505000D01*
X137936645Y-105540393D01*
G37*
G36*
X124136000Y-106631000D02*
G01*
X122534000Y-106631000D01*
X122534000Y-100379000D01*
X124136000Y-100379000D01*
X124136000Y-106631000D01*
G37*
G36*
X132736000Y-106631000D02*
G01*
X131134000Y-106631000D01*
X131134000Y-100379000D01*
X132736000Y-100379000D01*
X132736000Y-106631000D01*
G37*
G36*
X137936645Y-103000393D02*
G01*
X138086851Y-103062611D01*
X138104257Y-103069821D01*
X138255103Y-103170613D01*
X138383387Y-103298897D01*
X138471655Y-103431000D01*
X138484180Y-103449745D01*
X138553607Y-103617355D01*
X138589000Y-103795288D01*
X138589000Y-103976712D01*
X138553607Y-104154645D01*
X138521979Y-104231000D01*
X138484179Y-104322257D01*
X138383387Y-104473103D01*
X138255103Y-104601387D01*
X138104257Y-104702179D01*
X138104256Y-104702180D01*
X138104255Y-104702180D01*
X137936645Y-104771607D01*
X137758712Y-104807000D01*
X137577288Y-104807000D01*
X137399355Y-104771607D01*
X137231745Y-104702180D01*
X137231744Y-104702180D01*
X137231743Y-104702179D01*
X137080897Y-104601387D01*
X136952613Y-104473103D01*
X136851821Y-104322257D01*
X136814021Y-104231000D01*
X136782393Y-104154645D01*
X136747000Y-103976712D01*
X136747000Y-103795288D01*
X136782393Y-103617355D01*
X136851820Y-103449745D01*
X136864345Y-103431000D01*
X136952613Y-103298897D01*
X137080897Y-103170613D01*
X137231743Y-103069821D01*
X137249149Y-103062611D01*
X137399355Y-103000393D01*
X137577288Y-102965000D01*
X137758712Y-102965000D01*
X137936645Y-103000393D01*
G37*
G36*
X117015355Y-99200083D02*
G01*
X117020029Y-99201501D01*
X117024330Y-99203800D01*
X117030702Y-99209029D01*
X117051076Y-99222643D01*
X117073715Y-99232020D01*
X117097749Y-99236800D01*
X117122253Y-99236800D01*
X117146286Y-99232019D01*
X117168925Y-99222642D01*
X117189298Y-99209029D01*
X117195670Y-99203800D01*
X117199971Y-99201501D01*
X117204645Y-99200083D01*
X117215641Y-99199000D01*
X117504359Y-99199000D01*
X117515355Y-99200083D01*
X117520029Y-99201501D01*
X117524330Y-99203800D01*
X117530702Y-99209029D01*
X117551076Y-99222643D01*
X117573715Y-99232020D01*
X117597749Y-99236800D01*
X117622253Y-99236800D01*
X117646286Y-99232019D01*
X117668925Y-99222642D01*
X117689298Y-99209029D01*
X117695670Y-99203800D01*
X117699971Y-99201501D01*
X117704645Y-99200083D01*
X117715641Y-99199000D01*
X118004359Y-99199000D01*
X118015355Y-99200083D01*
X118020029Y-99201501D01*
X118024330Y-99203800D01*
X118030702Y-99209029D01*
X118051076Y-99222643D01*
X118073715Y-99232020D01*
X118097749Y-99236800D01*
X118122253Y-99236800D01*
X118146286Y-99232019D01*
X118168925Y-99222642D01*
X118189298Y-99209029D01*
X118195670Y-99203800D01*
X118199971Y-99201501D01*
X118204645Y-99200083D01*
X118215641Y-99199000D01*
X118504359Y-99199000D01*
X118515355Y-99200083D01*
X118520029Y-99201501D01*
X118524330Y-99203800D01*
X118530702Y-99209029D01*
X118551076Y-99222643D01*
X118573715Y-99232020D01*
X118597749Y-99236800D01*
X118622253Y-99236800D01*
X118646286Y-99232019D01*
X118668925Y-99222642D01*
X118689298Y-99209029D01*
X118695670Y-99203800D01*
X118699971Y-99201501D01*
X118704645Y-99200083D01*
X118715641Y-99199000D01*
X119004359Y-99199000D01*
X119015355Y-99200083D01*
X119020029Y-99201501D01*
X119024330Y-99203800D01*
X119030702Y-99209029D01*
X119051076Y-99222643D01*
X119073715Y-99232020D01*
X119097749Y-99236800D01*
X119122253Y-99236800D01*
X119146286Y-99232019D01*
X119168925Y-99222642D01*
X119189298Y-99209029D01*
X119195670Y-99203800D01*
X119199971Y-99201501D01*
X119204645Y-99200083D01*
X119215641Y-99199000D01*
X119504359Y-99199000D01*
X119515355Y-99200083D01*
X119520029Y-99201501D01*
X119524331Y-99203800D01*
X119528104Y-99206896D01*
X119531200Y-99210669D01*
X119533499Y-99214971D01*
X119534917Y-99219645D01*
X119536000Y-99230641D01*
X119536000Y-100049001D01*
X119538402Y-100073387D01*
X119545515Y-100096836D01*
X119557066Y-100118447D01*
X119572611Y-100137389D01*
X119591553Y-100152934D01*
X119613164Y-100164485D01*
X119636613Y-100171598D01*
X119660999Y-100174000D01*
X120479359Y-100174000D01*
X120490355Y-100175083D01*
X120495029Y-100176501D01*
X120499331Y-100178800D01*
X120503104Y-100181896D01*
X120506200Y-100185669D01*
X120508499Y-100189971D01*
X120509917Y-100194645D01*
X120511000Y-100205641D01*
X120511000Y-100494359D01*
X120509917Y-100505355D01*
X120508499Y-100510029D01*
X120506200Y-100514330D01*
X120500971Y-100520702D01*
X120487357Y-100541076D01*
X120477980Y-100563715D01*
X120473200Y-100587749D01*
X120473200Y-100612253D01*
X120477981Y-100636286D01*
X120487358Y-100658925D01*
X120500971Y-100679298D01*
X120506200Y-100685670D01*
X120508499Y-100689971D01*
X120509917Y-100694645D01*
X120511000Y-100705641D01*
X120511000Y-100994359D01*
X120509917Y-101005355D01*
X120508499Y-101010029D01*
X120506200Y-101014330D01*
X120500971Y-101020702D01*
X120487357Y-101041076D01*
X120477980Y-101063715D01*
X120473200Y-101087749D01*
X120473200Y-101112253D01*
X120477981Y-101136286D01*
X120487358Y-101158925D01*
X120500971Y-101179298D01*
X120506200Y-101185670D01*
X120508499Y-101189971D01*
X120509917Y-101194645D01*
X120511000Y-101205641D01*
X120511000Y-101494359D01*
X120509917Y-101505355D01*
X120508499Y-101510029D01*
X120506200Y-101514330D01*
X120500971Y-101520702D01*
X120487357Y-101541076D01*
X120477980Y-101563715D01*
X120473200Y-101587749D01*
X120473200Y-101612253D01*
X120477981Y-101636286D01*
X120487358Y-101658925D01*
X120500971Y-101679298D01*
X120506200Y-101685670D01*
X120508499Y-101689971D01*
X120509917Y-101694645D01*
X120511000Y-101705641D01*
X120511000Y-101994359D01*
X120509917Y-102005355D01*
X120508499Y-102010029D01*
X120506200Y-102014330D01*
X120500971Y-102020702D01*
X120487357Y-102041076D01*
X120477980Y-102063715D01*
X120473200Y-102087749D01*
X120473200Y-102112253D01*
X120477981Y-102136286D01*
X120487358Y-102158925D01*
X120500971Y-102179298D01*
X120506200Y-102185670D01*
X120508499Y-102189971D01*
X120509917Y-102194645D01*
X120511000Y-102205641D01*
X120511000Y-102494359D01*
X120509917Y-102505355D01*
X120508499Y-102510029D01*
X120506200Y-102514330D01*
X120500971Y-102520702D01*
X120487357Y-102541076D01*
X120477980Y-102563715D01*
X120473200Y-102587749D01*
X120473200Y-102612253D01*
X120477981Y-102636286D01*
X120487358Y-102658925D01*
X120500971Y-102679298D01*
X120506200Y-102685670D01*
X120508499Y-102689971D01*
X120509917Y-102694645D01*
X120511000Y-102705641D01*
X120511000Y-102994359D01*
X120509917Y-103005355D01*
X120508499Y-103010029D01*
X120506200Y-103014331D01*
X120503104Y-103018104D01*
X120499331Y-103021200D01*
X120495029Y-103023499D01*
X120490355Y-103024917D01*
X120479359Y-103026000D01*
X119660999Y-103026000D01*
X119636613Y-103028402D01*
X119613164Y-103035515D01*
X119591553Y-103047066D01*
X119572611Y-103062611D01*
X119557066Y-103081553D01*
X119545515Y-103103164D01*
X119538402Y-103126613D01*
X119536000Y-103150999D01*
X119536000Y-103969359D01*
X119534917Y-103980355D01*
X119533499Y-103985029D01*
X119531200Y-103989331D01*
X119528104Y-103993104D01*
X119524331Y-103996200D01*
X119520029Y-103998499D01*
X119515355Y-103999917D01*
X119504359Y-104001000D01*
X119215641Y-104001000D01*
X119204645Y-103999917D01*
X119199971Y-103998499D01*
X119195670Y-103996200D01*
X119189298Y-103990971D01*
X119168924Y-103977357D01*
X119146285Y-103967980D01*
X119122251Y-103963200D01*
X119097747Y-103963200D01*
X119073714Y-103967981D01*
X119051075Y-103977358D01*
X119030702Y-103990971D01*
X119024330Y-103996200D01*
X119020029Y-103998499D01*
X119015355Y-103999917D01*
X119004359Y-104001000D01*
X118715641Y-104001000D01*
X118704645Y-103999917D01*
X118699971Y-103998499D01*
X118695670Y-103996200D01*
X118689298Y-103990971D01*
X118668924Y-103977357D01*
X118646285Y-103967980D01*
X118622251Y-103963200D01*
X118597747Y-103963200D01*
X118573714Y-103967981D01*
X118551075Y-103977358D01*
X118530702Y-103990971D01*
X118524330Y-103996200D01*
X118520029Y-103998499D01*
X118515355Y-103999917D01*
X118504359Y-104001000D01*
X118215641Y-104001000D01*
X118204645Y-103999917D01*
X118199971Y-103998499D01*
X118195670Y-103996200D01*
X118189298Y-103990971D01*
X118168924Y-103977357D01*
X118146285Y-103967980D01*
X118122251Y-103963200D01*
X118097747Y-103963200D01*
X118073714Y-103967981D01*
X118051075Y-103977358D01*
X118030702Y-103990971D01*
X118024330Y-103996200D01*
X118020029Y-103998499D01*
X118015355Y-103999917D01*
X118004359Y-104001000D01*
X117715641Y-104001000D01*
X117704645Y-103999917D01*
X117699971Y-103998499D01*
X117695670Y-103996200D01*
X117689298Y-103990971D01*
X117668924Y-103977357D01*
X117646285Y-103967980D01*
X117622251Y-103963200D01*
X117597747Y-103963200D01*
X117573714Y-103967981D01*
X117551075Y-103977358D01*
X117530702Y-103990971D01*
X117524330Y-103996200D01*
X117520029Y-103998499D01*
X117515355Y-103999917D01*
X117504359Y-104001000D01*
X117215641Y-104001000D01*
X117204645Y-103999917D01*
X117199971Y-103998499D01*
X117195670Y-103996200D01*
X117189298Y-103990971D01*
X117168924Y-103977357D01*
X117146285Y-103967980D01*
X117122251Y-103963200D01*
X117097747Y-103963200D01*
X117073714Y-103967981D01*
X117051075Y-103977358D01*
X117030702Y-103990971D01*
X117024330Y-103996200D01*
X117020029Y-103998499D01*
X117015355Y-103999917D01*
X117004359Y-104001000D01*
X116715641Y-104001000D01*
X116704645Y-103999917D01*
X116699971Y-103998499D01*
X116695669Y-103996200D01*
X116691896Y-103993104D01*
X116688800Y-103989331D01*
X116686501Y-103985029D01*
X116685083Y-103980355D01*
X116684000Y-103969359D01*
X116684000Y-103150999D01*
X116681598Y-103126613D01*
X116674485Y-103103164D01*
X116662934Y-103081553D01*
X116647389Y-103062611D01*
X116628447Y-103047066D01*
X116606836Y-103035515D01*
X116583387Y-103028402D01*
X116559001Y-103026000D01*
X115740641Y-103026000D01*
X115729645Y-103024917D01*
X115724971Y-103023499D01*
X115720669Y-103021200D01*
X115716896Y-103018104D01*
X115713800Y-103014331D01*
X115711501Y-103010029D01*
X115710083Y-103005355D01*
X115709000Y-102994359D01*
X115709000Y-102705641D01*
X115710083Y-102694645D01*
X115711501Y-102689971D01*
X115713800Y-102685670D01*
X115719029Y-102679298D01*
X115732643Y-102658924D01*
X115742020Y-102636285D01*
X115746800Y-102612251D01*
X115746800Y-102587747D01*
X115742019Y-102563714D01*
X115732642Y-102541075D01*
X115719029Y-102520702D01*
X115713800Y-102514330D01*
X115711501Y-102510029D01*
X115710083Y-102505355D01*
X115709000Y-102494359D01*
X115709000Y-102205641D01*
X115710083Y-102194645D01*
X115711501Y-102189971D01*
X115713800Y-102185670D01*
X115719029Y-102179298D01*
X115732643Y-102158924D01*
X115742020Y-102136285D01*
X115746800Y-102112251D01*
X115746800Y-102087747D01*
X115742019Y-102063714D01*
X115732642Y-102041075D01*
X115719029Y-102020702D01*
X115713800Y-102014330D01*
X115711501Y-102010029D01*
X115710083Y-102005355D01*
X115709000Y-101994359D01*
X115709000Y-101705641D01*
X115710083Y-101694645D01*
X115711501Y-101689971D01*
X115713800Y-101685670D01*
X115719029Y-101679298D01*
X115732643Y-101658924D01*
X115742020Y-101636285D01*
X115746800Y-101612251D01*
X115746800Y-101587747D01*
X115742019Y-101563714D01*
X115732642Y-101541075D01*
X115719029Y-101520702D01*
X115713800Y-101514330D01*
X115711501Y-101510029D01*
X115710083Y-101505355D01*
X115709000Y-101494359D01*
X115709000Y-101205641D01*
X115710083Y-101194645D01*
X115711501Y-101189971D01*
X115713800Y-101185670D01*
X115719029Y-101179298D01*
X115732643Y-101158924D01*
X115742020Y-101136285D01*
X115746800Y-101112251D01*
X115746800Y-101087747D01*
X115742019Y-101063714D01*
X115732642Y-101041075D01*
X115719029Y-101020702D01*
X115713800Y-101014330D01*
X115711501Y-101010029D01*
X115710083Y-101005355D01*
X115709000Y-100994359D01*
X115709000Y-100705641D01*
X115710083Y-100694645D01*
X115711501Y-100689971D01*
X115713800Y-100685670D01*
X115719029Y-100679298D01*
X115732643Y-100658924D01*
X115742020Y-100636285D01*
X115746800Y-100612251D01*
X115746800Y-100587747D01*
X115742019Y-100563714D01*
X115732642Y-100541075D01*
X115719029Y-100520702D01*
X115713800Y-100514330D01*
X115711501Y-100510029D01*
X115710083Y-100505355D01*
X115709000Y-100494359D01*
X115709000Y-100205641D01*
X115710083Y-100194645D01*
X115711501Y-100189971D01*
X115713800Y-100185669D01*
X115716896Y-100181896D01*
X115720669Y-100178800D01*
X115724971Y-100176501D01*
X115729645Y-100175083D01*
X115740641Y-100174000D01*
X116559001Y-100174000D01*
X116583387Y-100171598D01*
X116606836Y-100164485D01*
X116628447Y-100152934D01*
X116647389Y-100137389D01*
X116662934Y-100118447D01*
X116674485Y-100096836D01*
X116681598Y-100073387D01*
X116684000Y-100049001D01*
X116684000Y-99230641D01*
X116685083Y-99219645D01*
X116686501Y-99214971D01*
X116688800Y-99210669D01*
X116691896Y-99206896D01*
X116695669Y-99203800D01*
X116699971Y-99201501D01*
X116704645Y-99200083D01*
X116715641Y-99199000D01*
X117004359Y-99199000D01*
X117015355Y-99200083D01*
G37*
G36*
X130761000Y-100006000D02*
G01*
X124509000Y-100006000D01*
X124509000Y-98404000D01*
X130761000Y-98404000D01*
X130761000Y-100006000D01*
G37*
G36*
X138447561Y-96999966D02*
G01*
X138480383Y-97009923D01*
X138510632Y-97026092D01*
X138537148Y-97047852D01*
X138558908Y-97074368D01*
X138575077Y-97104617D01*
X138585034Y-97137439D01*
X138589000Y-97177713D01*
X138589000Y-98656287D01*
X138585034Y-98696561D01*
X138575077Y-98729383D01*
X138558908Y-98759632D01*
X138537148Y-98786148D01*
X138510632Y-98807908D01*
X138480383Y-98824077D01*
X138447561Y-98834034D01*
X138407287Y-98838000D01*
X136928713Y-98838000D01*
X136888439Y-98834034D01*
X136855617Y-98824077D01*
X136825368Y-98807908D01*
X136798852Y-98786148D01*
X136777092Y-98759632D01*
X136760923Y-98729383D01*
X136750966Y-98696561D01*
X136747000Y-98656287D01*
X136747000Y-97177713D01*
X136750966Y-97137439D01*
X136760923Y-97104617D01*
X136777092Y-97074368D01*
X136798852Y-97047852D01*
X136825368Y-97026092D01*
X136855617Y-97009923D01*
X136888439Y-96999966D01*
X136928713Y-96996000D01*
X138407287Y-96996000D01*
X138447561Y-96999966D01*
G37*
G36*
X106879000Y-97910000D02*
G01*
X104977000Y-97910000D01*
X104977000Y-95908000D01*
X106879000Y-95908000D01*
X106879000Y-97910000D01*
G37*
G36*
X109529000Y-97910000D02*
G01*
X107527000Y-97910000D01*
X107527000Y-95908000D01*
X109529000Y-95908000D01*
X109529000Y-97910000D01*
G37*
G36*
X114479000Y-97910000D02*
G01*
X112577000Y-97910000D01*
X112577000Y-95908000D01*
X114479000Y-95908000D01*
X114479000Y-97910000D01*
G37*
G36*
X111929000Y-97910000D02*
G01*
X109927000Y-97910000D01*
X109927000Y-95908000D01*
X111929000Y-95908000D01*
X111929000Y-97910000D01*
G37*
G36*
X118963674Y-95773465D02*
G01*
X119001367Y-95784899D01*
X119036103Y-95803466D01*
X119066548Y-95828452D01*
X119091534Y-95858897D01*
X119110101Y-95893633D01*
X119121535Y-95931326D01*
X119126000Y-95976661D01*
X119126000Y-97063339D01*
X119121535Y-97108674D01*
X119110101Y-97146367D01*
X119091534Y-97181103D01*
X119066548Y-97211548D01*
X119036103Y-97236534D01*
X119001367Y-97255101D01*
X118963674Y-97266535D01*
X118918339Y-97271000D01*
X118081661Y-97271000D01*
X118036326Y-97266535D01*
X117998633Y-97255101D01*
X117963897Y-97236534D01*
X117933452Y-97211548D01*
X117908466Y-97181103D01*
X117889899Y-97146367D01*
X117878465Y-97108674D01*
X117874000Y-97063339D01*
X117874000Y-95976661D01*
X117878465Y-95931326D01*
X117889899Y-95893633D01*
X117908466Y-95858897D01*
X117933452Y-95828452D01*
X117963897Y-95803466D01*
X117998633Y-95784899D01*
X118036326Y-95773465D01*
X118081661Y-95769000D01*
X118918339Y-95769000D01*
X118963674Y-95773465D01*
G37*
G36*
X127853674Y-95773465D02*
G01*
X127891367Y-95784899D01*
X127926103Y-95803466D01*
X127956548Y-95828452D01*
X127981534Y-95858897D01*
X128000101Y-95893633D01*
X128011535Y-95931326D01*
X128016000Y-95976661D01*
X128016000Y-97063339D01*
X128011535Y-97108674D01*
X128000101Y-97146367D01*
X127981534Y-97181103D01*
X127956548Y-97211548D01*
X127926103Y-97236534D01*
X127891367Y-97255101D01*
X127853674Y-97266535D01*
X127808339Y-97271000D01*
X126971661Y-97271000D01*
X126926326Y-97266535D01*
X126888633Y-97255101D01*
X126853897Y-97236534D01*
X126823452Y-97211548D01*
X126798466Y-97181103D01*
X126779899Y-97146367D01*
X126768465Y-97108674D01*
X126764000Y-97063339D01*
X126764000Y-95976661D01*
X126768465Y-95931326D01*
X126779899Y-95893633D01*
X126798466Y-95858897D01*
X126823452Y-95828452D01*
X126853897Y-95803466D01*
X126888633Y-95784899D01*
X126926326Y-95773465D01*
X126971661Y-95769000D01*
X127808339Y-95769000D01*
X127853674Y-95773465D01*
G37*
G36*
X125803674Y-95773465D02*
G01*
X125841367Y-95784899D01*
X125876103Y-95803466D01*
X125906548Y-95828452D01*
X125931534Y-95858897D01*
X125950101Y-95893633D01*
X125961535Y-95931326D01*
X125966000Y-95976661D01*
X125966000Y-97063339D01*
X125961535Y-97108674D01*
X125950101Y-97146367D01*
X125931534Y-97181103D01*
X125906548Y-97211548D01*
X125876103Y-97236534D01*
X125841367Y-97255101D01*
X125803674Y-97266535D01*
X125758339Y-97271000D01*
X124921661Y-97271000D01*
X124876326Y-97266535D01*
X124838633Y-97255101D01*
X124803897Y-97236534D01*
X124773452Y-97211548D01*
X124748466Y-97181103D01*
X124729899Y-97146367D01*
X124718465Y-97108674D01*
X124714000Y-97063339D01*
X124714000Y-95976661D01*
X124718465Y-95931326D01*
X124729899Y-95893633D01*
X124748466Y-95858897D01*
X124773452Y-95828452D01*
X124803897Y-95803466D01*
X124838633Y-95784899D01*
X124876326Y-95773465D01*
X124921661Y-95769000D01*
X125758339Y-95769000D01*
X125803674Y-95773465D01*
G37*
G36*
X130248674Y-95773465D02*
G01*
X130286367Y-95784899D01*
X130321103Y-95803466D01*
X130351548Y-95828452D01*
X130376534Y-95858897D01*
X130395101Y-95893633D01*
X130406535Y-95931326D01*
X130411000Y-95976661D01*
X130411000Y-97063339D01*
X130406535Y-97108674D01*
X130395101Y-97146367D01*
X130376534Y-97181103D01*
X130351548Y-97211548D01*
X130321103Y-97236534D01*
X130286367Y-97255101D01*
X130248674Y-97266535D01*
X130203339Y-97271000D01*
X129366661Y-97271000D01*
X129321326Y-97266535D01*
X129283633Y-97255101D01*
X129248897Y-97236534D01*
X129218452Y-97211548D01*
X129193466Y-97181103D01*
X129174899Y-97146367D01*
X129163465Y-97108674D01*
X129159000Y-97063339D01*
X129159000Y-95976661D01*
X129163465Y-95931326D01*
X129174899Y-95893633D01*
X129193466Y-95858897D01*
X129218452Y-95828452D01*
X129248897Y-95803466D01*
X129283633Y-95784899D01*
X129321326Y-95773465D01*
X129366661Y-95769000D01*
X130203339Y-95769000D01*
X130248674Y-95773465D01*
G37*
G36*
X121358674Y-95773465D02*
G01*
X121396367Y-95784899D01*
X121431103Y-95803466D01*
X121461548Y-95828452D01*
X121486534Y-95858897D01*
X121505101Y-95893633D01*
X121516535Y-95931326D01*
X121521000Y-95976661D01*
X121521000Y-97063339D01*
X121516535Y-97108674D01*
X121505101Y-97146367D01*
X121486534Y-97181103D01*
X121461548Y-97211548D01*
X121431103Y-97236534D01*
X121396367Y-97255101D01*
X121358674Y-97266535D01*
X121313339Y-97271000D01*
X120476661Y-97271000D01*
X120431326Y-97266535D01*
X120393633Y-97255101D01*
X120358897Y-97236534D01*
X120328452Y-97211548D01*
X120303466Y-97181103D01*
X120284899Y-97146367D01*
X120273465Y-97108674D01*
X120269000Y-97063339D01*
X120269000Y-95976661D01*
X120273465Y-95931326D01*
X120284899Y-95893633D01*
X120303466Y-95858897D01*
X120328452Y-95828452D01*
X120358897Y-95803466D01*
X120393633Y-95784899D01*
X120431326Y-95773465D01*
X120476661Y-95769000D01*
X121313339Y-95769000D01*
X121358674Y-95773465D01*
G37*
G36*
X123408674Y-95773465D02*
G01*
X123446367Y-95784899D01*
X123481103Y-95803466D01*
X123511548Y-95828452D01*
X123536534Y-95858897D01*
X123555101Y-95893633D01*
X123566535Y-95931326D01*
X123571000Y-95976661D01*
X123571000Y-97063339D01*
X123566535Y-97108674D01*
X123555101Y-97146367D01*
X123536534Y-97181103D01*
X123511548Y-97211548D01*
X123481103Y-97236534D01*
X123446367Y-97255101D01*
X123408674Y-97266535D01*
X123363339Y-97271000D01*
X122526661Y-97271000D01*
X122481326Y-97266535D01*
X122443633Y-97255101D01*
X122408897Y-97236534D01*
X122378452Y-97211548D01*
X122353466Y-97181103D01*
X122334899Y-97146367D01*
X122323465Y-97108674D01*
X122319000Y-97063339D01*
X122319000Y-95976661D01*
X122323465Y-95931326D01*
X122334899Y-95893633D01*
X122353466Y-95858897D01*
X122378452Y-95828452D01*
X122408897Y-95803466D01*
X122443633Y-95784899D01*
X122481326Y-95773465D01*
X122526661Y-95769000D01*
X123363339Y-95769000D01*
X123408674Y-95773465D01*
G37*
G36*
X132298674Y-95773465D02*
G01*
X132336367Y-95784899D01*
X132371103Y-95803466D01*
X132401548Y-95828452D01*
X132426534Y-95858897D01*
X132445101Y-95893633D01*
X132456535Y-95931326D01*
X132461000Y-95976661D01*
X132461000Y-97063339D01*
X132456535Y-97108674D01*
X132445101Y-97146367D01*
X132426534Y-97181103D01*
X132401548Y-97211548D01*
X132371103Y-97236534D01*
X132336367Y-97255101D01*
X132298674Y-97266535D01*
X132253339Y-97271000D01*
X131416661Y-97271000D01*
X131371326Y-97266535D01*
X131333633Y-97255101D01*
X131298897Y-97236534D01*
X131268452Y-97211548D01*
X131243466Y-97181103D01*
X131224899Y-97146367D01*
X131213465Y-97108674D01*
X131209000Y-97063339D01*
X131209000Y-95976661D01*
X131213465Y-95931326D01*
X131224899Y-95893633D01*
X131243466Y-95858897D01*
X131268452Y-95828452D01*
X131298897Y-95803466D01*
X131333633Y-95784899D01*
X131371326Y-95773465D01*
X131416661Y-95769000D01*
X132253339Y-95769000D01*
X132298674Y-95773465D01*
G37*
G36*
X116913674Y-95773465D02*
G01*
X116951367Y-95784899D01*
X116986103Y-95803466D01*
X117016548Y-95828452D01*
X117041534Y-95858897D01*
X117060101Y-95893633D01*
X117071535Y-95931326D01*
X117076000Y-95976661D01*
X117076000Y-97063339D01*
X117071535Y-97108674D01*
X117060101Y-97146367D01*
X117041534Y-97181103D01*
X117016548Y-97211548D01*
X116986103Y-97236534D01*
X116951367Y-97255101D01*
X116913674Y-97266535D01*
X116868339Y-97271000D01*
X116031661Y-97271000D01*
X115986326Y-97266535D01*
X115948633Y-97255101D01*
X115913897Y-97236534D01*
X115883452Y-97211548D01*
X115858466Y-97181103D01*
X115839899Y-97146367D01*
X115828465Y-97108674D01*
X115824000Y-97063339D01*
X115824000Y-95976661D01*
X115828465Y-95931326D01*
X115839899Y-95893633D01*
X115858466Y-95858897D01*
X115883452Y-95828452D01*
X115913897Y-95803466D01*
X115948633Y-95784899D01*
X115986326Y-95773465D01*
X116031661Y-95769000D01*
X116868339Y-95769000D01*
X116913674Y-95773465D01*
G37*
G36*
X102830794Y-94551155D02*
G01*
X102937150Y-94572311D01*
X103037334Y-94613809D01*
X103137520Y-94655307D01*
X103317844Y-94775795D01*
X103471205Y-94929156D01*
X103591693Y-95109480D01*
X103591693Y-95109481D01*
X103664930Y-95286289D01*
X103674689Y-95309851D01*
X103717000Y-95522560D01*
X103717000Y-95739440D01*
X103674689Y-95952149D01*
X103591693Y-96152520D01*
X103471205Y-96332844D01*
X103317844Y-96486205D01*
X103137520Y-96606693D01*
X103037334Y-96648191D01*
X102937150Y-96689689D01*
X102830795Y-96710844D01*
X102724440Y-96732000D01*
X102507560Y-96732000D01*
X102401206Y-96710845D01*
X102294850Y-96689689D01*
X102194666Y-96648191D01*
X102094480Y-96606693D01*
X101914156Y-96486205D01*
X101760795Y-96332844D01*
X101640307Y-96152520D01*
X101557311Y-95952149D01*
X101515000Y-95739440D01*
X101515000Y-95522560D01*
X101557311Y-95309851D01*
X101567071Y-95286289D01*
X101640307Y-95109481D01*
X101640307Y-95109480D01*
X101760795Y-94929156D01*
X101914156Y-94775795D01*
X102094480Y-94655307D01*
X102194666Y-94613809D01*
X102294850Y-94572311D01*
X102401205Y-94551156D01*
X102507560Y-94530000D01*
X102724440Y-94530000D01*
X102830794Y-94551155D01*
G37*
G36*
X137936645Y-94491393D02*
G01*
X138104255Y-94560820D01*
X138104257Y-94560821D01*
X138255103Y-94661613D01*
X138383387Y-94789897D01*
X138484179Y-94940743D01*
X138484180Y-94940745D01*
X138553607Y-95108355D01*
X138589000Y-95286288D01*
X138589000Y-95467712D01*
X138553607Y-95645645D01*
X138493929Y-95789718D01*
X138484179Y-95813257D01*
X138383387Y-95964103D01*
X138255103Y-96092387D01*
X138104257Y-96193179D01*
X138104256Y-96193180D01*
X138104255Y-96193180D01*
X137936645Y-96262607D01*
X137758712Y-96298000D01*
X137577288Y-96298000D01*
X137399355Y-96262607D01*
X137231745Y-96193180D01*
X137231744Y-96193180D01*
X137231743Y-96193179D01*
X137080897Y-96092387D01*
X136952613Y-95964103D01*
X136851821Y-95813257D01*
X136842071Y-95789718D01*
X136782393Y-95645645D01*
X136747000Y-95467712D01*
X136747000Y-95286288D01*
X136782393Y-95108355D01*
X136851820Y-94940745D01*
X136851821Y-94940743D01*
X136952613Y-94789897D01*
X137080897Y-94661613D01*
X137231743Y-94560821D01*
X137231745Y-94560820D01*
X137399355Y-94491393D01*
X137577288Y-94456000D01*
X137758712Y-94456000D01*
X137936645Y-94491393D01*
G37*
G36*
X107729000Y-95210000D02*
G01*
X105527000Y-95210000D01*
X105527000Y-93508000D01*
X107729000Y-93508000D01*
X107729000Y-95210000D01*
G37*
G36*
X113929000Y-95210000D02*
G01*
X111727000Y-95210000D01*
X111727000Y-93508000D01*
X113929000Y-93508000D01*
X113929000Y-95210000D01*
G37*
G36*
X111279000Y-94960000D02*
G01*
X108177000Y-94960000D01*
X108177000Y-93508000D01*
X111279000Y-93508000D01*
X111279000Y-94960000D01*
G37*
G36*
X137936645Y-91951393D02*
G01*
X138104255Y-92020820D01*
X138104257Y-92020821D01*
X138255103Y-92121613D01*
X138383387Y-92249897D01*
X138484179Y-92400743D01*
X138484180Y-92400745D01*
X138553607Y-92568355D01*
X138589000Y-92746288D01*
X138589000Y-92927712D01*
X138553607Y-93105645D01*
X138523763Y-93177693D01*
X138484179Y-93273257D01*
X138383387Y-93424103D01*
X138255103Y-93552387D01*
X138104257Y-93653179D01*
X138104256Y-93653180D01*
X138104255Y-93653180D01*
X137936645Y-93722607D01*
X137758712Y-93758000D01*
X137577288Y-93758000D01*
X137399355Y-93722607D01*
X137231745Y-93653180D01*
X137231744Y-93653180D01*
X137231743Y-93653179D01*
X137080897Y-93552387D01*
X136952613Y-93424103D01*
X136851821Y-93273257D01*
X136812237Y-93177693D01*
X136782393Y-93105645D01*
X136747000Y-92927712D01*
X136747000Y-92746288D01*
X136782393Y-92568355D01*
X136851820Y-92400745D01*
X136851821Y-92400743D01*
X136952613Y-92249897D01*
X137080897Y-92121613D01*
X137231743Y-92020821D01*
X137231745Y-92020820D01*
X137399355Y-91951393D01*
X137577288Y-91916000D01*
X137758712Y-91916000D01*
X137936645Y-91951393D01*
G37*
G36*
X144715394Y-91122155D02*
G01*
X144821750Y-91143311D01*
X144921934Y-91184809D01*
X145022120Y-91226307D01*
X145202444Y-91346795D01*
X145355805Y-91500156D01*
X145476293Y-91680480D01*
X145559289Y-91880851D01*
X145601600Y-92093560D01*
X145601600Y-92310440D01*
X145559289Y-92523149D01*
X145476293Y-92723520D01*
X145355805Y-92903844D01*
X145202444Y-93057205D01*
X145022120Y-93177693D01*
X144821750Y-93260689D01*
X144715395Y-93281844D01*
X144609040Y-93303000D01*
X144392160Y-93303000D01*
X144285805Y-93281844D01*
X144179450Y-93260689D01*
X143979080Y-93177693D01*
X143798756Y-93057205D01*
X143645395Y-92903844D01*
X143524907Y-92723520D01*
X143441911Y-92523149D01*
X143399600Y-92310440D01*
X143399600Y-92093560D01*
X143441911Y-91880851D01*
X143524907Y-91680480D01*
X143645395Y-91500156D01*
X143798756Y-91346795D01*
X143979080Y-91226307D01*
X144079266Y-91184809D01*
X144179450Y-91143311D01*
X144285806Y-91122155D01*
X144392160Y-91101000D01*
X144609040Y-91101000D01*
X144715394Y-91122155D01*
G37*
M02*
