G04 #@! TF.GenerationSoftware,KiCad,Pcbnew,5.1.5-52549c5~84~ubuntu18.04.1*
G04 #@! TF.CreationDate,2020-02-05T16:10:53-05:00*
G04 #@! TF.ProjectId,ultrasonic,756c7472-6173-46f6-9e69-632e6b696361,rev?*
G04 #@! TF.SameCoordinates,Original*
G04 #@! TF.FileFunction,Copper,L2,Bot*
G04 #@! TF.FilePolarity,Positive*
%FSLAX46Y46*%
G04 Gerber Fmt 4.6, Leading zero omitted, Abs format (unit mm)*
G04 Created by KiCad (PCBNEW 5.1.5-52549c5~84~ubuntu18.04.1) date 2020-02-05 16:10:53*
%MOMM*%
%LPD*%
G04 APERTURE LIST*
%ADD10C,1.740000*%
%ADD11C,0.100000*%
%ADD12C,0.400000*%
%ADD13C,0.250000*%
G04 APERTURE END LIST*
D10*
X137668000Y-114935000D03*
X137668000Y-117475000D03*
G04 #@! TA.AperFunction,ComponentPad*
D11*
G36*
X138312505Y-119146204D02*
G01*
X138336773Y-119149804D01*
X138360572Y-119155765D01*
X138383671Y-119164030D01*
X138405850Y-119174520D01*
X138426893Y-119187132D01*
X138446599Y-119201747D01*
X138464777Y-119218223D01*
X138481253Y-119236401D01*
X138495868Y-119256107D01*
X138508480Y-119277150D01*
X138518970Y-119299329D01*
X138527235Y-119322428D01*
X138533196Y-119346227D01*
X138536796Y-119370495D01*
X138538000Y-119394999D01*
X138538000Y-120635001D01*
X138536796Y-120659505D01*
X138533196Y-120683773D01*
X138527235Y-120707572D01*
X138518970Y-120730671D01*
X138508480Y-120752850D01*
X138495868Y-120773893D01*
X138481253Y-120793599D01*
X138464777Y-120811777D01*
X138446599Y-120828253D01*
X138426893Y-120842868D01*
X138405850Y-120855480D01*
X138383671Y-120865970D01*
X138360572Y-120874235D01*
X138336773Y-120880196D01*
X138312505Y-120883796D01*
X138288001Y-120885000D01*
X137047999Y-120885000D01*
X137023495Y-120883796D01*
X136999227Y-120880196D01*
X136975428Y-120874235D01*
X136952329Y-120865970D01*
X136930150Y-120855480D01*
X136909107Y-120842868D01*
X136889401Y-120828253D01*
X136871223Y-120811777D01*
X136854747Y-120793599D01*
X136840132Y-120773893D01*
X136827520Y-120752850D01*
X136817030Y-120730671D01*
X136808765Y-120707572D01*
X136802804Y-120683773D01*
X136799204Y-120659505D01*
X136798000Y-120635001D01*
X136798000Y-119394999D01*
X136799204Y-119370495D01*
X136802804Y-119346227D01*
X136808765Y-119322428D01*
X136817030Y-119299329D01*
X136827520Y-119277150D01*
X136840132Y-119256107D01*
X136854747Y-119236401D01*
X136871223Y-119218223D01*
X136889401Y-119201747D01*
X136909107Y-119187132D01*
X136930150Y-119174520D01*
X136952329Y-119164030D01*
X136975428Y-119155765D01*
X136999227Y-119149804D01*
X137023495Y-119146204D01*
X137047999Y-119145000D01*
X138288001Y-119145000D01*
X138312505Y-119146204D01*
G37*
G04 #@! TD.AperFunction*
D10*
X137668000Y-103886000D03*
X137668000Y-106426000D03*
G04 #@! TA.AperFunction,ComponentPad*
D11*
G36*
X138312505Y-108097204D02*
G01*
X138336773Y-108100804D01*
X138360572Y-108106765D01*
X138383671Y-108115030D01*
X138405850Y-108125520D01*
X138426893Y-108138132D01*
X138446599Y-108152747D01*
X138464777Y-108169223D01*
X138481253Y-108187401D01*
X138495868Y-108207107D01*
X138508480Y-108228150D01*
X138518970Y-108250329D01*
X138527235Y-108273428D01*
X138533196Y-108297227D01*
X138536796Y-108321495D01*
X138538000Y-108345999D01*
X138538000Y-109586001D01*
X138536796Y-109610505D01*
X138533196Y-109634773D01*
X138527235Y-109658572D01*
X138518970Y-109681671D01*
X138508480Y-109703850D01*
X138495868Y-109724893D01*
X138481253Y-109744599D01*
X138464777Y-109762777D01*
X138446599Y-109779253D01*
X138426893Y-109793868D01*
X138405850Y-109806480D01*
X138383671Y-109816970D01*
X138360572Y-109825235D01*
X138336773Y-109831196D01*
X138312505Y-109834796D01*
X138288001Y-109836000D01*
X137047999Y-109836000D01*
X137023495Y-109834796D01*
X136999227Y-109831196D01*
X136975428Y-109825235D01*
X136952329Y-109816970D01*
X136930150Y-109806480D01*
X136909107Y-109793868D01*
X136889401Y-109779253D01*
X136871223Y-109762777D01*
X136854747Y-109744599D01*
X136840132Y-109724893D01*
X136827520Y-109703850D01*
X136817030Y-109681671D01*
X136808765Y-109658572D01*
X136802804Y-109634773D01*
X136799204Y-109610505D01*
X136798000Y-109586001D01*
X136798000Y-108345999D01*
X136799204Y-108321495D01*
X136802804Y-108297227D01*
X136808765Y-108273428D01*
X136817030Y-108250329D01*
X136827520Y-108228150D01*
X136840132Y-108207107D01*
X136854747Y-108187401D01*
X136871223Y-108169223D01*
X136889401Y-108152747D01*
X136909107Y-108138132D01*
X136930150Y-108125520D01*
X136952329Y-108115030D01*
X136975428Y-108106765D01*
X136999227Y-108100804D01*
X137023495Y-108097204D01*
X137047999Y-108096000D01*
X138288001Y-108096000D01*
X138312505Y-108097204D01*
G37*
G04 #@! TD.AperFunction*
D10*
X137668000Y-92837000D03*
X137668000Y-95377000D03*
G04 #@! TA.AperFunction,ComponentPad*
D11*
G36*
X138312505Y-97048204D02*
G01*
X138336773Y-97051804D01*
X138360572Y-97057765D01*
X138383671Y-97066030D01*
X138405850Y-97076520D01*
X138426893Y-97089132D01*
X138446599Y-97103747D01*
X138464777Y-97120223D01*
X138481253Y-97138401D01*
X138495868Y-97158107D01*
X138508480Y-97179150D01*
X138518970Y-97201329D01*
X138527235Y-97224428D01*
X138533196Y-97248227D01*
X138536796Y-97272495D01*
X138538000Y-97296999D01*
X138538000Y-98537001D01*
X138536796Y-98561505D01*
X138533196Y-98585773D01*
X138527235Y-98609572D01*
X138518970Y-98632671D01*
X138508480Y-98654850D01*
X138495868Y-98675893D01*
X138481253Y-98695599D01*
X138464777Y-98713777D01*
X138446599Y-98730253D01*
X138426893Y-98744868D01*
X138405850Y-98757480D01*
X138383671Y-98767970D01*
X138360572Y-98776235D01*
X138336773Y-98782196D01*
X138312505Y-98785796D01*
X138288001Y-98787000D01*
X137047999Y-98787000D01*
X137023495Y-98785796D01*
X136999227Y-98782196D01*
X136975428Y-98776235D01*
X136952329Y-98767970D01*
X136930150Y-98757480D01*
X136909107Y-98744868D01*
X136889401Y-98730253D01*
X136871223Y-98713777D01*
X136854747Y-98695599D01*
X136840132Y-98675893D01*
X136827520Y-98654850D01*
X136817030Y-98632671D01*
X136808765Y-98609572D01*
X136802804Y-98585773D01*
X136799204Y-98561505D01*
X136798000Y-98537001D01*
X136798000Y-97296999D01*
X136799204Y-97272495D01*
X136802804Y-97248227D01*
X136808765Y-97224428D01*
X136817030Y-97201329D01*
X136827520Y-97179150D01*
X136840132Y-97158107D01*
X136854747Y-97138401D01*
X136871223Y-97120223D01*
X136889401Y-97103747D01*
X136909107Y-97089132D01*
X136930150Y-97076520D01*
X136952329Y-97066030D01*
X136975428Y-97057765D01*
X136999227Y-97051804D01*
X137023495Y-97048204D01*
X137047999Y-97047000D01*
X138288001Y-97047000D01*
X138312505Y-97048204D01*
G37*
G04 #@! TD.AperFunction*
D10*
X109728000Y-108204000D03*
G04 #@! TA.AperFunction,ComponentPad*
D11*
G36*
X110372505Y-109875204D02*
G01*
X110396773Y-109878804D01*
X110420572Y-109884765D01*
X110443671Y-109893030D01*
X110465850Y-109903520D01*
X110486893Y-109916132D01*
X110506599Y-109930747D01*
X110524777Y-109947223D01*
X110541253Y-109965401D01*
X110555868Y-109985107D01*
X110568480Y-110006150D01*
X110578970Y-110028329D01*
X110587235Y-110051428D01*
X110593196Y-110075227D01*
X110596796Y-110099495D01*
X110598000Y-110123999D01*
X110598000Y-111364001D01*
X110596796Y-111388505D01*
X110593196Y-111412773D01*
X110587235Y-111436572D01*
X110578970Y-111459671D01*
X110568480Y-111481850D01*
X110555868Y-111502893D01*
X110541253Y-111522599D01*
X110524777Y-111540777D01*
X110506599Y-111557253D01*
X110486893Y-111571868D01*
X110465850Y-111584480D01*
X110443671Y-111594970D01*
X110420572Y-111603235D01*
X110396773Y-111609196D01*
X110372505Y-111612796D01*
X110348001Y-111614000D01*
X109107999Y-111614000D01*
X109083495Y-111612796D01*
X109059227Y-111609196D01*
X109035428Y-111603235D01*
X109012329Y-111594970D01*
X108990150Y-111584480D01*
X108969107Y-111571868D01*
X108949401Y-111557253D01*
X108931223Y-111540777D01*
X108914747Y-111522599D01*
X108900132Y-111502893D01*
X108887520Y-111481850D01*
X108877030Y-111459671D01*
X108868765Y-111436572D01*
X108862804Y-111412773D01*
X108859204Y-111388505D01*
X108858000Y-111364001D01*
X108858000Y-110123999D01*
X108859204Y-110099495D01*
X108862804Y-110075227D01*
X108868765Y-110051428D01*
X108877030Y-110028329D01*
X108887520Y-110006150D01*
X108900132Y-109985107D01*
X108914747Y-109965401D01*
X108931223Y-109947223D01*
X108949401Y-109930747D01*
X108969107Y-109916132D01*
X108990150Y-109903520D01*
X109012329Y-109893030D01*
X109035428Y-109884765D01*
X109059227Y-109878804D01*
X109083495Y-109875204D01*
X109107999Y-109874000D01*
X110348001Y-109874000D01*
X110372505Y-109875204D01*
G37*
G04 #@! TD.AperFunction*
D12*
X116078000Y-104013000D03*
X116078000Y-98933000D03*
X114758733Y-99617267D03*
X114681000Y-101346000D03*
X114681000Y-108712000D03*
X114681000Y-106426000D03*
X122174000Y-108712000D03*
X116459000Y-105918000D03*
X118110000Y-101600000D03*
X118110000Y-101600000D03*
X114808000Y-94742000D03*
X111760000Y-105029000D03*
X136017000Y-105537000D03*
X135636000Y-107950000D03*
X135128000Y-96520000D03*
X126365000Y-101092000D03*
X122809000Y-118618000D03*
X113411000Y-116722000D03*
X133223000Y-105537000D03*
X134620000Y-107950000D03*
X120372998Y-97790054D03*
X121539000Y-97790000D03*
X122174000Y-103759000D03*
X121158000Y-104394000D03*
X120374798Y-98552050D03*
X121539000Y-98552000D03*
X115316000Y-103759000D03*
X113521000Y-105537000D03*
X123190000Y-113030000D03*
X123190000Y-114300000D03*
D13*
X116078000Y-104013000D02*
X116078000Y-98933000D01*
X114758733Y-99617267D02*
X114758733Y-101268267D01*
X114758733Y-101268267D02*
X114681000Y-101346000D01*
X114681000Y-108712000D02*
X114681000Y-106426000D01*
X116459000Y-105918000D02*
X118110000Y-104267000D01*
X118110000Y-104267000D02*
X118110000Y-101600000D01*
X118110000Y-101600000D02*
X118110000Y-98044000D01*
X118110000Y-98044000D02*
X114808000Y-94742000D01*
X136017000Y-105537000D02*
X135636000Y-105918000D01*
X135636000Y-105918000D02*
X135636000Y-107950000D01*
X135128000Y-96520000D02*
X130556000Y-101092000D01*
X130556000Y-101092000D02*
X126365000Y-101092000D01*
X114372999Y-118817999D02*
X113411000Y-117856000D01*
X122809000Y-118618000D02*
X122609001Y-118817999D01*
X113411000Y-117856000D02*
X113411000Y-116722000D01*
X122609001Y-118817999D02*
X114372999Y-118817999D01*
X134620000Y-106807000D02*
X133223000Y-105537000D01*
X134620000Y-107950000D02*
X134620000Y-106807000D01*
X120372998Y-97790054D02*
X121538946Y-97790054D01*
X121538946Y-97790054D02*
X121539000Y-97790000D01*
X122174000Y-103759000D02*
X121793000Y-103759000D01*
X121793000Y-103759000D02*
X121158000Y-104394000D01*
X120374798Y-98552050D02*
X121538950Y-98552050D01*
X121538950Y-98552050D02*
X121539000Y-98552000D01*
X115316000Y-103759000D02*
X113538000Y-105537000D01*
X113538000Y-105537000D02*
X113521000Y-105537000D01*
X123190000Y-113030000D02*
X123190000Y-114300000D01*
M02*
