G04 #@! TF.GenerationSoftware,KiCad,Pcbnew,5.1.5-52549c5~84~ubuntu18.04.1*
G04 #@! TF.CreationDate,2020-02-07T18:48:43-05:00*
G04 #@! TF.ProjectId,ultrasonic,756c7472-6173-46f6-9e69-632e6b696361,rev?*
G04 #@! TF.SameCoordinates,Original*
G04 #@! TF.FileFunction,Soldermask,Bot*
G04 #@! TF.FilePolarity,Negative*
%FSLAX46Y46*%
G04 Gerber Fmt 4.6, Leading zero omitted, Abs format (unit mm)*
G04 Created by KiCad (PCBNEW 5.1.5-52549c5~84~ubuntu18.04.1) date 2020-02-07 18:48:43*
%MOMM*%
%LPD*%
G04 APERTURE LIST*
%ADD10C,0.100000*%
G04 APERTURE END LIST*
D10*
G36*
X144689995Y-119925756D02*
G01*
X144796350Y-119946911D01*
X144896534Y-119988409D01*
X144996720Y-120029907D01*
X145177044Y-120150395D01*
X145330405Y-120303756D01*
X145450893Y-120484080D01*
X145450893Y-120484081D01*
X145533889Y-120684450D01*
X145547780Y-120754287D01*
X145576200Y-120897160D01*
X145576200Y-121114040D01*
X145533889Y-121326749D01*
X145450893Y-121527120D01*
X145330405Y-121707444D01*
X145177044Y-121860805D01*
X144996720Y-121981293D01*
X144796350Y-122064289D01*
X144689994Y-122085445D01*
X144583640Y-122106600D01*
X144366760Y-122106600D01*
X144260406Y-122085445D01*
X144154050Y-122064289D01*
X143953680Y-121981293D01*
X143773356Y-121860805D01*
X143619995Y-121707444D01*
X143499507Y-121527120D01*
X143416511Y-121326749D01*
X143374200Y-121114040D01*
X143374200Y-120897160D01*
X143402620Y-120754287D01*
X143416511Y-120684450D01*
X143499507Y-120484081D01*
X143499507Y-120484080D01*
X143619995Y-120303756D01*
X143773356Y-120150395D01*
X143953680Y-120029907D01*
X144053866Y-119988409D01*
X144154050Y-119946911D01*
X144260405Y-119925756D01*
X144366760Y-119904600D01*
X144583640Y-119904600D01*
X144689995Y-119925756D01*
G37*
G36*
X138447561Y-119097966D02*
G01*
X138480383Y-119107923D01*
X138510632Y-119124092D01*
X138537148Y-119145852D01*
X138558908Y-119172368D01*
X138575077Y-119202617D01*
X138585034Y-119235439D01*
X138589000Y-119275713D01*
X138589000Y-120754287D01*
X138585034Y-120794561D01*
X138575077Y-120827383D01*
X138558908Y-120857632D01*
X138537148Y-120884148D01*
X138510632Y-120905908D01*
X138480383Y-120922077D01*
X138447561Y-120932034D01*
X138407287Y-120936000D01*
X136928713Y-120936000D01*
X136888439Y-120932034D01*
X136855617Y-120922077D01*
X136825368Y-120905908D01*
X136798852Y-120884148D01*
X136777092Y-120857632D01*
X136760923Y-120827383D01*
X136750966Y-120794561D01*
X136747000Y-120754287D01*
X136747000Y-119275713D01*
X136750966Y-119235439D01*
X136760923Y-119202617D01*
X136777092Y-119172368D01*
X136798852Y-119145852D01*
X136825368Y-119124092D01*
X136855617Y-119107923D01*
X136888439Y-119097966D01*
X136928713Y-119094000D01*
X138407287Y-119094000D01*
X138447561Y-119097966D01*
G37*
G36*
X102894295Y-116255456D02*
G01*
X103000650Y-116276611D01*
X103100834Y-116318109D01*
X103201020Y-116359607D01*
X103381344Y-116480095D01*
X103534705Y-116633456D01*
X103655193Y-116813780D01*
X103738189Y-117014151D01*
X103780500Y-117226860D01*
X103780500Y-117443740D01*
X103738189Y-117656449D01*
X103655193Y-117856820D01*
X103534705Y-118037144D01*
X103381344Y-118190505D01*
X103201020Y-118310993D01*
X103000650Y-118393989D01*
X102894294Y-118415145D01*
X102787940Y-118436300D01*
X102571060Y-118436300D01*
X102464706Y-118415145D01*
X102358350Y-118393989D01*
X102157980Y-118310993D01*
X101977656Y-118190505D01*
X101824295Y-118037144D01*
X101703807Y-117856820D01*
X101620811Y-117656449D01*
X101578500Y-117443740D01*
X101578500Y-117226860D01*
X101620811Y-117014151D01*
X101703807Y-116813780D01*
X101824295Y-116633456D01*
X101977656Y-116480095D01*
X102157980Y-116359607D01*
X102258166Y-116318109D01*
X102358350Y-116276611D01*
X102464705Y-116255456D01*
X102571060Y-116234300D01*
X102787940Y-116234300D01*
X102894295Y-116255456D01*
G37*
G36*
X137936645Y-116589393D02*
G01*
X138043021Y-116633456D01*
X138104257Y-116658821D01*
X138255103Y-116759613D01*
X138383387Y-116887897D01*
X138467746Y-117014150D01*
X138484180Y-117038745D01*
X138553607Y-117206355D01*
X138589000Y-117384288D01*
X138589000Y-117565712D01*
X138553607Y-117743645D01*
X138506728Y-117856819D01*
X138484179Y-117911257D01*
X138383387Y-118062103D01*
X138255103Y-118190387D01*
X138104257Y-118291179D01*
X138104256Y-118291180D01*
X138104255Y-118291180D01*
X137936645Y-118360607D01*
X137758712Y-118396000D01*
X137577288Y-118396000D01*
X137399355Y-118360607D01*
X137231745Y-118291180D01*
X137231744Y-118291180D01*
X137231743Y-118291179D01*
X137080897Y-118190387D01*
X136952613Y-118062103D01*
X136851821Y-117911257D01*
X136829272Y-117856819D01*
X136782393Y-117743645D01*
X136747000Y-117565712D01*
X136747000Y-117384288D01*
X136782393Y-117206355D01*
X136851820Y-117038745D01*
X136868254Y-117014150D01*
X136952613Y-116887897D01*
X137080897Y-116759613D01*
X137231743Y-116658821D01*
X137292979Y-116633456D01*
X137399355Y-116589393D01*
X137577288Y-116554000D01*
X137758712Y-116554000D01*
X137936645Y-116589393D01*
G37*
G36*
X137936645Y-114049393D02*
G01*
X138104255Y-114118820D01*
X138104257Y-114118821D01*
X138255103Y-114219613D01*
X138383387Y-114347897D01*
X138484179Y-114498743D01*
X138484180Y-114498745D01*
X138553607Y-114666355D01*
X138589000Y-114844288D01*
X138589000Y-115025712D01*
X138553607Y-115203645D01*
X138484180Y-115371255D01*
X138484179Y-115371257D01*
X138383387Y-115522103D01*
X138255103Y-115650387D01*
X138104257Y-115751179D01*
X138104256Y-115751180D01*
X138104255Y-115751180D01*
X137936645Y-115820607D01*
X137758712Y-115856000D01*
X137577288Y-115856000D01*
X137399355Y-115820607D01*
X137231745Y-115751180D01*
X137231744Y-115751180D01*
X137231743Y-115751179D01*
X137080897Y-115650387D01*
X136952613Y-115522103D01*
X136851821Y-115371257D01*
X136851820Y-115371255D01*
X136782393Y-115203645D01*
X136747000Y-115025712D01*
X136747000Y-114844288D01*
X136782393Y-114666355D01*
X136851820Y-114498745D01*
X136851821Y-114498743D01*
X136952613Y-114347897D01*
X137080897Y-114219613D01*
X137231743Y-114118821D01*
X137231745Y-114118820D01*
X137399355Y-114049393D01*
X137577288Y-114014000D01*
X137758712Y-114014000D01*
X137936645Y-114049393D01*
G37*
G36*
X110507561Y-109826966D02*
G01*
X110540383Y-109836923D01*
X110570632Y-109853092D01*
X110597148Y-109874852D01*
X110618908Y-109901368D01*
X110635077Y-109931617D01*
X110645034Y-109964439D01*
X110649000Y-110004713D01*
X110649000Y-111483287D01*
X110645034Y-111523561D01*
X110635077Y-111556383D01*
X110618908Y-111586632D01*
X110597148Y-111613148D01*
X110570632Y-111634908D01*
X110540383Y-111651077D01*
X110507561Y-111661034D01*
X110467287Y-111665000D01*
X108988713Y-111665000D01*
X108948439Y-111661034D01*
X108915617Y-111651077D01*
X108885368Y-111634908D01*
X108858852Y-111613148D01*
X108837092Y-111586632D01*
X108820923Y-111556383D01*
X108810966Y-111523561D01*
X108807000Y-111483287D01*
X108807000Y-110004713D01*
X108810966Y-109964439D01*
X108820923Y-109931617D01*
X108837092Y-109901368D01*
X108858852Y-109874852D01*
X108885368Y-109853092D01*
X108915617Y-109836923D01*
X108948439Y-109826966D01*
X108988713Y-109823000D01*
X110467287Y-109823000D01*
X110507561Y-109826966D01*
G37*
G36*
X138447561Y-108048966D02*
G01*
X138480383Y-108058923D01*
X138510632Y-108075092D01*
X138537148Y-108096852D01*
X138558908Y-108123368D01*
X138575077Y-108153617D01*
X138585034Y-108186439D01*
X138589000Y-108226713D01*
X138589000Y-109705287D01*
X138585034Y-109745561D01*
X138575077Y-109778383D01*
X138558908Y-109808632D01*
X138537148Y-109835148D01*
X138510632Y-109856908D01*
X138480383Y-109873077D01*
X138447561Y-109883034D01*
X138407287Y-109887000D01*
X136928713Y-109887000D01*
X136888439Y-109883034D01*
X136855617Y-109873077D01*
X136825368Y-109856908D01*
X136798852Y-109835148D01*
X136777092Y-109808632D01*
X136760923Y-109778383D01*
X136750966Y-109745561D01*
X136747000Y-109705287D01*
X136747000Y-108226713D01*
X136750966Y-108186439D01*
X136760923Y-108153617D01*
X136777092Y-108123368D01*
X136798852Y-108096852D01*
X136825368Y-108075092D01*
X136855617Y-108058923D01*
X136888439Y-108048966D01*
X136928713Y-108045000D01*
X138407287Y-108045000D01*
X138447561Y-108048966D01*
G37*
G36*
X109996645Y-107318393D02*
G01*
X110164255Y-107387820D01*
X110164257Y-107387821D01*
X110315103Y-107488613D01*
X110443387Y-107616897D01*
X110544179Y-107767743D01*
X110544180Y-107767745D01*
X110613607Y-107935355D01*
X110649000Y-108113288D01*
X110649000Y-108294712D01*
X110613607Y-108472645D01*
X110544180Y-108640255D01*
X110544179Y-108640257D01*
X110443387Y-108791103D01*
X110315103Y-108919387D01*
X110164257Y-109020179D01*
X110164256Y-109020180D01*
X110164255Y-109020180D01*
X109996645Y-109089607D01*
X109818712Y-109125000D01*
X109637288Y-109125000D01*
X109459355Y-109089607D01*
X109291745Y-109020180D01*
X109291744Y-109020180D01*
X109291743Y-109020179D01*
X109140897Y-108919387D01*
X109012613Y-108791103D01*
X108911821Y-108640257D01*
X108911820Y-108640255D01*
X108842393Y-108472645D01*
X108807000Y-108294712D01*
X108807000Y-108113288D01*
X108842393Y-107935355D01*
X108911820Y-107767745D01*
X108911821Y-107767743D01*
X109012613Y-107616897D01*
X109140897Y-107488613D01*
X109291743Y-107387821D01*
X109291745Y-107387820D01*
X109459355Y-107318393D01*
X109637288Y-107283000D01*
X109818712Y-107283000D01*
X109996645Y-107318393D01*
G37*
G36*
X137936645Y-105540393D02*
G01*
X138104255Y-105609820D01*
X138104257Y-105609821D01*
X138255103Y-105710613D01*
X138383387Y-105838897D01*
X138484179Y-105989743D01*
X138484180Y-105989745D01*
X138553607Y-106157355D01*
X138589000Y-106335288D01*
X138589000Y-106516712D01*
X138553607Y-106694645D01*
X138484180Y-106862255D01*
X138484179Y-106862257D01*
X138383387Y-107013103D01*
X138255103Y-107141387D01*
X138104257Y-107242179D01*
X138104256Y-107242180D01*
X138104255Y-107242180D01*
X137936645Y-107311607D01*
X137758712Y-107347000D01*
X137577288Y-107347000D01*
X137399355Y-107311607D01*
X137231745Y-107242180D01*
X137231744Y-107242180D01*
X137231743Y-107242179D01*
X137080897Y-107141387D01*
X136952613Y-107013103D01*
X136851821Y-106862257D01*
X136851820Y-106862255D01*
X136782393Y-106694645D01*
X136747000Y-106516712D01*
X136747000Y-106335288D01*
X136782393Y-106157355D01*
X136851820Y-105989745D01*
X136851821Y-105989743D01*
X136952613Y-105838897D01*
X137080897Y-105710613D01*
X137231743Y-105609821D01*
X137231745Y-105609820D01*
X137399355Y-105540393D01*
X137577288Y-105505000D01*
X137758712Y-105505000D01*
X137936645Y-105540393D01*
G37*
G36*
X137936645Y-103000393D02*
G01*
X138104255Y-103069820D01*
X138104257Y-103069821D01*
X138255103Y-103170613D01*
X138383387Y-103298897D01*
X138484179Y-103449743D01*
X138484180Y-103449745D01*
X138553607Y-103617355D01*
X138589000Y-103795288D01*
X138589000Y-103976712D01*
X138553607Y-104154645D01*
X138484180Y-104322255D01*
X138484179Y-104322257D01*
X138383387Y-104473103D01*
X138255103Y-104601387D01*
X138104257Y-104702179D01*
X138104256Y-104702180D01*
X138104255Y-104702180D01*
X137936645Y-104771607D01*
X137758712Y-104807000D01*
X137577288Y-104807000D01*
X137399355Y-104771607D01*
X137231745Y-104702180D01*
X137231744Y-104702180D01*
X137231743Y-104702179D01*
X137080897Y-104601387D01*
X136952613Y-104473103D01*
X136851821Y-104322257D01*
X136851820Y-104322255D01*
X136782393Y-104154645D01*
X136747000Y-103976712D01*
X136747000Y-103795288D01*
X136782393Y-103617355D01*
X136851820Y-103449745D01*
X136851821Y-103449743D01*
X136952613Y-103298897D01*
X137080897Y-103170613D01*
X137231743Y-103069821D01*
X137231745Y-103069820D01*
X137399355Y-103000393D01*
X137577288Y-102965000D01*
X137758712Y-102965000D01*
X137936645Y-103000393D01*
G37*
G36*
X138447561Y-96999966D02*
G01*
X138480383Y-97009923D01*
X138510632Y-97026092D01*
X138537148Y-97047852D01*
X138558908Y-97074368D01*
X138575077Y-97104617D01*
X138585034Y-97137439D01*
X138589000Y-97177713D01*
X138589000Y-98656287D01*
X138585034Y-98696561D01*
X138575077Y-98729383D01*
X138558908Y-98759632D01*
X138537148Y-98786148D01*
X138510632Y-98807908D01*
X138480383Y-98824077D01*
X138447561Y-98834034D01*
X138407287Y-98838000D01*
X136928713Y-98838000D01*
X136888439Y-98834034D01*
X136855617Y-98824077D01*
X136825368Y-98807908D01*
X136798852Y-98786148D01*
X136777092Y-98759632D01*
X136760923Y-98729383D01*
X136750966Y-98696561D01*
X136747000Y-98656287D01*
X136747000Y-97177713D01*
X136750966Y-97137439D01*
X136760923Y-97104617D01*
X136777092Y-97074368D01*
X136798852Y-97047852D01*
X136825368Y-97026092D01*
X136855617Y-97009923D01*
X136888439Y-96999966D01*
X136928713Y-96996000D01*
X138407287Y-96996000D01*
X138447561Y-96999966D01*
G37*
G36*
X102830794Y-94551155D02*
G01*
X102937150Y-94572311D01*
X103037334Y-94613809D01*
X103137520Y-94655307D01*
X103317844Y-94775795D01*
X103471205Y-94929156D01*
X103591693Y-95109480D01*
X103591693Y-95109481D01*
X103664930Y-95286289D01*
X103674689Y-95309851D01*
X103717000Y-95522560D01*
X103717000Y-95739440D01*
X103674689Y-95952149D01*
X103591693Y-96152520D01*
X103471205Y-96332844D01*
X103317844Y-96486205D01*
X103137520Y-96606693D01*
X103037334Y-96648191D01*
X102937150Y-96689689D01*
X102830795Y-96710844D01*
X102724440Y-96732000D01*
X102507560Y-96732000D01*
X102401206Y-96710845D01*
X102294850Y-96689689D01*
X102194666Y-96648191D01*
X102094480Y-96606693D01*
X101914156Y-96486205D01*
X101760795Y-96332844D01*
X101640307Y-96152520D01*
X101557311Y-95952149D01*
X101515000Y-95739440D01*
X101515000Y-95522560D01*
X101557311Y-95309851D01*
X101567071Y-95286289D01*
X101640307Y-95109481D01*
X101640307Y-95109480D01*
X101760795Y-94929156D01*
X101914156Y-94775795D01*
X102094480Y-94655307D01*
X102194666Y-94613809D01*
X102294850Y-94572311D01*
X102401205Y-94551156D01*
X102507560Y-94530000D01*
X102724440Y-94530000D01*
X102830794Y-94551155D01*
G37*
G36*
X137936645Y-94491393D02*
G01*
X138104255Y-94560820D01*
X138104257Y-94560821D01*
X138255103Y-94661613D01*
X138383387Y-94789897D01*
X138484179Y-94940743D01*
X138484180Y-94940745D01*
X138553607Y-95108355D01*
X138589000Y-95286288D01*
X138589000Y-95467712D01*
X138553607Y-95645645D01*
X138514756Y-95739439D01*
X138484179Y-95813257D01*
X138383387Y-95964103D01*
X138255103Y-96092387D01*
X138104257Y-96193179D01*
X138104256Y-96193180D01*
X138104255Y-96193180D01*
X137936645Y-96262607D01*
X137758712Y-96298000D01*
X137577288Y-96298000D01*
X137399355Y-96262607D01*
X137231745Y-96193180D01*
X137231744Y-96193180D01*
X137231743Y-96193179D01*
X137080897Y-96092387D01*
X136952613Y-95964103D01*
X136851821Y-95813257D01*
X136821244Y-95739439D01*
X136782393Y-95645645D01*
X136747000Y-95467712D01*
X136747000Y-95286288D01*
X136782393Y-95108355D01*
X136851820Y-94940745D01*
X136851821Y-94940743D01*
X136952613Y-94789897D01*
X137080897Y-94661613D01*
X137231743Y-94560821D01*
X137231745Y-94560820D01*
X137399355Y-94491393D01*
X137577288Y-94456000D01*
X137758712Y-94456000D01*
X137936645Y-94491393D01*
G37*
G36*
X137936645Y-91951393D02*
G01*
X138104255Y-92020820D01*
X138104257Y-92020821D01*
X138255103Y-92121613D01*
X138383387Y-92249897D01*
X138484179Y-92400743D01*
X138484180Y-92400745D01*
X138553607Y-92568355D01*
X138589000Y-92746288D01*
X138589000Y-92927712D01*
X138553607Y-93105645D01*
X138523763Y-93177693D01*
X138484179Y-93273257D01*
X138383387Y-93424103D01*
X138255103Y-93552387D01*
X138104257Y-93653179D01*
X138104256Y-93653180D01*
X138104255Y-93653180D01*
X137936645Y-93722607D01*
X137758712Y-93758000D01*
X137577288Y-93758000D01*
X137399355Y-93722607D01*
X137231745Y-93653180D01*
X137231744Y-93653180D01*
X137231743Y-93653179D01*
X137080897Y-93552387D01*
X136952613Y-93424103D01*
X136851821Y-93273257D01*
X136812237Y-93177693D01*
X136782393Y-93105645D01*
X136747000Y-92927712D01*
X136747000Y-92746288D01*
X136782393Y-92568355D01*
X136851820Y-92400745D01*
X136851821Y-92400743D01*
X136952613Y-92249897D01*
X137080897Y-92121613D01*
X137231743Y-92020821D01*
X137231745Y-92020820D01*
X137399355Y-91951393D01*
X137577288Y-91916000D01*
X137758712Y-91916000D01*
X137936645Y-91951393D01*
G37*
G36*
X144715394Y-91122155D02*
G01*
X144821750Y-91143311D01*
X144921934Y-91184809D01*
X145022120Y-91226307D01*
X145202444Y-91346795D01*
X145355805Y-91500156D01*
X145476293Y-91680480D01*
X145559289Y-91880851D01*
X145601600Y-92093560D01*
X145601600Y-92310440D01*
X145559289Y-92523149D01*
X145476293Y-92723520D01*
X145355805Y-92903844D01*
X145202444Y-93057205D01*
X145022120Y-93177693D01*
X144821750Y-93260689D01*
X144715395Y-93281844D01*
X144609040Y-93303000D01*
X144392160Y-93303000D01*
X144285805Y-93281844D01*
X144179450Y-93260689D01*
X143979080Y-93177693D01*
X143798756Y-93057205D01*
X143645395Y-92903844D01*
X143524907Y-92723520D01*
X143441911Y-92523149D01*
X143399600Y-92310440D01*
X143399600Y-92093560D01*
X143441911Y-91880851D01*
X143524907Y-91680480D01*
X143645395Y-91500156D01*
X143798756Y-91346795D01*
X143979080Y-91226307D01*
X144079266Y-91184809D01*
X144179450Y-91143311D01*
X144285806Y-91122155D01*
X144392160Y-91101000D01*
X144609040Y-91101000D01*
X144715394Y-91122155D01*
G37*
M02*
